<?xml version="1.0" standalone="no"?>
<!DOCTYPE svg PUBLIC "-//W3C//DTD SVG 1.1//EN" "http://www.w3.org/Graphics/SVG/1.1/DTD/svg11.dtd" >
<svg>
<metadata>
Created by FontForge 20090914 at Sat Oct 30 17:08:39 2021
 By www-data
Copyright 2020 The Open Sans Project Authors (https://github.com/googlefonts/opensans)
</metadata>
<defs>
<font id="OpenSans-ExtraBold" horiz-adv-x="0" >
  <font-face 
    font-family="Open Sans ExtraBold"
    font-weight="800"
    font-stretch="normal"
    units-per-em="2048"
    panose-1="0 0 0 0 0 0 0 0 0 0"
    ascent="1638"
    descent="-410"
    x-height="1133"
    cap-height="1462"
    bbox="-1491 -651 2882.01 2302"
    underline-thickness="50"
    underline-position="-75"
    unicode-range="U+000D-U+FFFD"
  />
<missing-glyph horiz-adv-x="1229" 
 />
    <glyph glyph-name="f_f" unicode="ff" horiz-adv-x="1692" 
d="M827 840l-241.001 -0.00195312v-840h-391v840h-150v192l158 96v19c0 98 13 177.833 39 239.5s67.333 107.167 124 136.5s130.667 44 222 44c58.667 0 111.834 -4.66699 159.501 -14s97.5 -22.666 149.5 -39.999l-84 -253c-19.333 5.33301 -40.833 10 -64.5 14
s-49.167 6 -76.5 6c-30 0 -51.833 -9.16699 -65.5 -27.5s-20.5 -48.166 -20.5 -89.499v-30h241v-293zM1673 839.998l-241.001 -0.00195312v-840h-391v840h-150v192l158 96v19c0 98 13 177.833 39 239.5s67.333 107.167 124 136.5s130.667 44 222 44
c58.667 0 111.834 -4.66699 159.501 -14s97.5 -22.666 149.5 -39.999l-84 -253c-19.333 5.33301 -40.833 10 -64.5 14s-49.167 6 -76.5 6c-30 0 -51.833 -9.16699 -65.5 -27.5s-20.5 -48.166 -20.5 -89.499v-30h241v-293z" />
    <glyph glyph-name="fi" unicode="fi" horiz-adv-x="1511" 
d="M827 840l-241.001 -0.00195312v-840h-391v840h-150v192l158 96v19c0 98 13 177.833 39 239.5s67.333 107.167 124 136.5s130.667 44 222 44c58.667 0 111.834 -4.66699 159.501 -14s97.5 -22.666 149.5 -39.999l-84 -253c-19.333 5.33301 -40.833 10 -64.5 14
s-49.167 6 -76.5 6c-30 0 -51.833 -9.16699 -65.5 -27.5s-20.5 -48.166 -20.5 -89.499v-30h241v-293zM1374 1133v-1133h-391v1133h391zM1180 1589c56 0 104.833 -11.667 146.5 -35s62.5 -69.666 62.5 -138.999c0 -67.333 -20.833 -112.833 -62.5 -136.5
s-90.5 -35.5 -146.5 -35.5c-57.333 0 -106.166 11.833 -146.499 35.5s-60.5 69.167 -60.5 136.5c0 69.333 20.167 115.666 60.5 138.999s89.166 35 146.499 35z" />
    <glyph glyph-name="fl" unicode="fl" horiz-adv-x="1507" 
d="M827 840l-241.001 -0.00195312v-840h-391v840h-150v192l158 96v19c0 98 13 177.833 39 239.5s67.333 107.167 124 136.5s130.667 44 222 44c58.667 0 111.834 -4.66699 159.501 -14s97.5 -22.666 149.5 -39.999l-84 -253c-19.333 5.33301 -40.833 10 -64.5 14
s-49.167 6 -76.5 6c-30 0 -51.833 -9.16699 -65.5 -27.5s-20.5 -48.166 -20.5 -89.499v-30h241v-293zM1372 -0.00195312h-391v1556h391v-1556z" />
    <glyph glyph-name="f_f_i" unicode="ffi" horiz-adv-x="2357" 
d="M827 840l-241.001 -0.00195312v-840h-391v840h-150v192l158 96v19c0 98 13 177.833 39 239.5s67.333 107.167 124 136.5s130.667 44 222 44c58.667 0 111.834 -4.66699 159.501 -14s97.5 -22.666 149.5 -39.999l-84 -253c-19.333 5.33301 -40.833 10 -64.5 14
s-49.167 6 -76.5 6c-30 0 -51.833 -9.16699 -65.5 -27.5s-20.5 -48.166 -20.5 -89.499v-30h241v-293zM1673 839.998l-241.001 -0.00195312v-840h-391v840h-150v192l158 96v19c0 98 13 177.833 39 239.5s67.333 107.167 124 136.5s130.667 44 222 44
c58.667 0 111.834 -4.66699 159.501 -14s97.5 -22.666 149.5 -39.999l-84 -253c-19.333 5.33301 -40.833 10 -64.5 14s-49.167 6 -76.5 6c-30 0 -51.833 -9.16699 -65.5 -27.5s-20.5 -48.166 -20.5 -89.499v-30h241v-293zM2220 1133v-1133h-391v1133h391zM2026 1589
c56 0 104.833 -11.667 146.5 -35s62.5 -69.666 62.5 -138.999c0 -67.333 -20.833 -112.833 -62.5 -136.5s-90.5 -35.5 -146.5 -35.5c-57.333 0 -106.166 11.833 -146.499 35.5s-60.5 69.167 -60.5 136.5c0 69.333 20.167 115.666 60.5 138.999s89.166 35 146.499 35z" />
    <glyph glyph-name="f_f_l" unicode="ffl" horiz-adv-x="2353" 
d="M827 840l-241.001 -0.00195312v-840h-391v840h-150v192l158 96v19c0 98 13 177.833 39 239.5s67.333 107.167 124 136.5s130.667 44 222 44c58.667 0 111.834 -4.66699 159.501 -14s97.5 -22.666 149.5 -39.999l-84 -253c-19.333 5.33301 -40.833 10 -64.5 14
s-49.167 6 -76.5 6c-30 0 -51.833 -9.16699 -65.5 -27.5s-20.5 -48.166 -20.5 -89.499v-30h241v-293zM1673 839.998l-241.001 -0.00195312v-840h-391v840h-150v192l158 96v19c0 98 13 177.833 39 239.5s67.333 107.167 124 136.5s130.667 44 222 44
c58.667 0 111.834 -4.66699 159.501 -14s97.5 -22.666 149.5 -39.999l-84 -253c-19.333 5.33301 -40.833 10 -64.5 14s-49.167 6 -76.5 6c-30 0 -51.833 -9.16699 -65.5 -27.5s-20.5 -48.166 -20.5 -89.499v-30h241v-293zM2218 -0.00390625h-391v1556h391v-1556z" />
    <glyph glyph-name=".notdef" horiz-adv-x="1229" 
 />
    <glyph glyph-name="NULL" 
 />
    <glyph glyph-name="NULL" 
 />
    <glyph glyph-name="CR" unicode="&#xd;" horiz-adv-x="532" 
 />
    <glyph glyph-name="space" unicode=" " horiz-adv-x="532" 
 />
    <glyph glyph-name="exclam" unicode="!" horiz-adv-x="594" 
d="M463 516h-330l-51 946h432zM86 166c0 70.667 20.833 120.334 62.5 149.001s91.167 43 148.5 43c56.667 0 105.334 -14.333 146.001 -43s61 -78.334 61 -149.001c0 -67.333 -20.333 -116 -61 -146s-89.334 -45 -146.001 -45c-57.333 0 -106.833 15 -148.5 45
s-62.5 78.667 -62.5 146z" />
    <glyph glyph-name="quotedbl" unicode="&#x22;" horiz-adv-x="1073" 
d="M477 1462l-41 -528h-274l-41 528h356zM952 1462l-41 -528h-274l-41 528h356z" />
    <glyph glyph-name="numbersign" unicode="#" horiz-adv-x="1356" 
d="M1042 813l-30 -168h243v-254h-290l-74 -391h-268l73 391h-168l-71 -391h-267l72 391h-225v254h274l31 168h-238v260h287l72 389h268l-74 -389h166l72 389h268l-73 -389h229v-260h-277zM578 645h165l31 168h-166z" />
    <glyph glyph-name="dollar" unicode="$" horiz-adv-x="1182" 
d="M496 -119l0.000976562 164.001c-88.667 2 -164.834 10.333 -228.501 25s-124.167 34.334 -181.5 59.001v313c64.667 -28.667 133.5 -51.5 206.5 -68.5s140.833 -28.167 203.5 -33.5v252c-84.667 24.667 -160.334 54.167 -227.001 88.5s-119.334 79 -158.001 134
s-58 126.167 -58 213.5c0 82.667 18.333 151.5 55 206.5s88.334 97.333 155.001 127s144.334 47.5 233.001 53.5v141h188v-139c83.333 -4 159 -15 227 -33s129.667 -38.333 185 -61l-88 -274c-50.667 21.333 -103.667 38.666 -159 51.999s-110.333 22.333 -165 27v-247
c95.333 -28.667 176.5 -59.167 243.5 -91.5s118.333 -73.333 154 -123s53.5 -114.834 53.5 -195.501c0 -110.667 -36.333 -204.5 -109 -281.5s-186.667 -123.833 -342 -140.5v-168h-188zM684.001 344.001c40 6 69.5 16.834 88.5 32.501s28.5 36.167 28.5 61.5
c0 17.333 -3.5 32.166 -10.5 44.499s-19 23.5 -36 33.5s-40.5 19.667 -70.5 29v-201zM496.001 936.002l0.00195312 190.002c-24.667 -2 -45.334 -6.5 -62.001 -13.5s-29.334 -16.5 -38.001 -28.5s-13 -26 -13 -42c0 -16.667 3.66699 -31.334 11 -44.001
s19.333 -23.834 36 -33.501s38.667 -19.167 66 -28.5z" />
    <glyph glyph-name="percent" unicode="%" horiz-adv-x="1942" 
d="M410 1483c114.667 0 206.832 -40 276.499 -120s104.5 -192.333 104.5 -337s-32.667 -257.667 -98 -339s-159.666 -122 -282.999 -122c-112 0 -202.167 40.667 -270.5 122s-102.5 194.333 -102.5 339s32.167 257 96.5 337s156.5 120 276.5 120zM413.998 1239
c-28.667 0 -48.5 -19.5 -59.5 -58.5s-16.5 -91.833 -16.5 -158.5c0 -65.333 5.5 -117.833 16.5 -157.5s30.833 -59.5 59.5 -59.5s48.334 19.5 59.001 58.5s16 91.833 16 158.5s-5.33301 119.5 -16 158.5s-30.334 58.5 -59.001 58.5zM1520 1462l-811 -1462h-297l811 1462h297
zM1522 901c114.667 0 206.832 -40 276.499 -120s104.5 -192.333 104.5 -337c0 -144 -32.667 -256.667 -98 -338s-159.666 -122 -282.999 -122c-112 0 -202.167 40.667 -270.5 122s-102.5 194 -102.5 338c0 144.667 32.167 257 96.5 337s156.5 120 276.5 120zM1526 657
c-28.667 0 -48.5 -19.5 -59.5 -58.5s-16.5 -91.833 -16.5 -158.5c0 -65.333 5.5 -117.833 16.5 -157.5s30.833 -59.5 59.5 -59.5s48.5 19.5 59.5 58.5s16.5 91.833 16.5 158.5c0 69.333 -5.5 122.833 -16.5 160.5s-30.833 56.5 -59.5 56.5z" />
    <glyph glyph-name="ampersand" unicode="&#x26;" horiz-adv-x="1636" 
d="M676 1481c92 0 171.33 -13.8242 237.997 -41.4912s118 -67.334 154 -119.001s54 -114.167 54 -187.5c0 -84.667 -24.5 -157.834 -73.5 -219.501s-112.5 -116.167 -190.5 -163.5l199 -189c23.333 36 44 76.167 62 120.5s32 90.833 42 139.5h406
c-21.333 -98.667 -54.166 -193.834 -98.499 -285.501s-91.5 -167.834 -141.5 -228.501l320 -307h-506l-99 102c-36.667 -22.667 -73.167 -43.334 -109.5 -62.001s-80.166 -33.334 -131.499 -44.001s-117.666 -16 -198.999 -16c-114 0 -210.5 19.167 -289.5 57.5
s-138.833 89.666 -179.5 153.999s-61 135.833 -61 214.5c0 58 10.5 111.833 31.5 161.5s51.667 94.5 92 134.5s89.833 75 148.5 105c-27.333 31.333 -50.833 63.666 -70.5 96.999s-34.667 68.833 -45 106.5s-15.5 78.5 -15.5 122.5c0 67.333 17.5 127.166 52.5 179.499
s87 93.5 156 123.5s153.833 45 254.5 45zM556.997 592.009c-18.667 -14 -34.167 -29.3311 -46.5 -45.998s-21.333 -34.334 -27 -53.001s-8.5 -38.334 -8.5 -59.001c0 -42 15.167 -76.333 45.5 -103s69.833 -40 118.5 -40c38 0 71.333 5 100 15s50.667 21.333 66 34z
M669.997 1225.01c-28 0 -52.5 -8.16992 -73.5 -24.5029s-31.5 -43.166 -31.5 -80.499c0 -29.333 8.83301 -57.166 26.5 -83.499s38.167 -50.166 61.5 -71.499c38 21.333 67 47 87 77s30 60.333 30 91c0 32.667 -9.5 56.167 -28.5 70.5s-42.833 21.5 -71.5 21.5z" />
    <glyph glyph-name="quotesingle" unicode="'" horiz-adv-x="598" 
d="M477 1462l-41 -528h-274l-41 528h356z" />
    <glyph glyph-name="parenleft" unicode="(" horiz-adv-x="735" 
d="M74 582c0 111.333 9 221.832 27 331.499s47.5 214.667 88.5 315s95.833 191.833 164.5 274.5h326c-92 -128 -158.667 -272.833 -200 -434.5s-62 -323.167 -62 -484.5c0 -106 9 -212.833 27 -320.5s46.167 -211.667 84.5 -312s87.833 -192.166 148.5 -275.499h-324
c-68.667 80 -123.5 169.333 -164.5 268s-70.5 202.167 -88.5 310.5s-27 217.5 -27 327.5z" />
    <glyph glyph-name="parenright" unicode=")" horiz-adv-x="735" 
d="M662 582c0 -110 -9 -219.164 -27 -327.497s-47.5 -211.833 -88.5 -310.5s-96.167 -188 -165.5 -268h-324c61.333 83.333 111 175.166 149 275.499s66 204.333 84 312s27 214.5 27 320.5c0 108 -9 216.167 -27 324.5s-46.167 213.166 -84.5 314.499
s-88.5 194.666 -150.5 279.999h326c69.333 -82.667 124.5 -174.167 165.5 -274.5s70.5 -205.333 88.5 -315s27 -220.167 27 -331.5z" />
    <glyph glyph-name="asterisk" unicode="*" horiz-adv-x="1100" 
d="M702 1556l-38 -352l356 101l37 -295l-314 -21l207 -278l-260 -138l-143 283l-123 -281l-272 136l206 278l-313 25l45 291l348 -101l-39 352h303z" />
    <glyph glyph-name="plus" unicode="+" horiz-adv-x="1200" 
d="M733 856h373v-268h-373v-361h-268v361h-373v268h373v367h268v-367z" />
    <glyph glyph-name="comma" unicode="," horiz-adv-x="633" 
d="M498 299l13.999 -23.001c-12 -48.667 -27.5 -107.167 -46.5 -175.5s-39.667 -137 -62 -206s-44.833 -128.833 -67.5 -179.5h-279c13.333 62.667 26.333 128.667 39 198s24.334 137.333 35.001 204s19 127.334 25 182.001h342z" />
    <glyph glyph-name="hyphen" unicode="-" horiz-adv-x="651" 
d="M43 393v312h565v-312h-565z" />
    <glyph glyph-name="period" unicode="." horiz-adv-x="592" 
d="M86 166c0 70.667 20.833 120.334 62.5 149.001s91.834 43 150.501 43c55.333 0 103.333 -14.333 144 -43s61 -78.334 61 -149.001c0 -67.333 -20.333 -116 -61 -146s-88.667 -45 -144 -45c-58.667 0 -108.834 15 -150.501 45s-62.5 78.667 -62.5 146z" />
    <glyph glyph-name="slash" unicode="/" horiz-adv-x="905" 
d="M901 1483l-545 -1503h-346l545 1503h346z" />
    <glyph glyph-name="zero" unicode="0" horiz-adv-x="1200" 
d="M1128 729c0 -117.333 -9.33301 -222.169 -28 -314.502s-48.5 -170.833 -89.5 -235.5s-95.167 -114 -162.5 -148s-150 -51 -248 -51c-122 0 -222 29.833 -300 89.5s-135.5 145.334 -172.5 257.001s-55.5 245.834 -55.5 402.501c0 158 16.833 293.167 50.5 405.5
s89.167 198.5 166.5 258.5s181 90 311 90c122 0 221.833 -29.833 299.5 -89.5s135.167 -145.667 172.5 -258s56 -247.833 56 -406.5zM465 728.997c0 -95.333 3.5 -175.332 10.5 -239.999s20.333 -113.167 40 -145.5s47.834 -48.5 84.501 -48.5s64.667 16.167 84 48.5
s32.666 80.666 39.999 144.999s11 144.5 11 240.5c0 96.667 -3.66699 177.334 -11 242.001s-20.666 113.5 -39.999 146.5s-47.333 49.5 -84 49.5s-64.834 -16.5 -84.501 -49.5s-33 -81.833 -40 -146.5s-10.5 -145.334 -10.5 -242.001z" />
    <glyph glyph-name="one" unicode="1" horiz-adv-x="1200" 
d="M942 0l-401 0.000976562v723v73.5c0 35.667 0.5 75.167 1.5 118.5s2.5 82.333 4.5 117c-17.333 -20.667 -33.5 -38.334 -48.5 -53.001l-43.5 -41l-166 -137l-205 252l502 409h356v-1462z" />
    <glyph glyph-name="two" unicode="2" horiz-adv-x="1200" 
d="M1122 0l-1061 -0.00292969v260l357 361c74 77.333 131.5 139.333 172.5 186s69.833 86.334 86.5 119.001s25 66.667 25 102c0 43.333 -14 74.666 -42 93.999s-61 29 -99 29c-46 0 -92.5 -13.167 -139.5 -39.5s-100.167 -65.166 -159.5 -116.499l-217 254
c44 39.333 90.667 76.833 140 112.5s107.666 64.834 174.999 87.501s149.333 34 246 34c99.333 0 185.5 -17.333 258.5 -52s129.5 -82.167 169.5 -142.5s60 -128.833 60 -205.5c0 -84.667 -15.5 -160.167 -46.5 -226.5s-77.5 -132.666 -139.5 -198.999
s-139.333 -141.5 -232 -225.5l-107 -96v-10h553v-326z" />
    <glyph glyph-name="three" unicode="3" horiz-adv-x="1200" 
d="M1073 1145c0 -69.333 -14.8311 -129.167 -44.498 -179.5s-69 -91.5 -118 -123.5s-102.5 -56 -160.5 -72v-6c116.667 -14.667 206.834 -50.167 270.501 -106.5s95.5 -136.166 95.5 -239.499c0 -80 -21.333 -153.167 -64 -219.5s-109 -119.333 -199 -159
s-205.667 -59.5 -347 -59.5c-94.667 0 -175.334 7 -242.001 21s-131.334 33.333 -194.001 58v328c63.333 -32.667 128.5 -56.834 195.5 -72.501s128.167 -23.5 183.5 -23.5c96 0 161.5 13.667 196.5 41s52.5 64 52.5 110c0 33.333 -8.33301 61.666 -25 84.999
s-47.5 41.333 -92.5 54s-109.5 19 -193.5 19h-90v297h92c74.667 0 133.834 6.66699 177.501 20s75.167 31.5 94.5 54.5s29 49.5 29 79.5c0 38.667 -15 67.334 -45 86.001s-69.667 28 -119 28c-44 0 -85.333 -6 -124 -18s-72.334 -25.333 -101.001 -40
s-50.334 -26.667 -65.001 -36l-164 264c60.667 41.333 130.167 76.333 208.5 105s180.833 43 307.5 43c150.667 0 269.167 -30 355.5 -90s129.5 -142.667 129.5 -248z" />
    <glyph glyph-name="four" unicode="4" horiz-adv-x="1200" 
d="M1169 283h-161v-283h-390v283h-583v290l608 889h365v-884h161v-295zM618 578l0.000976562 170.003c0 15.333 0.333008 34.666 1 57.999s1.5 46.833 2.5 70.5s2 43.667 3 60s1.83301 25.166 2.5 26.499h-11c-12.667 -30 -24.334 -54.833 -35.001 -74.5
s-24.667 -42.834 -42 -69.501l-162 -241h241z" />
    <glyph glyph-name="five" unicode="5" horiz-adv-x="1200" 
d="M664 958c81.333 0 155.337 -18.332 222.004 -54.999s120 -90 160 -160s60 -155.333 60 -256c0 -108.667 -21.833 -200.834 -65.5 -276.501s-109.334 -133 -197.001 -172s-198.167 -58.5 -331.5 -58.5c-84.667 0 -161.834 6.5 -231.501 19.5
s-131.834 32.833 -186.501 59.5v324c51.333 -23.333 113.166 -44.5 185.499 -63.5s138.833 -28.5 199.5 -28.5c48.667 0 90 7 124 21s59.833 34.667 77.5 62s26.5 61 26.5 101c0 55.333 -20 98.833 -60 130.5s-100.667 47.5 -182 47.5c-36.667 0 -72.667 -3.66699 -108 -11
s-66.333 -15.333 -93 -24l-145 72l55 772h834v-329h-498l-18 -193l65.5 12c22.333 4 57.833 6 106.5 6z" />
    <glyph glyph-name="six" unicode="6" horiz-adv-x="1200" 
d="M70 618c0 84 6.00391 167.502 18.0039 250.502s33.667 161.333 65 235s75.666 139 132.999 196s131 101.833 221 134.5s199.667 49 329 49c28.667 0 63.667 -1.66699 105 -5s75.666 -7.33301 102.999 -12v-309c-27.333 5.33301 -58 9.83301 -92 13.5
s-75.667 5.5 -125 5.5c-98.667 0 -176.5 -14.833 -233.5 -44.5s-98.167 -72.167 -123.5 -127.5s-40 -121.666 -44 -198.999h12c17.333 32 38.5 60.833 63.5 86.5s55.833 46 92.5 61s81 22.5 133 22.5c85.333 0 158.666 -18.5 219.999 -55.5s108.333 -90.833 141 -161.5
s49 -156.667 49 -258c0 -109.333 -20.833 -202.833 -62.5 -280.5s-101 -137 -178 -178s-168.833 -61.5 -275.5 -61.5c-78.667 0 -151.5 12.667 -218.5 38s-125.333 64.166 -175 116.499s-88.334 118.666 -116.001 198.999s-41.5 175.166 -41.5 284.499zM612.004 293.002
c42 0 76.1689 16 102.502 48s39.5 82.333 39.5 151c0 55.333 -10.833 98.833 -32.5 130.5s-56.834 47.5 -105.501 47.5c-32.667 0 -60.334 -7.83301 -83.001 -23.5s-40 -35.5 -52 -59.5s-18 -49 -18 -75s2.83301 -52 8.5 -78s14.667 -49.5 27 -70.5s27.833 -38 46.5 -51
s41 -19.5 67 -19.5z" />
    <glyph glyph-name="seven" unicode="7" horiz-adv-x="1200" 
d="M209 0l502 1135h-633v327h1055v-233l-515 -1229h-409z" />
    <glyph glyph-name="eight" unicode="8" horiz-adv-x="1200" 
d="M604 1483c96.667 0 181.501 -13.0029 254.501 -39.0029s130.167 -65.5 171.5 -118.5s62 -119.5 62 -199.5c0 -58.667 -10.833 -110.167 -32.5 -154.5s-51.334 -83 -89.001 -116s-81.167 -61.5 -130.5 -85.5c46 -26 91.667 -56.333 137 -91s83 -75.5 113 -122.5
s45 -102.833 45 -167.5c0 -78 -19 -147.833 -57 -209.5s-96.333 -110.334 -175 -146.001s-179.667 -53.5 -303 -53.5s-224.333 17 -303 51s-136.5 81.5 -173.5 142.5s-55.5 131.5 -55.5 211.5c0 68 11.5 125.333 34.5 172s54.5 86.334 94.5 119.001s85.667 62 137 88
c-40.667 27.333 -78 58.333 -112 93s-61 74.334 -81 119.001s-30 95.334 -30 152.001c0 78.667 21 144.334 63 197.001s100.167 92.167 174.5 118.5s159.5 39.5 255.5 39.5zM430.001 400.997c0 -40.667 14.666 -73.667 43.999 -99s70 -38 122 -38
c60.667 0 105.167 11.5 133.5 34.5s42.5 54.5 42.5 94.5c0 30 -8.83301 57.167 -26.5 81.5s-38.167 45.5 -61.5 63.5s-43.666 32 -60.999 42l-27 16c-30 -15.333 -57.5 -32.5 -82.5 -51.5s-45.167 -40.333 -60.5 -64s-23 -50.167 -23 -79.5zM602 1198
c-32.667 0 -61.001 -9.50098 -85.001 -28.501s-36 -44.833 -36 -77.5c0 -21.333 5.16699 -41.166 15.5 -59.499s24.333 -35.166 42 -50.499s37.5 -29.333 59.5 -42c19.333 11.333 38.333 23.666 57 36.999s34.334 29.333 47.001 48s19 41 19 67
c0 32.667 -11.833 58.5 -35.5 77.5s-51.5 28.5 -83.5 28.5z" />
    <glyph glyph-name="nine" unicode="9" horiz-adv-x="1200" 
d="M1130 821c0 -104.667 -9.17188 -200.667 -27.5049 -288s-46.666 -165.166 -84.999 -233.499s-87.5 -126.333 -147.5 -174s-131.667 -83.834 -215 -108.501s-179.333 -37 -288 -37c-30 0 -64.833 0.666992 -104.5 2s-73.167 4 -100.5 8v313
c28.667 -4.66699 57.334 -8.5 86.001 -11.5s62 -4.5 100 -4.5c110 0 195.167 15.667 255.5 47s102.833 74.833 127.5 130.5s39 119.834 43 192.501h-12c-17.333 -32.667 -38.333 -61.834 -63 -87.501s-55.667 -45.834 -93 -60.501s-83.666 -22 -138.999 -22
c-82 0 -153.167 18.667 -213.5 56s-107.166 91.5 -140.499 162.5s-50 157.5 -50 259.5c0 108.667 20.833 201.5 62.5 278.5s101.334 136.167 179.001 177.5s170.167 62 277.5 62c76 0 147.167 -13 213.5 -39s124.5 -65.833 174.5 -119.5s89.167 -122.167 117.5 -205.5
s42.5 -182.666 42.5 -297.999zM591.995 1167c-46 0 -81.832 -15.668 -107.499 -47.001s-38.5 -81.666 -38.5 -150.999c0 -54.667 12 -98 36 -130s59.333 -48 106 -48c29.333 0 55.166 7.83301 77.499 23.5s39.833 35.667 52.5 60s19 49.5 19 75.5s-2.83301 51.833 -8.5 77.5
s-14.334 49 -26.001 70s-26.667 37.833 -45 50.5s-40.166 19 -65.499 19z" />
    <glyph glyph-name="colon" unicode=":" horiz-adv-x="592" 
d="M86 166c0 70.667 20.833 120.334 62.5 149.001s91.834 43 150.501 43c55.333 0 103.333 -14.333 144 -43s61 -78.334 61 -149.001c0 -67.333 -20.333 -116 -61 -146s-88.667 -45 -144 -45c-58.667 0 -108.834 15 -150.501 45s-62.5 78.667 -62.5 146zM86 956
c0 70 20.833 119.333 62.5 148s91.834 43 150.501 43c55.333 0 103.333 -14.333 144 -43s61 -78 61 -148c0 -68.667 -20.333 -117.834 -61 -147.501s-88.667 -44.5 -144 -44.5c-58.667 0 -108.834 14.833 -150.501 44.5s-62.5 78.834 -62.5 147.501z" />
    <glyph glyph-name="semicolon" unicode=";" horiz-adv-x="608" 
d="M498 299l13.999 -23.001c-12 -48.667 -27.5 -107.167 -46.5 -175.5s-39.667 -137 -62 -206s-44.833 -128.833 -67.5 -179.5h-279c13.333 62.667 26.333 128.667 39 198s24.334 137.333 35.001 204s19 127.334 25 182.001h342zM91.999 955.999c0 70 20.5 119.333 61.5 148
s90.833 43 149.5 43c55.333 0 103.666 -14.333 144.999 -43s62 -78 62 -148c0 -68.667 -20.667 -117.834 -62 -147.501s-89.666 -44.5 -144.999 -44.5c-58.667 0 -108.5 14.833 -149.5 44.5s-61.5 78.834 -61.5 147.501z" />
    <glyph glyph-name="less" unicode="&#x3c;" horiz-adv-x="1200" 
d="M1104 178l-1012 449v172l1012 506v-297l-621 -283l621 -252v-295z" />
    <glyph glyph-name="equal" unicode="=" horiz-adv-x="1200" 
d="M92 815v268h1016v-268h-1016zM92 358v271h1016v-271h-1016z" />
    <glyph glyph-name="greater" unicode="&#x3e;" horiz-adv-x="1200" 
d="M92 473l621 252l-621 283v297l1012 -506v-172l-1012 -449v295z" />
    <glyph glyph-name="question" unicode="?" horiz-adv-x="1034" 
d="M295 516l0.00390625 86.001c0 41.333 5.16699 78.666 15.5 111.999s28.833 65 55.5 95s63.667 60 111 90c45.333 28.667 78.666 53.5 99.999 74.5s35.333 40.333 42 58s10 35.5 10 53.5c0 28 -12.667 50.167 -38 66.5s-58.333 24.5 -99 24.5
c-50.667 0 -105.5 -9 -164.5 -27s-121.833 -44.667 -188.5 -80l-139 272c75.333 43.333 155.666 77.833 240.999 103.5s178.333 38.5 279 38.5c151.333 0 268.666 -33.5 351.999 -100.5s125 -155.167 125 -264.5c0 -52 -8 -99.667 -24 -143s-41.333 -84 -76 -122
s-80.334 -75.333 -137.001 -112c-40 -25.333 -71.5 -47 -94.5 -65s-39.333 -35.333 -49 -52s-14.5 -35.667 -14.5 -57v-51h-307zM252.004 166.001c0 70.667 20.5 120.334 61.5 149.001s90.833 43 149.5 43c56 0 104.5 -14.333 145.5 -43s61.5 -78.334 61.5 -149.001
c0 -67.333 -20.5 -116 -61.5 -146s-89.5 -45 -145.5 -45c-58.667 0 -108.5 15 -149.5 45s-61.5 78.667 -61.5 146z" />
    <glyph glyph-name="at" unicode="@" horiz-adv-x="1837" 
d="M1755 756c0 -64 -8.16699 -127 -24.5 -189s-40.5 -118.167 -72.5 -168.5s-71.667 -90.5 -119 -120.5s-101.666 -45 -162.999 -45c-48.667 0 -95 10.167 -139 30.5s-78.667 49.833 -104 88.5h-15c-30.667 -33.333 -67.5 -61.5 -110.5 -84.5s-92.833 -34.5 -149.5 -34.5
c-126.667 0 -221.5 37.167 -284.5 111.5s-94.5 172.5 -94.5 294.5c0 90 19.5 170.833 58.5 242.5s96.5 128.334 172.5 170.001s169.667 62.5 281 62.5c66.667 0 132.167 -6.33301 196.5 -19s117.833 -26.667 160.5 -42l-21 -422c0 -7.33301 -0.333008 -20.333 -1 -39
s-1 -37 -1 -55c0 -32 4.66699 -54.333 14 -67s21 -19 35 -19c24.667 0 45.667 14 63 42s30.666 65.333 39.999 112s14 97.667 14 153c0 102 -19.333 190.333 -58 265s-96.334 132.334 -173.001 173.001s-172.334 61 -287.001 61c-101.333 0 -190.666 -16 -267.999 -48
s-142 -77.167 -194 -135.5s-91.167 -127.166 -117.5 -206.499s-39.5 -166.333 -39.5 -261c0 -107.333 20.333 -201 61 -281s101.334 -141.833 182.001 -185.5s181.334 -65.5 302.001 -65.5c76 0 160.167 8.66699 252.5 26s179.5 40.666 261.5 69.999v-229
c-70.667 -30 -148.834 -53.333 -234.501 -70s-174.167 -25 -265.5 -25c-174.667 0 -324 30.833 -448 92.5s-218.833 149.667 -284.5 264s-98.5 250.166 -98.5 407.499c0 123.333 20.667 237.666 62 342.999s100.833 197.666 178.5 276.999s171 141 280 185
s231.167 66 366.5 66c158 0 295.833 -29.333 413.5 -88s209.167 -142.167 274.5 -250.5s98 -237.166 98 -386.499zM760 641c0 -66.667 12.1689 -115.002 36.502 -145.002s56.5 -45 96.5 -45c54 0 92.5 21.833 115.5 65.5s37.833 115.834 44.5 216.501l10 156
c-13.333 2 -24.833 3.5 -34.5 4.5s-20.834 1.5 -33.501 1.5c-54.667 0 -99.334 -11.667 -134.001 -35s-60.167 -54.166 -76.5 -92.499s-24.5 -80.5 -24.5 -126.5z" />
    <glyph glyph-name="A" unicode="A" horiz-adv-x="1487" 
d="M1055 0l-72 274h-475l-74 -274h-434l477 1468h527l483 -1468h-432zM901 598l-62.999 240l-29 111.5l-37.5 150c-12.333 51.667 -21.833 94.167 -28.5 127.5c-6 -33.333 -14.5 -74.5 -25.5 -123.5l-34 -145.5c-11.667 -48 -21.834 -88 -30.501 -120l-63 -240h311z" />
    <glyph glyph-name="B" unicode="B" horiz-adv-x="1380" 
d="M158 1462h510c211.333 0 362 -31.333 452 -94s135 -152.667 135 -270c0 -64 -11.5 -118.333 -34.5 -163s-52 -80 -87 -106s-70.833 -43.667 -107.5 -53v-10c40 -10 79.833 -26.5 119.5 -49.5s72.667 -57.333 99 -103s39.5 -107.5 39.5 -185.5
c0 -88.667 -22.5 -165 -67.5 -229s-109.167 -113.167 -192.5 -147.5s-182.333 -51.5 -297 -51.5h-569v1462zM553 901h118.999c65.333 0 111.333 13.5 138 40.5s40 59.833 40 98.5c0 40 -15.167 70.5 -45.5 91.5s-77.166 31.5 -140.499 31.5h-111v-262zM552.999 612v-307.001
h139c68.667 0 116.667 14.833 144 44.5s41 66.834 41 111.501c0 26 -5.83301 50.5 -17.5 73.5s-31.5 41.667 -59.5 56s-66.667 21.5 -116 21.5h-131z" />
    <glyph glyph-name="C" unicode="C" horiz-adv-x="1329" 
d="M809 1159c-46.667 0 -88.3301 -9.83105 -124.997 -29.498s-68 -48.167 -94 -85.5s-45.833 -82.833 -59.5 -136.5s-20.5 -114.5 -20.5 -182.5c0 -92 11.667 -169.333 35 -232s58.833 -110 106.5 -142s107.5 -48 179.5 -48c65.333 0 128.166 9 188.499 27
s121.166 39.667 182.499 65v-334c-64.667 -28.667 -130.834 -49.334 -198.501 -62.001s-139.5 -19 -215.5 -19c-158.667 0 -288.5 31.5 -389.5 94.5s-175.333 150.5 -223 262.5s-71.5 242 -71.5 390c0 110.667 15.5 212 46.5 304s76.5 171.833 136.5 239.5
s134.167 120 222.5 157s189.5 55.5 303.5 55.5c70.667 0 145.167 -8.16699 223.5 -24.5s154.833 -42.5 229.5 -78.5l-121 -311c-53.333 25.333 -107.333 46.666 -162 63.999s-112.667 26 -174 26z" />
    <glyph glyph-name="D" unicode="D" horiz-adv-x="1503" 
d="M1399 762c0 -170 -31.666 -311.333 -94.999 -424s-152.5 -197.167 -267.5 -253.5s-250.167 -84.5 -405.5 -84.5h-473v1462h506c157.333 0 290.666 -27 399.999 -81s192.5 -133 249.5 -237s85.5 -231.333 85.5 -382zM989.001 748c0 88.667 -11.833 162.167 -35.5 220.5
s-59.167 102 -106.5 131s-107 43.5 -179 43.5h-115v-819h88c120 0 208 34.833 264 104.5s84 176.167 84 319.5z" />
    <glyph glyph-name="E" unicode="E" horiz-adv-x="1124" 
d="M1026 0h-868v1462h868v-317h-473v-230h438v-317h-438v-276h473v-322z" />
    <glyph glyph-name="F" unicode="F" horiz-adv-x="1104" 
d="M547 0h-389v1462h864v-317h-475v-279h438v-317h-438v-549z" />
    <glyph glyph-name="G" unicode="G" horiz-adv-x="1516" 
d="M745 856l630.998 -0.00292969v-788c-75.333 -26 -161.666 -47.167 -258.999 -63.5s-199.333 -24.5 -306 -24.5c-140.667 0 -264 27.333 -370 82s-188.667 137.834 -248 249.501s-89 252.834 -89 423.501c0 153.333 29.333 285.833 88 397.5s145.167 198 259.5 259
s254.5 91.5 420.5 91.5c91.333 0 178 -8.66699 260 -26s153.333 -39.333 214 -66l-125 -310c-52.667 26 -107.334 45.5 -164.001 58.5s-117.667 19.5 -183 19.5c-87.333 0 -157.5 -19.667 -210.5 -59s-91.5 -91.833 -115.5 -157.5s-36 -138.167 -36 -217.5
c0 -90.667 12.833 -167.167 38.5 -229.5s63.334 -109.666 113.001 -141.999s109.834 -48.5 180.501 -48.5c23.333 0 51.833 1.66699 85.5 5s59.167 7.33301 76.5 12v229h-261v305z" />
    <glyph glyph-name="H" unicode="H" horiz-adv-x="1569" 
d="M1411 0h-397v596h-459v-596h-397v1462h397v-542h459v542h397v-1462z" />
    <glyph glyph-name="I" unicode="I" horiz-adv-x="713" 
d="M158 0v1462h397v-1462h-397z" />
    <glyph glyph-name="J" unicode="J" horiz-adv-x="721" 
d="M43 -459c-44.667 0 -83.8311 2.16797 -117.498 6.50098s-62.834 9.16602 -87.501 14.499v307c21.333 -4 44 -8.5 68 -13.5s50 -7.5 78 -7.5c47.333 0 84.166 9.66699 110.499 29s44.833 48.333 55.5 87s16 87 16 145v1353h397v-1319c0 -146.667 -22 -264 -66 -352
s-105 -151.667 -183 -191s-168.333 -59 -271 -59z" />
    <glyph glyph-name="K" unicode="K" horiz-adv-x="1407" 
d="M1407 0h-446.001l-289 559l-117 -70v-489h-397v1462h397v-635c16.667 32 35.834 64 57.501 96l63.5 91l307 448h432l-461 -655z" />
    <glyph glyph-name="L" unicode="L" horiz-adv-x="1192" 
d="M158 0v1462h395v-1143h563v-319h-958z" />
    <glyph glyph-name="M" unicode="M" horiz-adv-x="1980" 
d="M795 0l-299 1053h-9c2.66699 -27.333 5.5 -64.333 8.5 -111s5.83301 -97 8.5 -151s4 -106 4 -156v-635h-350v1462h526l305 -1038h8l299 1038h527v-1462h-363v641c0 46 0.833008 95.5 2.5 148.5s3.66699 103 6 150s4.5 84.167 6.5 111.5h-9l-295 -1051h-376z" />
    <glyph glyph-name="N" unicode="N" horiz-adv-x="1708" 
d="M1550 0l-518 0.00292969l-534 1030h-9c3.33301 -31.333 6.33301 -69 9 -113s5 -88.833 7 -134.5s3 -86.834 3 -123.501v-659h-350v1462h516l532 -1016h6c-2 32 -4 69.167 -6 111.5s-3.83301 85.166 -5.5 128.499s-2.5 81.666 -2.5 114.999v661h352v-1462z" />
    <glyph glyph-name="O" unicode="O" horiz-adv-x="1632" 
d="M1526 733c0 -112.667 -13.498 -215.166 -40.498 -307.499s-69.167 -171.833 -126.5 -238.5s-131 -117.834 -221 -153.501s-197.667 -53.5 -323 -53.5c-122.667 0 -228.834 17.833 -318.501 53.5s-163.5 86.667 -221.5 153s-101 145.833 -129 238.5s-42 196 -42 310
c0 152 25.167 284.167 75.5 396.5s128.166 199.333 233.499 261s240 92.5 404 92.5c166.667 0 302.167 -31 406.5 -93s180.833 -149.333 229.5 -262s73 -245 73 -397zM520.002 733.001c0 -88 10.001 -163.667 30.001 -227s51.667 -112 95 -146s100 -51 170 -51
c72.667 0 130.5 17 173.5 51s74 82.667 93 146s28.5 139 28.5 227c0 132 -22 236.333 -66 313s-119.667 115 -227 115c-71.333 0 -128.833 -17.333 -172.5 -52s-75.334 -84 -95.001 -148s-29.5 -140 -29.5 -228z" />
    <glyph glyph-name="P" unicode="P" horiz-adv-x="1294" 
d="M664 1462c185.333 0 324.167 -40.332 416.5 -120.999s138.5 -195.334 138.5 -344.001c0 -66.667 -9.5 -130.667 -28.5 -192s-50 -116 -93 -164s-100 -86 -171 -114s-158.5 -42 -262.5 -42h-111v-485h-395v1462h506zM655.001 1143h-102.001v-336h78
c34 0 65.667 5.83301 95 17.5s52.833 30.667 70.5 57s26.5 61.5 26.5 105.5c0 46 -13.667 83.5 -41 112.5s-69.666 43.5 -126.999 43.5z" />
    <glyph glyph-name="Q" unicode="Q" horiz-adv-x="1632" 
d="M1526 733c0 -101.333 -10.8311 -195.167 -32.498 -281.5s-55.667 -162.333 -102 -228s-106.833 -119.167 -181.5 -160.5l357 -411h-492l-246 328h-6.5h-7.5c-122.667 0 -228.834 17.833 -318.501 53.5s-163.5 86.667 -221.5 153s-101 145.833 -129 238.5s-42 196 -42 310
c0 152 25.167 284.167 75.5 396.5s128.166 199.333 233.499 261s240 92.5 404 92.5c166.667 0 302.167 -31 406.5 -93s180.833 -149.333 229.5 -262s73 -245 73 -397zM520.002 732.999c0 -88 10.001 -163.667 30.001 -227s51.667 -112 95 -146s100 -51 170 -51
c72.667 0 130.5 17 173.5 51s74 82.667 93 146s28.5 139 28.5 227c0 132 -22 236.333 -66 313s-119.667 115 -227 115c-71.333 0 -128.833 -17.333 -172.5 -52s-75.334 -84 -95.001 -148s-29.5 -140 -29.5 -228z" />
    <glyph glyph-name="R" unicode="R" horiz-adv-x="1386" 
d="M637 1462c132.667 0 243 -16.167 331 -48.5s154.167 -80.5 198.5 -144.5s66.5 -143.667 66.5 -239c0 -59.333 -10 -113.333 -30 -162s-48.5 -92.167 -85.5 -130.5s-81.167 -71.833 -132.5 -100.5l426 -637h-448l-310 532h-100v-532h-395v1462h479zM631 1163
l-78.001 -0.000976562v-334h74c60.667 0 110.334 13.333 149.001 40s58 74.334 58 143.001c0 47.333 -16 84.333 -48 111s-83.667 40 -155 40z" />
    <glyph glyph-name="S" unicode="S" horiz-adv-x="1182" 
d="M1114 444c0 -79.333 -20 -154.499 -60 -225.499s-102.167 -128.5 -186.5 -172.5s-193.166 -66 -326.499 -66c-66.667 0 -125.167 3 -175.5 9s-97.166 15.833 -140.499 29.5s-88.333 31.5 -135 53.5v352c79.333 -40 159.333 -70.5 240 -91.5s153.667 -31.5 219 -31.5
c39.333 0 71.5 4.66699 96.5 14s43.5 22.166 55.5 38.499s18 35.166 18 56.499c0 25.333 -8.83301 46.833 -26.5 64.5s-45.834 36.167 -84.501 55.5s-89.667 43.333 -153 72c-54 25.333 -102.833 51.333 -146.5 78s-81 57.167 -112 91.5s-54.833 74.5 -71.5 120.5
s-25 100.333 -25 163c0 94 23.167 172.833 69.5 236.5s111 111.5 194 143.5s178.833 48 287.5 48c95.333 0 181.166 -10.667 257.499 -32s144.833 -45.666 205.5 -72.999l-121 -305c-62.667 28.667 -124.334 51.5 -185.001 68.5s-117 25.5 -169 25.5
c-34 0 -61.833 -4.16699 -83.5 -12.5s-37.667 -19.5 -48 -33.5s-15.5 -30 -15.5 -48c0 -22.667 8.83301 -43 26.5 -61s47.334 -37.5 89.001 -58.5s98.5 -48.167 170.5 -81.5c71.333 -32 132 -66.5 182 -103.5s88.167 -81.333 114.5 -133s39.5 -115.5 39.5 -191.5z" />
    <glyph glyph-name="T" unicode="T" horiz-adv-x="1210" 
d="M803 0h-395v1139h-357v323h1108v-323h-356v-1139z" />
    <glyph glyph-name="U" unicode="U" horiz-adv-x="1550" 
d="M1401 1462v-880c0 -122.667 -23.333 -229.167 -70 -319.5s-116.667 -160 -210 -209s-210.333 -73.5 -351 -73.5c-201.333 0 -355 51.667 -461 155s-159 249.333 -159 438v889h397v-858c0 -103.333 19.333 -178.333 58 -225s95.667 -70 171 -70c54 0 98 10.167 132 30.5
s58.833 52.5 74.5 96.5s23.5 100.667 23.5 170v856h395z" />
    <glyph glyph-name="V" unicode="V" horiz-adv-x="1421" 
d="M1421 1462l-479 -1462h-465l-477 1462h444l199 -741c7.33301 -28 15.833 -63.833 25.5 -107.5s18.667 -87.167 27 -130.5s13.5 -78.666 15.5 -105.999c2.66699 27.333 7.66699 62.333 15 105s15.5 85.5 24.5 128.5s17.5 78.5 25.5 106.5l203 745h442z" />
    <glyph glyph-name="W" unicode="W" horiz-adv-x="2128" 
d="M2097 1462l-359.999 -1462h-467l-140 637c-2.66699 12 -6.83398 32.333 -12.501 61l-19 98c-7 36.667 -13.333 72.834 -19 108.501s-9.83398 65.834 -12.501 90.501c-2.66699 -24.667 -7 -54.834 -13 -90.501s-12.5 -71.834 -19.5 -108.501s-13.667 -69.334 -20 -98.001
l-13.5 -61l-141 -637h-467l-362 1462h381l159 -733l16.5 -76.5l22 -108l21.5 -112.5c6.66699 -36 11.334 -66 14.001 -90c5.33301 41.333 12.5 88.333 21.5 141s19 106.167 30 160.5l31.5 151.5c10 46.667 18.667 84.667 26 114l129 553h366l125 -553l25.5 -113.5l32 -152.5
c11 -54.667 21.167 -108.5 30.5 -161.5s16.333 -99.5 21 -139.5c4 33.333 10.667 75.5 20 126.5l28.5 149l22.5 109.5l162 735h381z" />
    <glyph glyph-name="X" unicode="X" horiz-adv-x="1481" 
d="M1475 0h-457l-285 457l-282 -457h-447l485 748l-456 714h438l264 -452l254 452h451l-463 -745z" />
    <glyph glyph-name="Y" unicode="Y" horiz-adv-x="1360" 
d="M680 920l252 542h428l-481 -891v-571h-398v559l-481 903h430z" />
    <glyph glyph-name="Z" unicode="Z" horiz-adv-x="1251" 
d="M1200 0h-1139v244l633 899h-618v319h1108v-243l-633 -900h649v-319z" />
    <glyph glyph-name="bracketleft" unicode="[" horiz-adv-x="664" 
d="M616 -344h-499v1847h499v-254h-182v-1339h182v-254z" />
    <glyph glyph-name="backslash" unicode="\" horiz-adv-x="905" 
d="M352 1483l545 -1503h-346l-545 1503h346z" />
    <glyph glyph-name="bracketright" unicode="]" horiz-adv-x="664" 
d="M47 -90h182v1339h-182v254h500v-1847h-500v254z" />
    <glyph glyph-name="asciicircum" unicode="^" horiz-adv-x="1075" 
d="M-16 502l440 966h170l508 -966h-295l-289 577l-248 -577h-286z" />
    <glyph glyph-name="underscore" unicode="_" horiz-adv-x="1024" 
d="M1028 -379h-1032v246h1032v-246z" />
    <glyph glyph-name="grave" unicode="`" horiz-adv-x="856" 
d="M512 1569c23.333 -30.667 51.167 -64.333 83.5 -101l97 -107.5l81.5 -90.5v-29h-260c-28 17.333 -61.333 39.333 -100 66l-121 84.5l-118.5 86l-92.5 70.5v21h430z" />
    <glyph glyph-name="a" unicode="a" horiz-adv-x="1276" 
d="M688 1153c143.333 0 255.332 -35.498 335.999 -106.498s121 -172.167 121 -303.5v-743h-271l-75 150h-8c-32 -40 -64.833 -72.5 -98.5 -97.5s-72.167 -43.333 -115.5 -55s-96.333 -17.5 -159 -17.5c-65.333 0 -124 13.333 -176 40s-93 67 -123 121s-45 122.333 -45 205
c0 121.333 42 211.333 126 270s205.667 91.667 365 99l189 6v16c0 50.667 -12.5 86.667 -37.5 108s-58.5 32 -100.5 32c-44.667 0 -94.5 -7.83301 -149.5 -23.5s-110.167 -35.834 -165.5 -60.501l-113 258c65.333 33.333 139.333 58.666 222 75.999s175.334 26 278.001 26z
M755.999 506.002l-90 -4.00098c-72 -2.66699 -122.5 -15.167 -151.5 -37.5s-43.5 -54.166 -43.5 -95.499c0 -38.667 10.333 -67.167 31 -85.5s48 -27.5 82 -27.5c47.333 0 87.833 15 121.5 45s50.5 69 50.5 117v88z" />
    <glyph glyph-name="b" unicode="b" horiz-adv-x="1317" 
d="M526 1556l0.000976562 -351.999c0 -40 -1.33301 -78.167 -4 -114.5s-6 -70.5 -10 -102.5h14c29.333 46 67.666 85.167 114.999 117.5s109.333 48.5 186 48.5c118 0 214.5 -50 289.5 -150s112.5 -244.667 112.5 -434c0 -128.667 -17.333 -236.834 -52 -324.501
s-83.167 -153.667 -145.5 -198s-134.5 -66.5 -216.5 -66.5c-80 0 -140.833 13.833 -182.5 41.5s-77.167 57.5 -106.5 89.5h-24l-62 -111h-305v1556h391zM684.001 846.001c-36 0 -65.6689 -8.33398 -89.002 -25.001s-40.666 -42.5 -51.999 -77.5s-17 -79.5 -17 -133.5v-55
c0 -88 11.833 -153.333 35.5 -196s65.834 -64 126.501 -64c46 0 81.333 23.667 106 71s37 116.333 37 207s-12 158.834 -36 204.501s-61 68.5 -111 68.5z" />
    <glyph glyph-name="c" unicode="c" horiz-adv-x="1104" 
d="M651 -20c-114.667 0 -214.33 20.5029 -298.997 61.5029s-150.167 104.333 -196.5 190s-69.5 195.5 -69.5 329.5c0 137.333 25.833 249.666 77.5 336.999s122.5 151.666 212.5 192.999s192 62 306 62c69.333 0 135.166 -7.66699 197.499 -23s120.166 -36.333 173.499 -63
l-115 -289c-46.667 20.667 -90.167 37.167 -130.5 49.5s-82.166 18.5 -125.499 18.5c-39.333 0 -74 -10.333 -104 -31s-53.333 -51.834 -70 -93.501s-25 -94.5 -25 -158.5c0 -65.333 8.5 -118 25.5 -158s40.667 -69 71 -87s65.166 -27 104.499 -27
c56.667 0 113.167 8.83301 169.5 26.5s109.833 42.167 160.5 73.5v-311c-46.667 -30.667 -99.334 -55 -158.001 -73s-127 -27 -205 -27z" />
    <glyph glyph-name="d" unicode="d" horiz-adv-x="1317" 
d="M487 -20c-116.667 0 -212.668 49.6699 -288.001 149.003s-113 244.666 -113 435.999c0 193.333 38.667 339.666 116 438.999s177.333 149 300 149c50.667 0 94.334 -7.33301 131.001 -22s68.5 -34.5 95.5 -59.5s50.5 -53.167 70.5 -84.5h8
c-4.66699 28.667 -9 68.167 -13 118.5s-6 99.5 -6 147.5v303h394v-1556h-295l-84 143h-15c-18 -30 -40.5 -57.333 -67.5 -82s-59.667 -44.334 -98 -59.001s-83.5 -22 -135.5 -22zM646.999 289.003c62.667 0 106.834 19.832 132.501 59.499s39.5 100.167 41.5 181.5v31
c0 89.333 -12.5 157.833 -37.5 205.5s-71.833 71.5 -140.5 71.5c-46.667 0 -85.334 -22.667 -116.001 -68s-46 -115.666 -46 -210.999c0 -94 15.5 -162.5 46.5 -205.5s70.833 -64.5 119.5 -64.5z" />
    <glyph glyph-name="e" unicode="e" horiz-adv-x="1266" 
d="M645 1153c110 0 205.002 -19.167 285.002 -57.5s141.667 -95.833 185 -172.5s65 -172.667 65 -288v-174h-699c3.33301 -59.333 25.5 -108 66.5 -146s101.5 -57 181.5 -57c70.667 0 135.5 7 194.5 21s119.833 35.667 182.5 65v-281
c-54.667 -28.667 -114.334 -49.667 -179.001 -63s-146.334 -20 -245.001 -20c-114 0 -216 20.333 -306 61s-160.833 103.667 -212.5 189s-77.5 195 -77.5 329c0 136 23.333 247.833 70 335.5s112 152.667 196 195s181.667 63.5 293 63.5zM659.002 887
c-46 0 -84.499 -14.499 -115.499 -43.499s-49.167 -74.5 -54.5 -136.5h336c-0.666992 33.333 -7.33398 63.666 -20.001 90.999s-31.167 49 -55.5 65s-54.5 24 -90.5 24z" />
    <glyph glyph-name="f" unicode="f" horiz-adv-x="846" 
d="M827 840l-241.001 -0.00195312v-840h-391v840h-150v192l158 96v19c0 98 13 177.833 39 239.5s67.333 107.167 124 136.5s130.667 44 222 44c58.667 0 111.834 -4.66699 159.501 -14s97.5 -22.666 149.5 -39.999l-84 -253c-19.333 5.33301 -40.833 10 -64.5 14
s-49.167 6 -76.5 6c-30 0 -51.833 -9.16699 -65.5 -27.5s-20.5 -48.166 -20.5 -89.499v-30h241v-293z" />
    <glyph glyph-name="g" unicode="g" horiz-adv-x="1241" 
d="M522 -492c-160.667 0 -284.494 26.8301 -371.494 80.4971s-130.5 130.834 -130.5 231.501c0 67.333 21 123 63 167s105 75.667 189 95c-34.667 14.667 -64.834 38.334 -90.501 71.001s-38.5 65 -38.5 97c0 35.333 9.66699 66.5 29 93.5s59.666 59.167 120.999 96.5
c-58.667 26 -104.834 66.667 -138.501 122s-50.5 122.666 -50.5 201.999c0 82 18.833 152 56.5 210s92.667 102.333 165 133s160.5 46 264.5 46c14 0 35.333 -1.16699 64 -3.5s57.667 -5 87 -8s52 -5.83301 68 -8.5h395v-189l-155 -57c10.667 -19.333 18.667 -40.333 24 -63
s8 -46.667 8 -72c0 -122 -42.833 -216.667 -128.5 -284s-213.5 -101 -383.5 -101c-42 0 -75.333 2.66699 -100 8c-4.66699 -8.66699 -8.16699 -17.167 -10.5 -25.5s-3.5 -16.166 -3.5 -23.499c0 -15.333 9.16699 -27.5 27.5 -36.5s40.666 -15.167 66.999 -18.5
s51.5 -5 75.5 -5h188c127.333 0 222.666 -26.667 285.999 -80s95 -133.666 95 -240.999c0 -138 -58.833 -245.333 -176.5 -322s-282.834 -115 -495.501 -115zM541.006 -248.003c47.333 0 95 4.16504 143 12.498s88.333 21.833 121 40.5s49 43.334 49 74.001
c0 23.333 -9.66699 40.833 -29 52.5s-44.333 19.5 -75 23.5s-63 6 -97 6h-152c-28 0 -53.5 -4.5 -76.5 -13.5s-41.167 -21.167 -54.5 -36.5s-20 -32.666 -20 -51.999c0 -32 17.333 -57.833 52 -77.5s81 -29.5 139 -29.5zM594.006 587.995c37.333 0 66.166 14.333 86.499 43
s30.5 71.667 30.5 129c0 58.667 -9.66699 102.667 -29 132s-48.666 44 -87.999 44c-40.667 0 -71 -14.5 -91 -43.5s-30 -72.5 -30 -130.5s10 -101.5 30 -130.5s50.333 -43.5 91 -43.5z" />
    <glyph glyph-name="h" unicode="h" horiz-adv-x="1372" 
d="M526 1556l-0.00195312 -220.996c0 -84 -1.83301 -154.5 -5.5 -211.5s-7.16699 -100.5 -10.5 -130.5h18c24.667 39.333 52.667 70.666 84 93.999s66 40.166 104 50.499s79.333 15.5 124 15.5c74.667 0 142.167 -14.333 202.5 -43s108.5 -73.5 144.5 -134.5
s54 -140.5 54 -238.5v-737h-393v618c0 75.333 -11 132.166 -33 170.499s-56 57.5 -102 57.5c-47.333 0 -84.666 -13.5 -111.999 -40.5s-46.666 -66.333 -57.999 -118s-17 -114.834 -17 -189.501v-498h-391v1556h391z" />
    <glyph glyph-name="i" unicode="i" horiz-adv-x="666" 
d="M528 1133v-1133h-391v1133h391zM334 1589c56 0 104.833 -11.667 146.5 -35s62.5 -69.666 62.5 -138.999c0 -67.333 -20.833 -112.833 -62.5 -136.5s-90.5 -35.5 -146.5 -35.5c-57.333 0 -106.166 11.833 -146.499 35.5s-60.5 69.167 -60.5 136.5
c0 69.333 20.167 115.666 60.5 138.999s89.166 35 146.499 35z" />
    <glyph glyph-name="j" unicode="j" horiz-adv-x="664" 
d="M106 -492c-31.333 0 -67.5 2.5 -108.5 7.5s-74.833 10.833 -101.5 17.5v305c21.333 -6 41 -10.5 59 -13.5s38.333 -4.5 61 -4.5c32 0 59.833 11.167 83.5 33.5s35.5 67.833 35.5 136.5v1143h391v-1225c0 -68 -13.333 -132.5 -40 -193.5s-70.667 -110.667 -132 -149
s-144 -57.5 -248 -57.5zM125 1415c0 69.333 20.167 115.666 60.5 138.999s89.166 35 146.499 35c56 0 104.833 -11.667 146.5 -35s62.5 -69.666 62.5 -138.999c0 -67.333 -20.833 -112.833 -62.5 -136.5s-90.5 -35.5 -146.5 -35.5c-57.333 0 -106.166 11.833 -146.499 35.5
s-60.5 69.167 -60.5 136.5z" />
    <glyph glyph-name="k" unicode="k" horiz-adv-x="1350" 
d="M528 1556v-611.999c0 -46 -1.83301 -97.167 -5.5 -153.5s-9.16699 -107.5 -16.5 -153.5h8l58 88c23.333 35.333 44.333 64.666 63 87.999l254 320h436l-393 -482l418 -651h-447l-248 406l-127 -97v-309h-393v1556h393z" />
    <glyph glyph-name="l" unicode="l" horiz-adv-x="662" 
d="M526 0h-391v1556h391v-1556z" />
    <glyph glyph-name="m" unicode="m" horiz-adv-x="2048" 
d="M1518 1153c129.333 0 228.163 -33.0029 296.496 -99.0029s102.5 -171.667 102.5 -317v-737h-391v616c0 86 -11.5 145.833 -34.5 179.5s-57.167 50.5 -102.5 50.5c-63.333 0 -107.166 -27.667 -131.499 -83s-36.5 -133.666 -36.5 -234.999v-528h-392v616
c0 54.667 -4.83301 98.834 -14.5 132.501s-24.167 58.334 -43.5 74.001s-43.666 23.5 -72.999 23.5c-44.667 0 -79.5 -13.5 -104.5 -40.5s-42.5 -66.5 -52.5 -118.5s-15 -115.667 -15 -191v-496h-391v1133h295l57 -140h11c20 30.667 45.833 58 77.5 82s69.334 43 113.001 57
s93.5 21 149.5 21c83.333 0 152 -14 206 -42s98 -66.667 132 -116h12c36 50.667 82.333 89.667 139 117s120.334 41 191.001 41z" />
    <glyph glyph-name="n" unicode="n" horiz-adv-x="1372" 
d="M844 1153c116.667 0 212.002 -32.998 286.002 -98.998s111 -171.667 111 -317v-737h-391v618c0 75.333 -10.833 132.166 -32.5 170.499s-56.5 57.5 -104.5 57.5c-74 0 -123.667 -30.167 -149 -90.5s-38 -146.833 -38 -259.5v-496h-391v1133h295l53 -150h15
c24 36 52.667 66.667 86 92s71.666 44.666 114.999 57.999s91.666 20 144.999 20z" />
    <glyph glyph-name="o" unicode="o" horiz-adv-x="1305" 
d="M1217 569c0 -94.667 -13 -178.667 -39 -252s-63.667 -135 -113 -185s-109 -87.833 -179 -113.5s-149 -38.5 -237 -38.5c-82 0 -157.167 12.833 -225.5 38.5s-127.833 63.5 -178.5 113.5s-89.834 111.667 -117.501 185s-41.5 157.333 -41.5 252
c0 125.333 22.833 231.333 68.5 318s111 152.667 196 198s186.5 68 304.5 68c108.667 0 205.334 -22.667 290.001 -68s151.167 -111.333 199.5 -198s72.5 -192.667 72.5 -318zM483 569c0 -64.667 5.66504 -119.167 16.998 -163.5s29.5 -78 54.5 -101
s57.833 -34.5 98.5 -34.5s73 11.5 97 34.5s41.5 56.667 52.5 101s16.5 98.833 16.5 163.5s-5.5 118.667 -16.5 162s-28.667 76 -53 98s-57.166 33 -98.499 33c-59.333 0 -102.166 -24.667 -128.499 -74s-39.5 -122.333 -39.5 -219z" />
    <glyph glyph-name="p" unicode="p" horiz-adv-x="1317" 
d="M827 1153c125.333 0 223.666 -50.166 294.999 -150.499s107 -244.833 107 -433.5c0 -128.667 -18 -236.834 -54 -324.501s-85.167 -153.667 -147.5 -198s-133.166 -66.5 -212.499 -66.5c-53.333 0 -98.5 6.66699 -135.5 20s-67.667 30 -92 50s-44.833 40.333 -61.5 61
h-12c3.33301 -26 6.16602 -54 8.49902 -84s3.5 -65 3.5 -105v-414h-391v1625h318l55 -144h18c18.667 29.333 41.334 56.5 68.001 81.5s59.167 45 97.5 60s83.5 22.5 135.5 22.5zM680 846.001c-38 0 -68 -9.00098 -90 -27.001s-37.833 -45.167 -47.5 -81.5
s-15.167 -81.5 -16.5 -135.5v-31c0 -60 4.66699 -110.5 14 -151.5s25.333 -72 48 -93s54 -31.5 94 -31.5c32.667 0 60 9.33301 82 28s38.667 48.334 50 89.001s17 94.334 17 161.001c0 99.333 -12.833 169.666 -38.5 210.999s-63.167 62 -112.5 62z" />
    <glyph glyph-name="q" unicode="q" horiz-adv-x="1317" 
d="M791 -492l0.000976562 469.001c0 28 1 55.833 3 83.5s5 55.167 9 82.5h-12c-26.667 -44.667 -63.834 -83 -111.501 -115s-110.167 -48 -187.5 -48c-120.667 0 -218.5 49.667 -293.5 149s-112.5 244.666 -112.5 435.999c0 128 17.333 235.667 52 323s83 153.333 145 198
s133.667 67 215 67c78.667 0 142.5 -15.333 191.5 -46s88.167 -68.667 117.5 -114h8l29 140h338v-1625h-391zM651.001 283.001c42.667 0 76.3311 8.83105 100.998 26.498s42.334 44.334 53.001 80.001s16 80.5 16 134.5v47c0 88.667 -12 157.334 -36 206.001
s-70.667 73 -140 73c-54 0 -94.5 -24.667 -121.5 -74s-40.5 -121.666 -40.5 -216.999c0 -98.667 13.833 -169.334 41.5 -212.001s69.834 -64 126.501 -64z" />
    <glyph glyph-name="r" unicode="r" horiz-adv-x="961" 
d="M819 1153c21.333 0 43.6689 -1.49902 67.002 -4.49902s40.666 -5.5 51.999 -7.5l-35 -369c-12.667 3.33301 -29 6.16602 -49 8.49902s-48 3.5 -84 3.5c-24.667 0 -51 -2.33301 -79 -7s-54.5 -14.5 -79.5 -29.5s-45.5 -37.667 -61.5 -68s-24 -71.166 -24 -122.499v-557
h-391v1133h291l61 -181h19c20.667 37.333 47.167 71.166 79.5 101.499s68.666 54.5 108.999 72.5s81.833 27 124.5 27z" />
    <glyph glyph-name="s" unicode="s" horiz-adv-x="1059" 
d="M977 348c0 -72 -15.9971 -135.672 -47.9971 -191.005s-83.167 -98.666 -153.5 -129.999s-162.833 -47 -277.5 -47c-80.667 0 -152.834 4.33301 -216.501 13s-128.167 25.334 -193.5 50.001v313c71.333 -32.667 144 -56.167 218 -70.5s132.333 -21.5 175 -21.5
c44 0 76.167 4.83301 96.5 14.5s30.5 24.167 30.5 43.5c0 16.667 -6.83301 30.834 -20.5 42.501s-38 25.167 -73 40.5l-147.5 62c-62.667 26 -114.834 54.333 -156.501 85s-72.834 67.334 -93.501 110.001s-31 95 -31 157c0 110.667 42.667 194 128 250s198.333 84 339 84
c74.667 0 145 -8.16699 211 -24.5s134.333 -40.166 205 -71.499l-107 -252c-56 25.333 -112.667 45.666 -170 60.999s-103 23 -137 23c-30.667 0 -54.334 -4 -71.001 -12s-25 -19.667 -25 -35c0 -14 5.83301 -26.333 17.5 -37s33.834 -23 66.501 -37l143 -59
c66 -26.667 120.5 -55.167 163.5 -85.5s75 -67.166 96 -110.499s31.5 -98.333 31.5 -165z" />
    <glyph glyph-name="t" unicode="t" horiz-adv-x="942" 
d="M690 289c35.333 0 67.668 3.66895 97.001 11.002s60 16.666 92 27.999v-285c-42.667 -18.667 -87.834 -33.834 -135.501 -45.501s-108.5 -17.5 -182.5 -17.5c-73.333 0 -138 11.5 -194 34.5s-99.5 63 -130.5 120s-46.5 136.5 -46.5 238.5v467h-137v159l174 123l101 238
h256v-227h278v-293h-278v-441c0 -36.667 9.33301 -64.167 28 -82.5s44.667 -27.5 78 -27.5z" />
    <glyph glyph-name="u" unicode="u" horiz-adv-x="1372" 
d="M1237 1133v-1133h-295l-49 141h-23c-23.333 -38 -52.833 -68.833 -88.5 -92.5s-75.167 -41 -118.5 -52s-88.333 -16.5 -135 -16.5c-74 0 -140.833 14.333 -200.5 43s-107 73.667 -142 135s-52.5 140.333 -52.5 237v738h391v-619c0 -73.333 10.5 -129.166 31.5 -167.499
s55.5 -57.5 103.5 -57.5c49.333 0 87.5 13.333 114.5 40s45.833 66 56.5 118s16 115.333 16 190v496h391z" />
    <glyph glyph-name="v" unicode="v" horiz-adv-x="1251" 
d="M432 0l-432 1133h408l192 -670c2 -6 5.5 -21.333 10.5 -46s7.5 -47.667 7.5 -69h7c0 22.667 2.33301 44.334 7 65.001l11 48l201 672h407l-432 -1133h-387z" />
    <glyph glyph-name="w" unicode="w" horiz-adv-x="1864" 
d="M1110 0l-118.999 496c-6 25.333 -12 54.166 -18 86.499l-17.5 97.5c-5.66699 32.667 -10.5 62.667 -14.5 90s-7 48.666 -9 63.999h-6c-2 -15.333 -5.33301 -36.833 -10 -64.5l-16 -91.5c-6 -33.333 -12.5 -67.166 -19.5 -101.499s-13.833 -66.166 -20.5 -95.499
l-115 -481h-411l-309 1133h385l92 -435c6.66699 -32 13.5 -70.167 20.5 -114.5s13.333 -89.333 19 -135s9.5 -86.5 11.5 -122.5h6c1.33301 27.333 4.5 58.833 9.5 94.5s10.667 71.167 17 106.5s12.166 66.5 17.499 93.5l11 55.5l105 457h432l96 -463
c6 -26 12.833 -59.167 20.5 -99.5s15 -82.333 22 -126s12.167 -83.167 15.5 -118.5h6c2.66699 36.667 6.66699 78.334 12 125.001s11.5 92.167 18.5 136.5s13.833 81.166 20.5 110.499l100 435h377l-311 -1133h-418z" />
    <glyph glyph-name="x" unicode="x" horiz-adv-x="1290" 
d="M375 578l-346 555h444l172 -318l176 318h445l-355 -555l369 -578h-444l-191 344l-190 -344h-445z" />
    <glyph glyph-name="y" unicode="y" horiz-adv-x="1249" 
d="M-2 1133l412.002 0.00292969l192 -650c2.66699 -9.33301 5.33398 -20.833 8.00098 -34.5s5 -28.167 7 -43.5s3.33301 -30.333 4 -45h8c3.33301 27.333 7.16602 51.166 11.499 71.499s8.5 36.833 12.5 49.5l197 652h399l-448 -1205
c-34.667 -92 -74.834 -169.167 -120.501 -231.5s-102 -109.333 -169 -141s-150.167 -47.5 -249.5 -47.5c-36 0 -66.833 1.83301 -92.5 5.5s-48.167 7.5 -67.5 11.5v307c14.667 -2.66699 32.667 -5.33398 54 -8.00098s43.666 -4 66.999 -4c43.333 0 78.5 8.66699 105.5 26
s49.167 40.166 66.5 68.499s32.333 58.833 45 91.5l4 10z" />
    <glyph glyph-name="z" unicode="z" horiz-adv-x="1038" 
d="M987 0h-938v223l469 611h-442v299h889v-242l-449 -592h471v-299z" />
    <glyph glyph-name="braceleft" unicode="{" horiz-adv-x="887" 
d="M821 -344c-140 0 -247.003 12.001 -321.003 36.001s-124.667 61.333 -152 112s-41 116 -41 196v248c0 41.333 -12 74.333 -36 99s-54.667 42.667 -92 54s-76.666 17 -117.999 17v301c42.667 0 82.667 5.5 120 16.5s67.666 29 90.999 54s35 58.167 35 99.5v254
c0 78 13.333 142 40 192s76.834 87.167 150.501 111.5s181.5 36.5 323.5 36.5v-279c-27.333 -0.666992 -55.666 -2.66699 -84.999 -6s-54.166 -12.333 -74.499 -27s-30.5 -39 -30.5 -73v-271c0 -82.667 -21 -142.667 -63 -180s-101 -61.333 -177 -72v-12
c78 -12 137.5 -36.5 178.5 -73.5s61.5 -94.5 61.5 -172.5v-276c0 -33.333 10.333 -57.333 31 -72s45.667 -23.834 75 -27.501s57.333 -6.16699 84 -7.5v-278z" />
    <glyph glyph-name="bar" unicode="|" horiz-adv-x="1042" 
d="M387 1556h268v-2002h-268v2002z" />
    <glyph glyph-name="braceright" unicode="}" horiz-adv-x="887" 
d="M66 -344l0.000976562 277.999c26.667 1.33301 54.667 3.83301 84 7.5s54.333 12.834 75 27.501s31 38.667 31 72v276c0 78 20.5 135.5 61.5 172.5s100.5 61.5 178.5 73.5v12c-76 10.667 -135 34.667 -177 72s-63 97.333 -63 180v271c0 34 -10.167 58.333 -30.5 73
s-45.166 23.667 -74.499 27s-57.666 5.33301 -84.999 6v279c142 0 250 -12.167 324 -36.5s124.167 -61.5 150.5 -111.5s39.5 -114 39.5 -192v-254c0 -41.333 11.667 -74.5 35 -99.5s53.666 -43 90.999 -54s77 -16.5 119 -16.5v-301c-40.667 0 -79.834 -5.66699 -117.501 -17
s-68.334 -29.333 -92.001 -54s-35.5 -57.667 -35.5 -99v-248c0 -80 -13.667 -145.333 -41 -196s-78 -88 -152 -112s-181 -36 -321 -36z" />
    <glyph glyph-name="asciitilde" unicode="~" horiz-adv-x="1200" 
d="M561 592c-50 21.333 -93.834 35.834 -131.501 43.501s-72.167 11.5 -103.5 11.5c-40 0 -80.167 -11.667 -120.5 -35s-78.166 -52 -113.499 -86v281c35.333 36 74.5 63 117.5 81s91.833 27 146.5 27c40 0 80.167 -3.83301 120.5 -11.5s93.833 -24.834 160.5 -51.501
c50 -21.333 94.333 -35.833 133 -43.5s73.334 -11.5 104.001 -11.5c38 0 77.5 11.667 118.5 35s78.833 52 113.5 86v-281c-34.667 -36 -73.834 -63.167 -117.501 -81.5s-92.5 -27.5 -146.5 -27.5c-40 0 -80.167 4 -120.5 12s-93.833 25.333 -160.5 52z" />
    <glyph glyph-name="uni00A0" unicode="&#xa0;" horiz-adv-x="532" 
 />
    <glyph glyph-name="exclamdown" unicode="&#xa1;" horiz-adv-x="594" 
d="M133 612h330l51 -946h-432zM510 963c0 -70.667 -20.833 -120.5 -62.5 -149.5s-91.167 -43.5 -148.5 -43.5c-56.667 0 -105.334 14.5 -146.001 43.5s-61 78.833 -61 149.5c0 67.333 20.333 115.833 61 145.5s89.334 44.5 146.001 44.5
c57.333 0 106.833 -14.833 148.5 -44.5s62.5 -78.167 62.5 -145.5z" />
    <glyph glyph-name="cent" unicode="&#xa2;" horiz-adv-x="1200" 
d="M772 1483v-154c59.333 -2.66699 116.333 -11.5 171 -26.5s105.667 -34.167 153 -57.5l-115 -289c-46.667 20.667 -90.167 37.167 -130.5 49.5s-82.166 18.5 -125.499 18.5c-39.333 0 -74 -10.333 -104 -31s-53.333 -51.834 -70 -93.501s-25 -94.5 -25 -158.5
c0 -65.333 8.5 -118 25.5 -158s40.667 -69 71 -87s65.166 -27 104.499 -27c56.667 0 113.167 8.83301 169.5 26.5s109.833 42.167 160.5 73.5v-311c-38.667 -25.333 -81.167 -46.5 -127.5 -63.5s-98.833 -28.5 -157.5 -34.5v-180h-207v186c-90 14 -167.667 43.833 -233 89.5
s-115.5 108.5 -150.5 188.5s-52.5 178.333 -52.5 295c0 114.667 18.5 211.834 55.5 291.501s88.167 143.167 153.5 190.5s141 79.333 227 96v166h207z" />
    <glyph glyph-name="sterling" unicode="&#xa3;" horiz-adv-x="1200" 
d="M723 1485c72.667 0 143.834 -7.49902 213.501 -22.499s133.5 -34.833 191.5 -59.5l-110 -289c-51.333 19.333 -98.5 33.333 -141.5 42s-79.833 13 -110.5 13c-32 0 -58.833 -9.16699 -80.5 -27.5s-32.5 -54.833 -32.5 -109.5v-106h344v-277h-344v-96
c0 -43.333 -8.33301 -79.833 -25 -109.5s-37.167 -53.834 -61.5 -72.501s-48.5 -33.667 -72.5 -45h671v-326h-1061v313c36.667 21.333 67 41.5 91 60.5s42.167 42 54.5 69s18.5 63.167 18.5 108.5v98h-166v277h166v118c0 103.333 19.167 187.5 57.5 252.5
s91.666 112.667 159.999 143s147.5 45.5 237.5 45.5z" />
    <glyph glyph-name="currency" unicode="&#xa4;" horiz-adv-x="1159" 
d="M180 723c0 31.333 3.83008 62.167 11.4971 92.5s17.5 58.166 29.5 83.499l-125 119l180 182l123 -123c26 12.667 54.5 22.667 85.5 30s59.833 11 86.5 11c32 0 62.333 -3.66699 91 -11s57.334 -18.666 86.001 -33.999l120 127l185 -174l-127 -125
c13.333 -24.667 23.5 -52.667 30.5 -84s10.5 -62.666 10.5 -93.999c0 -32.667 -3.33301 -63.334 -10 -92.001s-17 -56.667 -31 -84l121 -119l-179 -178l-120 119c-26 -11.333 -54 -20.666 -84 -27.999s-61 -11 -93 -11c-31.333 0 -61.666 2.83301 -90.999 8.5
s-57.666 15.167 -84.999 28.5l-119 -115l-178 178l123 119c-14 27.333 -24.333 55.166 -31 83.499s-10 58.5 -10 90.5zM435.997 723.001c0 -25.333 6.16699 -48.166 18.5 -68.499s28.833 -36.5 49.5 -48.5s43 -18 67 -18c26 0 49.833 6 71.5 18s38.834 28.167 51.501 48.5
s19 43.166 19 68.499c0 26 -6.33301 49.333 -19 70s-29.834 37 -51.501 49s-45.5 18 -71.5 18c-24 0 -46.333 -6 -67 -18s-37.167 -28.333 -49.5 -49s-18.5 -44 -18.5 -70z" />
    <glyph glyph-name="yen" unicode="&#xa5;" horiz-adv-x="1200" 
d="M600 958l193 504h399l-363 -712h195v-211h-242v-117h242v-209h-242v-213h-364v213h-246v209h246v117h-246v211h190l-354 712h400z" />
    <glyph glyph-name="brokenbar" unicode="&#xa6;" horiz-adv-x="1042" 
d="M387 1556h268v-839h-268v839zM387 393h268v-839h-268v839z" />
    <glyph glyph-name="section" unicode="&#xa7;" horiz-adv-x="1024" 
d="M106 803c0 52 17.3281 97.6641 51.9951 136.997s72 71.333 112 96c-46 33.333 -81 70 -105 110s-36 85.333 -36 136c0 86 35 156.667 105 212s170.333 83 301 83c68.667 0 134.834 -8.16699 198.501 -24.5s120.834 -36.833 171.501 -61.5l-98 -221
c-44 23.333 -90.333 43.5 -139 60.5s-94 25.5 -136 25.5c-34.667 0 -61.334 -6.16699 -80.001 -18.5s-28 -30.833 -28 -55.5c0 -14.667 4.83301 -29.834 14.5 -45.501s27.167 -32 52.5 -49s61 -35.167 107 -54.5c78 -31.333 141.167 -64.333 189.5 -99
s83.833 -71 106.5 -109s34 -78.667 34 -122c0 -68.667 -15.333 -122.167 -46 -160.5s-64.667 -70.833 -102 -97.5c37.333 -28 67.5 -62.333 90.5 -103s34.5 -87.667 34.5 -141c0 -92 -36.5 -169.333 -109.5 -232s-181.833 -94 -326.5 -94
c-68.667 0 -132.167 7.16699 -190.5 21.5s-112.166 35.833 -161.499 64.5v244c38.667 -20.667 79.5 -39.167 122.5 -55.5s84.667 -29.166 125 -38.499s75.833 -14 106.5 -14c52 0 88.167 8.83301 108.5 26.5s30.5 40.834 30.5 69.501c0 18.667 -4.16699 35.334 -12.5 50.001
s-24.666 30 -48.999 46s-60.5 34.333 -108.5 55c-65.333 29.333 -123.166 59.5 -173.499 90.5s-89.666 67.833 -117.999 110.5s-42.5 95.334 -42.5 158.001zM396.995 833.997c0 -22.667 6 -43.1641 18 -61.4971s30.667 -36.5 56 -54.5s58 -37.667 98 -59l27 -14
c9.33301 10.667 18.5 24.5 27.5 41.5s13.5 38.833 13.5 65.5c0 24 -5.5 46.167 -16.5 66.5s-29.667 40.166 -56 59.499s-62.833 38.666 -109.5 57.999c-14.667 -8 -28 -20.333 -40 -37s-18 -38.334 -18 -65.001z" />
    <glyph glyph-name="dieresis" unicode="&#xa8;" horiz-adv-x="1233" 
d="M223 1413c0 54.667 16.333 94.667 49 120s73 38 121 38c46 0 86.167 -12.667 120.5 -38s51.5 -65.333 51.5 -120c0 -52.667 -17.167 -91.834 -51.5 -117.501s-74.5 -38.5 -120.5 -38.5c-48 0 -88.333 12.833 -121 38.5s-49 64.834 -49 117.501zM702 1413
c0 54.667 16.5 94.667 49.5 120s73.833 38 122.5 38c46.667 0 87.167 -12.667 121.5 -38s51.5 -65.333 51.5 -120c0 -52.667 -17.167 -91.834 -51.5 -117.501s-74.833 -38.5 -121.5 -38.5c-48.667 0 -89.5 12.833 -122.5 38.5s-49.5 64.834 -49.5 117.501z" />
    <glyph glyph-name="copyright" unicode="&#xa9;" horiz-adv-x="1688" 
d="M844 -20c-108.667 0 -208.834 18.5 -300.501 55.5s-171.334 89.167 -239.001 156.5s-120 146.833 -157 238.5s-55.5 191.834 -55.5 300.501c0 109.333 18.5 209.666 55.5 300.999s89.333 170.833 157 238.5s147.334 120 239.001 157s191.834 55.5 300.501 55.5
c109.333 0 209.666 -18.5 300.999 -55.5s170.666 -89.333 237.999 -157s119.5 -147.167 156.5 -238.5s55.5 -191.666 55.5 -300.999c0 -108.667 -18.5 -208.834 -55.5 -300.501s-89.167 -171.167 -156.5 -238.5s-146.666 -119.5 -237.999 -156.5
s-191.666 -55.5 -300.999 -55.5zM846 262c-147.333 0 -258.334 43.1699 -333.001 129.503s-112 200.833 -112 343.5c0 93.333 16.167 174.666 48.5 243.999s80.833 123.166 145.5 161.499s145 57.5 241 57.5c61.333 0 118 -6.83301 170 -20.5s102.333 -32.834 151 -57.501
l-92 -205c-34.667 18.667 -68.667 32.667 -102 42s-69.666 14 -108.999 14c-52.667 0 -94.5 -20.5 -125.5 -61.5s-46.5 -100.5 -46.5 -178.5c0 -84.667 14.5 -146.167 43.5 -184.5s73.833 -57.5 134.5 -57.5c43.333 0 87 5.5 131 16.5s86.333 28.167 127 51.5v-231
c-42 -21.333 -84.5 -37.333 -127.5 -48s-91.167 -16 -144.5 -16zM843.999 143.003c83.333 0 159.666 14.333 228.999 43s129.166 69.167 179.499 121.5s89.333 114.333 117 186s41.5 150.834 41.5 237.501s-13.833 165.834 -41.5 237.501s-66.667 133.667 -117 186
s-110.166 92.833 -179.499 121.5s-145.666 43 -228.999 43c-84.667 0 -162 -14.333 -232 -43s-130.333 -69.167 -181 -121.5s-89.834 -114.333 -117.501 -186s-41.5 -150.834 -41.5 -237.501s13.833 -165.834 41.5 -237.501s66.834 -133.667 117.501 -186
s111 -92.833 181 -121.5s147.333 -43 232 -43z" />
    <glyph glyph-name="ordfeminine" unicode="&#xaa;" horiz-adv-x="813" 
d="M436 1479c88 0 159.5 -24.167 214.5 -72.5s82.5 -120.5 82.5 -216.5v-449h-162l-45 127c-29.333 -46 -62.166 -80.667 -98.499 -104s-84.5 -35 -144.5 -35c-43.333 0 -82.833 8.66699 -118.5 26s-63.834 43.5 -84.501 78.5s-31 79.5 -31 133.5
c0 58 13.333 103.5 40 136.5s65.667 56.833 117 71.5s113.666 23.667 186.999 27l88 4v6c0 27.333 -8.66699 46.833 -26 58.5s-42.666 17.5 -75.999 17.5c-36 0 -69.333 -4.33301 -100 -13s-67.667 -22.667 -111 -42l-76 166c50.667 24.667 100.5 44.167 149.5 58.5
s113.833 21.5 194.5 21.5zM481 1069l-83.999 -6c-40.667 -2.66699 -66.834 -12.5 -78.501 -29.5s-17.5 -35.167 -17.5 -54.5c0 -21.333 6 -38 18 -50s29.333 -18 52 -18c36.667 0 64.167 14 82.5 42s27.5 59.333 27.5 94v22z" />
    <glyph glyph-name="guillemotleft" unicode="&#xab;" horiz-adv-x="1395" 
d="M74 588l389 483l280 -149l-272 -347l272 -348l-280 -147l-389 481v27zM649 588l387 483l283 -149l-275 -347l275 -348l-283 -147l-387 481v27z" />
    <glyph glyph-name="logicalnot" unicode="&#xac;" horiz-adv-x="1200" 
d="M1106 856v-618h-270v350h-744v268h1014z" />
    <glyph glyph-name="uni00AD" unicode="&#xad;" horiz-adv-x="651" 
d="M43 393v312h565v-312h-565z" />
    <glyph glyph-name="registered" unicode="&#xae;" horiz-adv-x="1688" 
d="M518 313l-0.000976562 875h279c142 0 243.333 -23.5 304 -70.5s91 -113.5 91 -199.5c0 -70 -13.667 -123.167 -41 -159.5s-60.666 -63.833 -99.999 -82.5l194 -363h-278l-146 320h-35v-320h-268zM785.999 809h10.999c38.667 0 69.167 7.16699 91.5 21.5
s33.5 39.833 33.5 76.5c0 36 -11.167 59.333 -33.5 70s-52.166 16 -89.499 16h-13v-184zM843.998 -20c-108.667 0 -208.834 18.5 -300.501 55.5s-171.334 89.167 -239.001 156.5s-120 146.833 -157 238.5s-55.5 191.834 -55.5 300.501c0 109.333 18.5 209.666 55.5 300.999
s89.333 170.833 157 238.5s147.334 120 239.001 157s191.834 55.5 300.501 55.5c109.333 0 209.666 -18.5 300.999 -55.5s170.666 -89.333 237.999 -157s119.5 -147.167 156.5 -238.5s55.5 -191.666 55.5 -300.999c0 -108.667 -18.5 -208.834 -55.5 -300.501
s-89.167 -171.167 -156.5 -238.5s-146.666 -119.5 -237.999 -156.5s-191.666 -55.5 -300.999 -55.5zM843.998 143c83.333 0 159.666 14.333 228.999 43s129.166 69.167 179.499 121.5s89.333 114.333 117 186s41.5 150.834 41.5 237.501s-13.833 165.834 -41.5 237.501
s-66.667 133.667 -117 186s-110.166 92.833 -179.499 121.5s-145.666 43 -228.999 43c-84.667 0 -162 -14.333 -232 -43s-130.333 -69.167 -181 -121.5s-89.834 -114.333 -117.501 -186s-41.5 -150.834 -41.5 -237.501s13.833 -165.834 41.5 -237.501
s66.834 -133.667 117.501 -186s111 -92.833 181 -121.5s147.333 -43 232 -43z" />
    <glyph glyph-name="overscore" unicode="&#xaf;" horiz-adv-x="1024" 
d="M1030 1556h-1036v246h1036v-246z" />
    <glyph glyph-name="degree" unicode="&#xb0;" horiz-adv-x="864" 
d="M432 750c-71.333 0 -134.833 15.333 -190.5 46s-99.334 73.334 -131.001 128.001s-47.5 118 -47.5 190c0 71.333 15.833 134.666 47.5 189.999s75.334 99 131.001 131s119.167 48 190.5 48c72 0 135.667 -16 191 -48s98.833 -75.667 130.5 -131
s47.5 -118.666 47.5 -189.999c0 -72 -15.833 -135.333 -47.5 -190s-75.167 -97.334 -130.5 -128.001s-119 -46 -191 -46zM432 987c40 0 71.833 11.667 95.5 35s35.5 54 35.5 92c0 40 -11.833 72.167 -35.5 96.5s-55.5 36.5 -95.5 36.5s-71.833 -12.167 -95.5 -36.5
s-35.5 -56.5 -35.5 -96.5c0 -38 11.833 -68.667 35.5 -92s55.5 -35 95.5 -35z" />
    <glyph glyph-name="plusminus" unicode="&#xb1;" horiz-adv-x="1200" 
d="M92 0v268h1014v-268h-1014zM733 944h373v-268h-373v-361h-268v361h-373v268h373v367h268v-367z" />
    <glyph glyph-name="uni00B2" unicode="&#xb2;" horiz-adv-x="817" 
d="M750 852h-674.003v207l215 213c38.667 38 68.667 69.833 90 95.5s36.5 47.5 45.5 65.5s13.5 34 13.5 48c0 18.667 -5.66699 32.834 -17 42.501s-27.333 14.5 -48 14.5c-22.667 0 -47.5 -5.66699 -74.5 -17s-59.5 -35 -97.5 -71l-142 166
c45.333 41.333 96.333 74.166 153 98.499s129.334 36.5 218.001 36.5c98.667 0 172.834 -21.833 222.501 -65.5s74.5 -101.167 74.5 -172.5c0 -52.667 -12.333 -100.667 -37 -144s-56.667 -84 -96 -122s-81.666 -76 -126.999 -114l-66 -56h347v-225z" />
    <glyph glyph-name="uni00B3" unicode="&#xb3;" horiz-adv-x="817" 
d="M406 1747c101.333 0 179.838 -19.666 235.505 -58.999s83.5 -91.333 83.5 -156c0 -50.667 -12.333 -94.5 -37 -131.5s-66.334 -66.167 -125.001 -87.5v-8c64.667 -16.667 112.667 -42.334 144 -77.001s47 -80.667 47 -138c0 -82 -33.333 -144.833 -100 -188.5
s-158.334 -65.5 -275.001 -65.5c-59.333 0 -115.333 5.66699 -168 17s-99.667 28.666 -141 51.999v234c43.333 -30 90.333 -51.167 141 -63.5s102.667 -18.5 156 -18.5c34.667 0 62.667 5 84 15s32 27.333 32 52c0 18.667 -7.33301 35.334 -22 50.001
s-52.334 22 -113.001 22h-104v195h80c56 0 93.167 7.5 111.5 22.5s27.5 33.167 27.5 54.5c0 16.667 -7 32.167 -21 46.5s-37.667 21.5 -71 21.5c-32.667 0 -63.834 -5.5 -93.501 -16.5s-62.167 -30.167 -97.5 -57.5l-117 170c41.333 32 90.666 59.167 147.999 81.5
s122.333 33.5 195 33.5z" />
    <glyph glyph-name="acute" unicode="&#xb4;" horiz-adv-x="856" 
d="M774 1569v-21.001c-24 -19.333 -54.667 -42.833 -92 -70.5l-118.5 -86l-121 -84.5c-39 -26.667 -72.5 -48.667 -100.5 -66h-260v29l84 90.5l98 107.5c32.667 36.667 60 70.334 82 101.001h428z" />
    <glyph glyph-name="uni00B5" unicode="&#xb5;" horiz-adv-x="1376" 
d="M1241 1133l0.00195312 -1133h-293l-53 152h-16c-14.667 -38.667 -33.167 -70.834 -55.5 -96.501s-46.833 -44.667 -73.5 -57s-54.667 -18.5 -84 -18.5c-36.667 0 -65.834 6.66699 -87.501 20s-41.834 34.333 -60.501 63h-4c2 -18.667 4 -41.667 6 -69
s3.5 -55.5 4.5 -84.5s1.5 -56.167 1.5 -81.5v-320h-391v1625h391v-615c0 -76.667 11.167 -134 33.5 -172s59.833 -57 112.5 -57c44.667 0 79.667 13.333 105 40s43.5 66 54.5 118s16.5 115.333 16.5 190v496h393z" />
    <glyph glyph-name="paragraph" unicode="&#xb6;" horiz-adv-x="1317" 
d="M1186 -260l-190.999 -0.000976562v1587h-157v-1587h-191v819c-20.667 -6 -39.334 -10.5 -56.001 -13.5s-39.667 -4.5 -69 -4.5c-84.667 0 -158.5 15.833 -221.5 47.5s-111.833 84 -146.5 157s-52 171.833 -52 296.5c0 130.667 19 233.334 57 308.001
s90.833 127.667 158.5 159s146.167 47 235.5 47h633v-1816z" />
    <glyph glyph-name="periodcentered" unicode="&#xb7;" horiz-adv-x="592" 
d="M86 723c0 70.667 20.833 120.334 62.5 149.001s91.834 43 150.501 43c55.333 0 103.333 -14.333 144 -43s61 -78.334 61 -149.001c0 -67.333 -20.333 -116 -61 -146s-88.667 -45 -144 -45c-58.667 0 -108.834 15 -150.501 45s-62.5 78.667 -62.5 146z" />
    <glyph glyph-name="cedilla" unicode="&#xb8;" horiz-adv-x="590" 
d="M541 -252c0 -72.667 -25.001 -130.834 -75.001 -174.501s-116.667 -65.5 -200 -65.5c-46.667 0 -89 3.66699 -127 11s-69.333 15.333 -94 24v193c22.667 -7.33301 44.834 -13 66.501 -17s43.834 -6 66.501 -6c25.333 0 45.333 5.33301 60 16s22 24.667 22 42
c0 23.333 -11.167 41.833 -33.5 55.5s-59.5 25.167 -111.5 34.5l61 139h195l-19 -61c27.333 -6 55.666 -15.667 84.999 -29s54 -32.666 74 -57.999s30 -60 30 -104z" />
    <glyph glyph-name="uni00B9" unicode="&#xb9;" horiz-adv-x="817" 
d="M616 1729v-876.999h-282v356c0 14.667 0.5 37.5 1.5 68.5s2.33301 61.167 4 90.5s3.16699 48.666 4.5 57.999c-6 -12 -15.167 -24.5 -27.5 -37.5s-23.5 -24.167 -33.5 -33.5l-80 -70l-146 170l340 275h219z" />
    <glyph glyph-name="ordmasculine" unicode="&#xba;" horiz-adv-x="803" 
d="M756 1104c0 -118.667 -32.3311 -210.832 -96.998 -276.499s-151.334 -98.5 -260.001 -98.5c-102 0 -185.833 33.333 -251.5 100s-98.5 158.334 -98.5 275.001c0 119.333 31.667 211.666 95 276.999s149.666 98 258.999 98c66.667 0 126.5 -15 179.5 -45
s95.167 -72.833 126.5 -128.5s47 -122.834 47 -201.501zM301.002 1104c0 -57.333 8 -100.333 24 -129s41.333 -43 76 -43c34 0 59 14.333 75 43s24 71.667 24 129s-8 100.666 -24 129.999s-41 44 -75 44c-34.667 0 -60 -14.667 -76 -44s-24 -72.666 -24 -129.999z" />
    <glyph glyph-name="guillemotright" unicode="&#xbb;" horiz-adv-x="1395" 
d="M1321 561l-387 -481l-285 147l275 348l-275 347l285 149l387 -483v-27zM745 561l-387 -481l-282 147l272 348l-272 347l282 149l387 -483v-27z" />
    <glyph glyph-name="onequarter" unicode="&#xbc;" horiz-adv-x="1817" 
d="M356 0l754 1462h301l-754 -1462h-301zM264 586v355.998c0 13.333 0.333008 32.333 1 57s1.66699 51.334 3 80.001s3.33301 55.334 6 80.001c-2.66699 -6 -9.5 -15.333 -20.5 -28s-23.167 -25.667 -36.5 -39l-84 -74l-145 170l340 274h219v-876h-283zM1399 -0.00195312
v139h-371v189l350 555h295v-543h125v-201h-125v-139h-274zM1241 339.998h157.998v166c0 23.333 0.5 46.333 1.5 69s2.5 44.667 4.5 66c-13.333 -34 -25.166 -61.833 -35.499 -83.5s-19.166 -38.167 -26.499 -49.5z" />
    <glyph glyph-name="onehalf" unicode="&#xbd;" horiz-adv-x="1896" 
d="M381 0l754 1462h301l-754 -1462h-301zM264 586v356.001c0 6 0.333008 19.833 1 41.5s1.66699 45.667 3 72l3.5 69.5c1 20 1.83301 31.333 2.5 34c-2.66699 -6 -10.5 -16.333 -23.5 -31s-26.167 -28.334 -39.5 -41.001l-78 -69l-145 170l340 274h219v-876h-283z
M1155 0.000976562l0.000976562 207.004l215 213c38 37.333 67.833 68.666 89.5 93.999s37.167 47 46.5 65s14 34.667 14 50c0 19.333 -5.66699 33.666 -17 42.999s-27.666 14 -48.999 14c-26.667 0 -54.334 -7.33301 -83.001 -22s-58.334 -36.667 -89.001 -66l-141 166
c53.333 49.333 109 84.166 167 104.499s125.667 30.5 203 30.5c94.667 0 167.834 -20.833 219.501 -62.5s77.5 -99.834 77.5 -174.501c0 -36 -5.83301 -69.667 -17.5 -101s-27.334 -60.333 -47.001 -87s-41.167 -51.667 -64.5 -75l-196 -174h346v-225h-674z" />
    <glyph glyph-name="threequarters" unicode="&#xbe;" horiz-adv-x="1888" 
d="M465 0l754 1462h301l-754 -1462h-301zM399 569c-61.333 0 -117.669 5.83398 -169.002 17.501s-98 29.167 -140 52.5v233c39.333 -27.333 83.5 -47.666 132.5 -60.999s103.833 -20 164.5 -20c39.333 0 68.666 5.5 87.999 16.5s29 27.833 29 50.5
c0 27.333 -11 46.166 -33 56.499s-56 15.5 -102 15.5h-105v194h80c48 0 83.167 6.16699 105.5 18.5s33.5 32.166 33.5 59.499c0 16.667 -6.83301 32.167 -20.5 46.5s-37.5 21.5 -71.5 21.5c-32.667 0 -63.667 -5.5 -93 -16.5s-61.666 -30.167 -96.999 -57.5l-117 170
c50 38 103.333 66.667 160 86s117.334 29 182.001 29c98.667 0 176.5 -19.167 233.5 -57.5s85.5 -90.833 85.5 -157.5c0 -52.667 -12.333 -97 -37 -133s-66 -64.667 -124 -86v-9c64.667 -16 112.5 -41.5 143.5 -76.5s46.5 -81.167 46.5 -138.5
c0 -80.667 -32.667 -143.167 -98 -187.5s-157.666 -66.5 -276.999 -66.5zM1470 0.000976562v139h-370v189l350 555h295v-543h125v-201h-125v-139h-275zM1313 340.001h156.998v166c0 23.333 0.666992 46.333 2 69s3 44.667 5 66c-13.333 -34 -25.166 -61.833 -35.499 -83.5
s-19.166 -38.167 -26.499 -49.5z" />
    <glyph glyph-name="questiondown" unicode="&#xbf;" horiz-adv-x="1034" 
d="M739 612l-0.000976562 -86c0 -40.667 -5.16699 -77.834 -15.5 -111.501s-28.666 -65.5 -54.999 -95.5s-63.5 -60 -111.5 -90c-44.667 -28.667 -77.834 -53.5 -99.501 -74.5s-35.834 -40.167 -42.501 -57.5s-10 -35.333 -10 -54c0 -28 12.667 -50.167 38 -66.5
s58.333 -24.5 99 -24.5c50.667 0 105.5 9.16699 164.5 27.5s121.833 44.833 188.5 79.5l139 -272c-74.667 -42.667 -154.834 -77 -240.501 -103s-178.834 -39 -279.501 -39c-151.333 0 -268.666 33.5 -351.999 100.5s-125 155.167 -125 264.5c0 52.667 8 100.667 24 144
s41.333 84 76 122s80.334 75 137.001 111c40.667 26 72.334 47.833 95.001 65.5s38.834 34.834 48.501 51.501s14.5 35.667 14.5 57v51h307zM781.999 962c0 -70.667 -20.5 -120.334 -61.5 -149.001s-90.833 -43 -149.5 -43c-56 0 -104.5 14.333 -145.5 43
s-61.5 78.334 -61.5 149.001c0 67.333 20.5 116 61.5 146s89.5 45 145.5 45c58.667 0 108.5 -15 149.5 -45s61.5 -78.667 61.5 -146z" />
    <glyph glyph-name="Agrave" unicode="&#xc0;" horiz-adv-x="1487" 
d="M1055 0l-72 274h-475l-74 -274h-434l477 1468h527l483 -1468h-432zM901 598l-62.999 240l-29 111.5l-37.5 150c-12.333 51.667 -21.833 94.167 -28.5 127.5c-6 -33.333 -14.5 -74.5 -25.5 -123.5l-34 -145.5c-11.667 -48 -21.834 -88 -30.501 -120l-63 -240h311z
M741.001 1899c23.333 -30.667 51.167 -64.333 83.5 -101l97 -107.5l81.5 -90.5v-29h-260c-28 17.333 -61.333 39.333 -100 66l-121 84.5l-118.5 86l-92.5 70.5v21h430z" />
    <glyph glyph-name="Aacute" unicode="&#xc1;" horiz-adv-x="1487" 
d="M1055 0l-72 274h-475l-74 -274h-434l477 1468h527l483 -1468h-432zM901 598l-62.999 240l-29 111.5l-37.5 150c-12.333 51.667 -21.833 94.167 -28.5 127.5c-6 -33.333 -14.5 -74.5 -25.5 -123.5l-34 -145.5c-11.667 -48 -21.834 -88 -30.501 -120l-63 -240h311z
M1231 1899v-21.001c-24 -19.333 -54.667 -42.833 -92 -70.5l-118.5 -86l-121 -84.5c-39 -26.667 -72.5 -48.667 -100.5 -66h-260v29l84 90.5l98 107.5c32.667 36.667 60 70.334 82 101.001h428z" />
    <glyph glyph-name="Acircumflex" unicode="&#xc2;" horiz-adv-x="1487" 
d="M1055 0l-72 274h-475l-74 -274h-434l477 1468h527l483 -1468h-432zM901 598l-62.999 240l-29 111.5l-37.5 150c-12.333 51.667 -21.833 94.167 -28.5 127.5c-6 -33.333 -14.5 -74.5 -25.5 -123.5l-34 -145.5c-11.667 -48 -21.834 -88 -30.501 -120l-63 -240h311z
M944.001 1899c21.333 -31.333 47.665 -65.833 78.998 -103.5s63 -73.834 95 -108.501l82 -87v-29h-254c-35.333 20.667 -68.666 43.167 -99.999 67.5s-64.666 51.833 -99.999 82.5l-97.5 -81c-29 -23.333 -61.5 -46.333 -97.5 -69h-258v29
c26 24.667 55.167 54.334 87.5 89.001s63.833 70.5 94.5 107.5s56 71.167 76 102.5h393z" />
    <glyph glyph-name="Atilde" unicode="&#xc3;" horiz-adv-x="1487" 
d="M1055 0l-72 274h-475l-74 -274h-434l477 1468h527l483 -1468h-432zM901 598l-62.999 240l-29 111.5l-37.5 150c-12.333 51.667 -21.833 94.167 -28.5 127.5c-6 -33.333 -14.5 -74.5 -25.5 -123.5l-34 -145.5c-11.667 -48 -21.834 -88 -30.501 -120l-63 -240h311z
M320.001 1567c4 62.667 12.4971 115.668 25.4971 159.001s30 78.5 51 105.5s46.333 46.667 76 59s62.834 18.5 99.501 18.5c25.333 0 52.333 -4.83301 81 -14.5s57.667 -20.834 87 -33.501s58.166 -23.834 86.499 -33.501s55.5 -14.5 81.5 -14.5
c12 0 25.167 5.66699 39.5 17s24.833 38.333 31.5 81h183c-8.66699 -122.667 -35.5 -210.334 -80.5 -263.001s-100.167 -79 -165.5 -79c-30 0 -60.167 4.83301 -90.5 14.5s-60.166 20.834 -89.499 33.501s-57.666 23.834 -84.999 33.501s-53.666 14.5 -78.999 14.5
c-12.667 0 -25.667 -5.33301 -39 -16s-24.333 -38 -33 -82h-180z" />
    <glyph glyph-name="Adieresis" unicode="&#xc4;" horiz-adv-x="1487" 
d="M1055 0l-72 274h-475l-74 -274h-434l477 1468h527l483 -1468h-432zM901 598l-62.999 240l-29 111.5l-37.5 150c-12.333 51.667 -21.833 94.167 -28.5 127.5c-6 -33.333 -14.5 -74.5 -25.5 -123.5l-34 -145.5c-11.667 -48 -21.834 -88 -30.501 -120l-63 -240h311z
M332.001 1743c0 54.667 16.333 94.667 49 120s73 38 121 38c46 0 86.167 -12.667 120.5 -38s51.5 -65.333 51.5 -120c0 -52.667 -17.167 -91.834 -51.5 -117.501s-74.5 -38.5 -120.5 -38.5c-48 0 -88.333 12.833 -121 38.5s-49 64.834 -49 117.501zM811.001 1743
c0 54.667 16.5 94.667 49.5 120s73.833 38 122.5 38c46.667 0 87.167 -12.667 121.5 -38s51.5 -65.333 51.5 -120c0 -52.667 -17.167 -91.834 -51.5 -117.501s-74.833 -38.5 -121.5 -38.5c-48.667 0 -89.5 12.833 -122.5 38.5s-49.5 64.834 -49.5 117.501z" />
    <glyph glyph-name="Aring" unicode="&#xc5;" horiz-adv-x="1487" 
d="M1055 0l-72 274h-475l-74 -274h-434l477 1468h527l483 -1468h-432zM901 598l-62.999 240l-29 111.5l-37.5 150c-12.333 51.667 -21.833 94.167 -28.5 127.5c-6 -33.333 -14.5 -74.5 -25.5 -123.5l-34 -145.5c-11.667 -48 -21.834 -88 -30.501 -120l-63 -240h311z
M737.001 1303c-78.667 0 -142.334 22.5 -191.001 67.5s-73 106.5 -73 184.5c0 79.333 24.333 141.5 73 186.5s112.334 67.5 191.001 67.5c75.333 0 139.5 -22.5 192.5 -67.5s79.5 -106.5 79.5 -184.5c0 -78.667 -26.333 -140.667 -79 -186s-117 -68 -193 -68zM737.001 1471
c23.333 0 43.166 7.83301 59.499 23.5s24.5 35.834 24.5 60.501c0 25.333 -8.16699 45.666 -24.5 60.999s-36.166 23 -59.499 23s-43.166 -7.66699 -59.499 -23s-24.5 -35.666 -24.5 -60.999c0 -24.667 7.16699 -44.834 21.5 -60.501s35.166 -23.5 62.499 -23.5z" />
    <glyph glyph-name="AE" unicode="&#xc6;" horiz-adv-x="1937" 
d="M1839 0h-870v274h-437l-100 -274h-442l628 1462h1221v-317h-473v-230h438v-317h-438v-276h473v-322zM653 602h316v526h-111z" />
    <glyph glyph-name="Ccedilla" unicode="&#xc7;" horiz-adv-x="1329" 
d="M809 1159c-46.667 0 -88.3301 -9.83105 -124.997 -29.498s-68 -48.167 -94 -85.5s-45.833 -82.833 -59.5 -136.5s-20.5 -114.5 -20.5 -182.5c0 -92 11.667 -169.333 35 -232s58.833 -110 106.5 -142s107.5 -48 179.5 -48c65.333 0 128.166 9 188.499 27
s121.166 39.667 182.499 65v-334c-64.667 -28.667 -130.834 -49.334 -198.501 -62.001s-139.5 -19 -215.5 -19c-158.667 0 -288.5 31.5 -389.5 94.5s-175.333 150.5 -223 262.5s-71.5 242 -71.5 390c0 110.667 15.5 212 46.5 304s76.5 171.833 136.5 239.5
s134.167 120 222.5 157s189.5 55.5 303.5 55.5c70.667 0 145.167 -8.16699 223.5 -24.5s154.833 -42.5 229.5 -78.5l-121 -311c-53.333 25.333 -107.333 46.666 -162 63.999s-112.667 26 -174 26zM1012 -251.998c0 -72.667 -25.001 -130.834 -75.001 -174.501
s-116.667 -65.5 -200 -65.5c-46.667 0 -89 3.66699 -127 11s-69.333 15.333 -94 24v193c22.667 -7.33301 44.834 -13 66.501 -17s43.834 -6 66.501 -6c25.333 0 45.333 5.33301 60 16s22 24.667 22 42c0 23.333 -11.167 41.833 -33.5 55.5s-59.5 25.167 -111.5 34.5l61 139
h195l-19 -61c27.333 -6 55.666 -15.667 84.999 -29s54 -32.666 74 -57.999s30 -60 30 -104z" />
    <glyph glyph-name="Egrave" unicode="&#xc8;" horiz-adv-x="1124" 
d="M1026 0h-868v1462h868v-317h-473v-230h438v-317h-438v-276h473v-322zM590 1899c23.333 -30.667 51.167 -64.333 83.5 -101l97 -107.5l81.5 -90.5v-29h-260c-28 17.333 -61.333 39.333 -100 66l-121 84.5l-118.5 86l-92.5 70.5v21h430z" />
    <glyph glyph-name="Eacute" unicode="&#xc9;" horiz-adv-x="1124" 
d="M1026 0h-868v1462h868v-317h-473v-230h438v-317h-438v-276h473v-322zM1079 1899v-21.001c-24 -19.333 -54.667 -42.833 -92 -70.5l-118.5 -86l-121 -84.5c-39 -26.667 -72.5 -48.667 -100.5 -66h-260v29l84 90.5l98 107.5c32.667 36.667 60 70.334 82 101.001h428z" />
    <glyph glyph-name="Ecircumflex" unicode="&#xca;" horiz-adv-x="1124" 
d="M1026 0h-868v1462h868v-317h-473v-230h438v-317h-438v-276h473v-322zM792 1899c21.333 -31.333 47.665 -65.833 78.998 -103.5s63 -73.834 95 -108.501l82 -87v-29h-254c-35.333 20.667 -68.666 43.167 -99.999 67.5s-64.666 51.833 -99.999 82.5l-97.5 -81
c-29 -23.333 -61.5 -46.333 -97.5 -69h-258v29c26 24.667 55.167 54.334 87.5 89.001s63.833 70.5 94.5 107.5s56 71.167 76 102.5h393z" />
    <glyph glyph-name="Edieresis" unicode="&#xcb;" horiz-adv-x="1124" 
d="M1026 0h-868v1462h868v-317h-473v-230h438v-317h-438v-276h473v-322zM180 1743c0 54.667 16.333 94.667 49 120s73 38 121 38c46 0 86.167 -12.667 120.5 -38s51.5 -65.333 51.5 -120c0 -52.667 -17.167 -91.834 -51.5 -117.501s-74.5 -38.5 -120.5 -38.5
c-48 0 -88.333 12.833 -121 38.5s-49 64.834 -49 117.501zM659 1743c0 54.667 16.5 94.667 49.5 120s73.833 38 122.5 38c46.667 0 87.167 -12.667 121.5 -38s51.5 -65.333 51.5 -120c0 -52.667 -17.167 -91.834 -51.5 -117.501s-74.833 -38.5 -121.5 -38.5
c-48.667 0 -89.5 12.833 -122.5 38.5s-49.5 64.834 -49.5 117.501z" />
    <glyph glyph-name="Igrave" unicode="&#xcc;" horiz-adv-x="713" 
d="M158 0v1462h397v-1462h-397zM317 1899c23.333 -30.667 51.167 -64.333 83.5 -101l97 -107.5l81.5 -90.5v-29h-260c-28 17.333 -61.333 39.333 -100 66l-121 84.5l-118.5 86l-92.5 70.5v21h430z" />
    <glyph glyph-name="Iacute" unicode="&#xcd;" horiz-adv-x="713" 
d="M158 0v1462h397v-1462h-397zM845 1899v-21.001c-24 -19.333 -54.667 -42.833 -92 -70.5l-118.5 -86l-121 -84.5c-39 -26.667 -72.5 -48.667 -100.5 -66h-260v29l84 90.5l98 107.5c32.667 36.667 60 70.334 82 101.001h428z" />
    <glyph glyph-name="Icircumflex" unicode="&#xce;" horiz-adv-x="713" 
d="M158 0v1462h397v-1462h-397zM555 1899c21.333 -31.333 47.665 -65.833 78.998 -103.5s63 -73.834 95 -108.501l82 -87v-29h-254c-35.333 20.667 -68.666 43.167 -99.999 67.5s-64.666 51.833 -99.999 82.5l-97.5 -81c-29 -23.333 -61.5 -46.333 -97.5 -69h-258v29
c26 24.667 55.167 54.334 87.5 89.001s63.833 70.5 94.5 107.5s56 71.167 76 102.5h393z" />
    <glyph glyph-name="Idieresis" unicode="&#xcf;" horiz-adv-x="713" 
d="M158 0v1462h397v-1462h-397zM-56 1743c0 54.667 16.333 94.667 49 120s73 38 121 38c46 0 86.167 -12.667 120.5 -38s51.5 -65.333 51.5 -120c0 -52.667 -17.167 -91.834 -51.5 -117.501s-74.5 -38.5 -120.5 -38.5c-48 0 -88.333 12.833 -121 38.5
s-49 64.834 -49 117.501zM423 1743c0 54.667 16.5 94.667 49.5 120s73.833 38 122.5 38c46.667 0 87.167 -12.667 121.5 -38s51.5 -65.333 51.5 -120c0 -52.667 -17.167 -91.834 -51.5 -117.501s-74.833 -38.5 -121.5 -38.5c-48.667 0 -89.5 12.833 -122.5 38.5
s-49.5 64.834 -49.5 117.501z" />
    <glyph glyph-name="Eth" unicode="&#xd0;" horiz-adv-x="1503" 
d="M664 1462c157.333 0 290.667 -27 400 -81s192.5 -133 249.5 -237s85.5 -231.333 85.5 -382c0 -170 -31.667 -311.333 -95 -424s-152.5 -197.167 -267.5 -253.5s-250.167 -84.5 -405.5 -84.5h-473v563h-127v320h127v579h506zM668.001 1143h-115v-260h211v-320h-211v-239
h88c120 0 208 34.833 264 104.5s84 176.167 84 319.5c0 88.667 -11.833 162.167 -35.5 220.5s-59.167 102 -106.5 131s-107 43.5 -179 43.5z" />
    <glyph glyph-name="Ntilde" unicode="&#xd1;" horiz-adv-x="1708" 
d="M1550 0l-518 0.00292969l-534 1030h-9c3.33301 -31.333 6.33301 -69 9 -113s5 -88.833 7 -134.5s3 -86.834 3 -123.501v-659h-350v1462h516l532 -1016h6c-2 32 -4 69.167 -6 111.5s-3.83301 85.166 -5.5 128.499s-2.5 81.666 -2.5 114.999v661h352v-1462zM430 1567
c4 62.667 12.4971 115.668 25.4971 159.001s30 78.5 51 105.5s46.333 46.667 76 59s62.834 18.5 99.501 18.5c25.333 0 52.333 -4.83301 81 -14.5s57.667 -20.834 87 -33.501s58.166 -23.834 86.499 -33.501s55.5 -14.5 81.5 -14.5c12 0 25.167 5.66699 39.5 17
s24.833 38.333 31.5 81h183c-8.66699 -122.667 -35.5 -210.334 -80.5 -263.001s-100.167 -79 -165.5 -79c-30 0 -60.167 4.83301 -90.5 14.5s-60.166 20.834 -89.499 33.501s-57.666 23.834 -84.999 33.501s-53.666 14.5 -78.999 14.5c-12.667 0 -25.667 -5.33301 -39 -16
s-24.333 -38 -33 -82h-180z" />
    <glyph glyph-name="Ograve" unicode="&#xd2;" horiz-adv-x="1632" 
d="M1526 733c0 -112.667 -13.498 -215.166 -40.498 -307.499s-69.167 -171.833 -126.5 -238.5s-131 -117.834 -221 -153.501s-197.667 -53.5 -323 -53.5c-122.667 0 -228.834 17.833 -318.501 53.5s-163.5 86.667 -221.5 153s-101 145.833 -129 238.5s-42 196 -42 310
c0 152 25.167 284.167 75.5 396.5s128.166 199.333 233.499 261s240 92.5 404 92.5c166.667 0 302.167 -31 406.5 -93s180.833 -149.333 229.5 -262s73 -245 73 -397zM520.002 733.001c0 -88 10.001 -163.667 30.001 -227s51.667 -112 95 -146s100 -51 170 -51
c72.667 0 130.5 17 173.5 51s74 82.667 93 146s28.5 139 28.5 227c0 132 -22 236.333 -66 313s-119.667 115 -227 115c-71.333 0 -128.833 -17.333 -172.5 -52s-75.334 -84 -95.001 -148s-29.5 -140 -29.5 -228zM815.003 1899c23.333 -30.667 51.167 -64.333 83.5 -101
l97 -107.5l81.5 -90.5v-29h-260c-28 17.333 -61.333 39.333 -100 66l-121 84.5l-118.5 86l-92.5 70.5v21h430z" />
    <glyph glyph-name="Oacute" unicode="&#xd3;" horiz-adv-x="1632" 
d="M1526 733c0 -112.667 -13.498 -215.166 -40.498 -307.499s-69.167 -171.833 -126.5 -238.5s-131 -117.834 -221 -153.501s-197.667 -53.5 -323 -53.5c-122.667 0 -228.834 17.833 -318.501 53.5s-163.5 86.667 -221.5 153s-101 145.833 -129 238.5s-42 196 -42 310
c0 152 25.167 284.167 75.5 396.5s128.166 199.333 233.499 261s240 92.5 404 92.5c166.667 0 302.167 -31 406.5 -93s180.833 -149.333 229.5 -262s73 -245 73 -397zM520.002 733.001c0 -88 10.001 -163.667 30.001 -227s51.667 -112 95 -146s100 -51 170 -51
c72.667 0 130.5 17 173.5 51s74 82.667 93 146s28.5 139 28.5 227c0 132 -22 236.333 -66 313s-119.667 115 -227 115c-71.333 0 -128.833 -17.333 -172.5 -52s-75.334 -84 -95.001 -148s-29.5 -140 -29.5 -228zM1304 1899v-21.001c-24 -19.333 -54.667 -42.833 -92 -70.5
l-118.5 -86l-121 -84.5c-39 -26.667 -72.5 -48.667 -100.5 -66h-260v29l84 90.5l98 107.5c32.667 36.667 60 70.334 82 101.001h428z" />
    <glyph glyph-name="Ocircumflex" unicode="&#xd4;" horiz-adv-x="1632" 
d="M1526 733c0 -112.667 -13.498 -215.166 -40.498 -307.499s-69.167 -171.833 -126.5 -238.5s-131 -117.834 -221 -153.501s-197.667 -53.5 -323 -53.5c-122.667 0 -228.834 17.833 -318.501 53.5s-163.5 86.667 -221.5 153s-101 145.833 -129 238.5s-42 196 -42 310
c0 152 25.167 284.167 75.5 396.5s128.166 199.333 233.499 261s240 92.5 404 92.5c166.667 0 302.167 -31 406.5 -93s180.833 -149.333 229.5 -262s73 -245 73 -397zM520.002 733.001c0 -88 10.001 -163.667 30.001 -227s51.667 -112 95 -146s100 -51 170 -51
c72.667 0 130.5 17 173.5 51s74 82.667 93 146s28.5 139 28.5 227c0 132 -22 236.333 -66 313s-119.667 115 -227 115c-71.333 0 -128.833 -17.333 -172.5 -52s-75.334 -84 -95.001 -148s-29.5 -140 -29.5 -228zM1018 1899c21.333 -31.333 47.665 -65.833 78.998 -103.5
s63 -73.834 95 -108.501l82 -87v-29h-254c-35.333 20.667 -68.666 43.167 -99.999 67.5s-64.666 51.833 -99.999 82.5l-97.5 -81c-29 -23.333 -61.5 -46.333 -97.5 -69h-258v29c26 24.667 55.167 54.334 87.5 89.001s63.833 70.5 94.5 107.5s56 71.167 76 102.5h393z" />
    <glyph glyph-name="Otilde" unicode="&#xd5;" horiz-adv-x="1632" 
d="M1526 733c0 -112.667 -13.498 -215.166 -40.498 -307.499s-69.167 -171.833 -126.5 -238.5s-131 -117.834 -221 -153.501s-197.667 -53.5 -323 -53.5c-122.667 0 -228.834 17.833 -318.501 53.5s-163.5 86.667 -221.5 153s-101 145.833 -129 238.5s-42 196 -42 310
c0 152 25.167 284.167 75.5 396.5s128.166 199.333 233.499 261s240 92.5 404 92.5c166.667 0 302.167 -31 406.5 -93s180.833 -149.333 229.5 -262s73 -245 73 -397zM520.002 733.001c0 -88 10.001 -163.667 30.001 -227s51.667 -112 95 -146s100 -51 170 -51
c72.667 0 130.5 17 173.5 51s74 82.667 93 146s28.5 139 28.5 227c0 132 -22 236.333 -66 313s-119.667 115 -227 115c-71.333 0 -128.833 -17.333 -172.5 -52s-75.334 -84 -95.001 -148s-29.5 -140 -29.5 -228zM393.003 1567c4 62.667 12.4971 115.668 25.4971 159.001
s30 78.5 51 105.5s46.333 46.667 76 59s62.834 18.5 99.501 18.5c25.333 0 52.333 -4.83301 81 -14.5s57.667 -20.834 87 -33.501s58.166 -23.834 86.499 -33.501s55.5 -14.5 81.5 -14.5c12 0 25.167 5.66699 39.5 17s24.833 38.333 31.5 81h183
c-8.66699 -122.667 -35.5 -210.334 -80.5 -263.001s-100.167 -79 -165.5 -79c-30 0 -60.167 4.83301 -90.5 14.5s-60.166 20.834 -89.499 33.501s-57.666 23.834 -84.999 33.501s-53.666 14.5 -78.999 14.5c-12.667 0 -25.667 -5.33301 -39 -16s-24.333 -38 -33 -82h-180z
" />
    <glyph glyph-name="Odieresis" unicode="&#xd6;" horiz-adv-x="1632" 
d="M1526 733c0 -112.667 -13.498 -215.166 -40.498 -307.499s-69.167 -171.833 -126.5 -238.5s-131 -117.834 -221 -153.501s-197.667 -53.5 -323 -53.5c-122.667 0 -228.834 17.833 -318.501 53.5s-163.5 86.667 -221.5 153s-101 145.833 -129 238.5s-42 196 -42 310
c0 152 25.167 284.167 75.5 396.5s128.166 199.333 233.499 261s240 92.5 404 92.5c166.667 0 302.167 -31 406.5 -93s180.833 -149.333 229.5 -262s73 -245 73 -397zM520.002 733.001c0 -88 10.001 -163.667 30.001 -227s51.667 -112 95 -146s100 -51 170 -51
c72.667 0 130.5 17 173.5 51s74 82.667 93 146s28.5 139 28.5 227c0 132 -22 236.333 -66 313s-119.667 115 -227 115c-71.333 0 -128.833 -17.333 -172.5 -52s-75.334 -84 -95.001 -148s-29.5 -140 -29.5 -228zM405.003 1743c0 54.667 16.333 94.667 49 120s73 38 121 38
c46 0 86.167 -12.667 120.5 -38s51.5 -65.333 51.5 -120c0 -52.667 -17.167 -91.834 -51.5 -117.501s-74.5 -38.5 -120.5 -38.5c-48 0 -88.333 12.833 -121 38.5s-49 64.834 -49 117.501zM884.003 1743c0 54.667 16.5 94.667 49.5 120s73.833 38 122.5 38
c46.667 0 87.167 -12.667 121.5 -38s51.5 -65.333 51.5 -120c0 -52.667 -17.167 -91.834 -51.5 -117.501s-74.833 -38.5 -121.5 -38.5c-48.667 0 -89.5 12.833 -122.5 38.5s-49.5 64.834 -49.5 117.501z" />
    <glyph glyph-name="multiply" unicode="&#xd7;" horiz-adv-x="1200" 
d="M868 1180l189 -183l-275 -274l271 -272l-185 -185l-274 271l-270 -269l-181 187l265 268l-267 268l183 189l270 -267z" />
    <glyph glyph-name="Oslash" unicode="&#xd8;" horiz-adv-x="1632" 
d="M1526 733c0 -112.667 -13.498 -215.168 -40.498 -307.501s-69.167 -171.833 -126.5 -238.5s-131 -117.834 -221 -153.501s-197.667 -53.5 -323 -53.5c-58.667 0 -113.5 3.5 -164.5 10.5s-98.5 17.833 -142.5 32.5l-84 -132l-193 125l84 125
c-72.667 66.667 -126 150.334 -160 251.001s-51 215 -51 343c0 152 25.167 284.167 75.5 396.5s128.166 199.333 233.499 261s240 92.5 404 92.5c64.667 0 124.667 -4.66699 180 -14s105.333 -23 150 -41l76 118l190 -114l-82 -125
c67.333 -65.333 116.666 -147.166 147.999 -245.499s47 -208.5 47 -330.5zM1110 732.999c0 41.333 -1.5 79.668 -4.5 115.001s-7.5 67.333 -13.5 96l-394 -620c16.667 -4.66699 35 -8.33398 55 -11.001s40.667 -4 62 -4c72.667 0 130.5 17 173.5 51s74 82.667 93 146
s28.5 139 28.5 227zM520.002 733.001c0 -46 2.00098 -89.167 6.00098 -129.5s11.667 -76.833 23 -109.5l403 639c-19.333 8 -40.5 14.667 -63.5 20s-46.833 8 -71.5 8c-71.333 0 -128.833 -17.333 -172.5 -52s-75.334 -84 -95.001 -148s-29.5 -140 -29.5 -228z" />
    <glyph glyph-name="Ugrave" unicode="&#xd9;" horiz-adv-x="1550" 
d="M1401 1462v-880c0 -122.667 -23.333 -229.167 -70 -319.5s-116.667 -160 -210 -209s-210.333 -73.5 -351 -73.5c-201.333 0 -355 51.667 -461 155s-159 249.333 -159 438v889h397v-858c0 -103.333 19.333 -178.333 58 -225s95.667 -70 171 -70c54 0 98 10.167 132 30.5
s58.833 52.5 74.5 96.5s23.5 100.667 23.5 170v856h395zM774 1899c23.333 -30.667 51.167 -64.333 83.5 -101l97 -107.5l81.5 -90.5v-29h-260c-28 17.333 -61.333 39.333 -100 66l-121 84.5l-118.5 86l-92.5 70.5v21h430z" />
    <glyph glyph-name="Uacute" unicode="&#xda;" horiz-adv-x="1550" 
d="M1401 1462v-880c0 -122.667 -23.333 -229.167 -70 -319.5s-116.667 -160 -210 -209s-210.333 -73.5 -351 -73.5c-201.333 0 -355 51.667 -461 155s-159 249.333 -159 438v889h397v-858c0 -103.333 19.333 -178.333 58 -225s95.667 -70 171 -70c54 0 98 10.167 132 30.5
s58.833 52.5 74.5 96.5s23.5 100.667 23.5 170v856h395zM1263 1899v-21.001c-24 -19.333 -54.667 -42.833 -92 -70.5l-118.5 -86l-121 -84.5c-39 -26.667 -72.5 -48.667 -100.5 -66h-260v29l84 90.5l98 107.5c32.667 36.667 60 70.334 82 101.001h428z" />
    <glyph glyph-name="Ucircumflex" unicode="&#xdb;" horiz-adv-x="1550" 
d="M1401 1462v-880c0 -122.667 -23.333 -229.167 -70 -319.5s-116.667 -160 -210 -209s-210.333 -73.5 -351 -73.5c-201.333 0 -355 51.667 -461 155s-159 249.333 -159 438v889h397v-858c0 -103.333 19.333 -178.333 58 -225s95.667 -70 171 -70c54 0 98 10.167 132 30.5
s58.833 52.5 74.5 96.5s23.5 100.667 23.5 170v856h395zM977 1899c21.333 -31.333 47.665 -65.833 78.998 -103.5s63 -73.834 95 -108.501l82 -87v-29h-254c-35.333 20.667 -68.666 43.167 -99.999 67.5s-64.666 51.833 -99.999 82.5l-97.5 -81
c-29 -23.333 -61.5 -46.333 -97.5 -69h-258v29c26 24.667 55.167 54.334 87.5 89.001s63.833 70.5 94.5 107.5s56 71.167 76 102.5h393z" />
    <glyph glyph-name="Udieresis" unicode="&#xdc;" horiz-adv-x="1550" 
d="M1401 1462v-880c0 -122.667 -23.333 -229.167 -70 -319.5s-116.667 -160 -210 -209s-210.333 -73.5 -351 -73.5c-201.333 0 -355 51.667 -461 155s-159 249.333 -159 438v889h397v-858c0 -103.333 19.333 -178.333 58 -225s95.667 -70 171 -70c54 0 98 10.167 132 30.5
s58.833 52.5 74.5 96.5s23.5 100.667 23.5 170v856h395zM364 1743c0 54.667 16.333 94.667 49 120s73 38 121 38c46 0 86.167 -12.667 120.5 -38s51.5 -65.333 51.5 -120c0 -52.667 -17.167 -91.834 -51.5 -117.501s-74.5 -38.5 -120.5 -38.5
c-48 0 -88.333 12.833 -121 38.5s-49 64.834 -49 117.501zM843 1743c0 54.667 16.5 94.667 49.5 120s73.833 38 122.5 38c46.667 0 87.167 -12.667 121.5 -38s51.5 -65.333 51.5 -120c0 -52.667 -17.167 -91.834 -51.5 -117.501s-74.833 -38.5 -121.5 -38.5
c-48.667 0 -89.5 12.833 -122.5 38.5s-49.5 64.834 -49.5 117.501z" />
    <glyph glyph-name="Yacute" unicode="&#xdd;" horiz-adv-x="1360" 
d="M680 920l252 542h428l-481 -891v-571h-398v559l-481 903h430zM1167 1899v-21.001c-24 -19.333 -54.667 -42.833 -92 -70.5l-118.5 -86l-121 -84.5c-39 -26.667 -72.5 -48.667 -100.5 -66h-260v29l84 90.5l98 107.5c32.667 36.667 60 70.334 82 101.001h428z" />
    <glyph glyph-name="Thorn" unicode="&#xde;" horiz-adv-x="1284" 
d="M1219 784c0 -66.667 -9.49902 -130.666 -28.499 -191.999s-50 -116 -93 -164s-100 -86 -171 -114s-158.5 -42 -262.5 -42h-111v-272h-395v1462h395v-213h111c185.333 0 324.166 -40.333 416.499 -121s138.5 -195.334 138.5 -344.001zM553.001 594.001h72
c34 0 65.833 6.5 95.5 19.5s53.5 33.333 71.5 61s27 63.5 27 107.5c0 46 -13 82.167 -39 108.5s-67.667 39.5 -125 39.5h-102v-336z" />
    <glyph glyph-name="germandbls" unicode="&#xdf;" horiz-adv-x="1536" 
d="M1339 1190c0 -46 -8.99707 -86.665 -26.9971 -121.998s-40.333 -66.666 -67 -93.999s-53.334 -51 -80.001 -71s-49 -37.5 -67 -52.5s-27 -28.167 -27 -39.5c0 -16.667 7.83301 -31.334 23.5 -44.001s39 -27.334 70 -44.001s68.833 -39.334 113.5 -68.001
c45.333 -28.667 82.666 -57.5 111.999 -86.5s51.166 -62.167 65.499 -99.5s21.5 -82.333 21.5 -135c0 -76.667 -17.333 -141.334 -52 -194.001s-85.5 -92.5 -152.5 -119.5s-149.833 -40.5 -248.5 -40.5c-92 0 -166 4.16699 -222 12.5s-105.667 23.833 -149 46.5v291
c22.667 -13.333 50.667 -26.166 84 -38.499s67.333 -22.333 102 -30s65.667 -11.5 93 -11.5c38 0 70.333 7.5 97 22.5s40 36.167 40 63.5c0 15.333 -3.83301 29.333 -11.5 42s-24.667 27.834 -51 45.501s-67.5 41.167 -123.5 70.5
c-55.333 29.333 -99.333 57.166 -132 83.499s-56.167 53.833 -70.5 82.5s-21.5 60.667 -21.5 96c0 42.667 9.33301 78.667 28 108s42 55.166 70 77.499s55.833 43.333 83.5 63s50.834 40.834 69.501 63.501s28 49.667 28 81c0 34 -16.667 62.333 -50 85s-80 34 -140 34
c-50.667 0 -92.334 -8.16699 -125.001 -24.5s-57 -40 -73 -71s-24 -68.833 -24 -113.5v-1059h-391v1100c0 100.667 26.5 185.667 79.5 255s125.833 122 218.5 158s197.667 54 315 54c114.667 0 216.5 -13.833 305.5 -41.5s158.833 -69.5 209.5 -125.5s76 -126 76 -210z" />
    <glyph glyph-name="agrave" unicode="&#xe0;" horiz-adv-x="1276" 
d="M688 1153c143.333 0 255.332 -35.498 335.999 -106.498s121 -172.167 121 -303.5v-743h-271l-75 150h-8c-32 -40 -64.833 -72.5 -98.5 -97.5s-72.167 -43.333 -115.5 -55s-96.333 -17.5 -159 -17.5c-65.333 0 -124 13.333 -176 40s-93 67 -123 121s-45 122.333 -45 205
c0 121.333 42 211.333 126 270s205.667 91.667 365 99l189 6v16c0 50.667 -12.5 86.667 -37.5 108s-58.5 32 -100.5 32c-44.667 0 -94.5 -7.83301 -149.5 -23.5s-110.167 -35.834 -165.5 -60.501l-113 258c65.333 33.333 139.333 58.666 222 75.999s175.334 26 278.001 26z
M755.999 506.002l-90 -4.00098c-72 -2.66699 -122.5 -15.167 -151.5 -37.5s-43.5 -54.166 -43.5 -95.499c0 -38.667 10.333 -67.167 31 -85.5s48 -27.5 82 -27.5c47.333 0 87.833 15 121.5 45s50.5 69 50.5 117v88zM636.999 1569c23.333 -30.667 51.167 -64.333 83.5 -101
l97 -107.5l81.5 -90.5v-29h-260c-28 17.333 -61.333 39.333 -100 66l-121 84.5l-118.5 86l-92.5 70.5v21h430z" />
    <glyph glyph-name="aacute" unicode="&#xe1;" horiz-adv-x="1276" 
d="M688 1153c143.333 0 255.332 -35.498 335.999 -106.498s121 -172.167 121 -303.5v-743h-271l-75 150h-8c-32 -40 -64.833 -72.5 -98.5 -97.5s-72.167 -43.333 -115.5 -55s-96.333 -17.5 -159 -17.5c-65.333 0 -124 13.333 -176 40s-93 67 -123 121s-45 122.333 -45 205
c0 121.333 42 211.333 126 270s205.667 91.667 365 99l189 6v16c0 50.667 -12.5 86.667 -37.5 108s-58.5 32 -100.5 32c-44.667 0 -94.5 -7.83301 -149.5 -23.5s-110.167 -35.834 -165.5 -60.501l-113 258c65.333 33.333 139.333 58.666 222 75.999s175.334 26 278.001 26z
M755.999 506.002l-90 -4.00098c-72 -2.66699 -122.5 -15.167 -151.5 -37.5s-43.5 -54.166 -43.5 -95.499c0 -38.667 10.333 -67.167 31 -85.5s48 -27.5 82 -27.5c47.333 0 87.833 15 121.5 45s50.5 69 50.5 117v88zM1126 1569v-21.001
c-24 -19.333 -54.667 -42.833 -92 -70.5l-118.5 -86l-121 -84.5c-39 -26.667 -72.5 -48.667 -100.5 -66h-260v29l84 90.5l98 107.5c32.667 36.667 60 70.334 82 101.001h428z" />
    <glyph glyph-name="acircumflex" unicode="&#xe2;" horiz-adv-x="1276" 
d="M688 1153c143.333 0 255.332 -35.498 335.999 -106.498s121 -172.167 121 -303.5v-743h-271l-75 150h-8c-32 -40 -64.833 -72.5 -98.5 -97.5s-72.167 -43.333 -115.5 -55s-96.333 -17.5 -159 -17.5c-65.333 0 -124 13.333 -176 40s-93 67 -123 121s-45 122.333 -45 205
c0 121.333 42 211.333 126 270s205.667 91.667 365 99l189 6v16c0 50.667 -12.5 86.667 -37.5 108s-58.5 32 -100.5 32c-44.667 0 -94.5 -7.83301 -149.5 -23.5s-110.167 -35.834 -165.5 -60.501l-113 258c65.333 33.333 139.333 58.666 222 75.999s175.334 26 278.001 26z
M755.999 506.002l-90 -4.00098c-72 -2.66699 -122.5 -15.167 -151.5 -37.5s-43.5 -54.166 -43.5 -95.499c0 -38.667 10.333 -67.167 31 -85.5s48 -27.5 82 -27.5c47.333 0 87.833 15 121.5 45s50.5 69 50.5 117v88zM838.999 1569
c21.333 -31.333 47.665 -65.833 78.998 -103.5s63 -73.834 95 -108.501l82 -87v-29h-254c-35.333 20.667 -68.666 43.167 -99.999 67.5s-64.666 51.833 -99.999 82.5l-97.5 -81c-29 -23.333 -61.5 -46.333 -97.5 -69h-258v29c26 24.667 55.167 54.334 87.5 89.001
s63.833 70.5 94.5 107.5s56 71.167 76 102.5h393z" />
    <glyph glyph-name="atilde" unicode="&#xe3;" horiz-adv-x="1276" 
d="M688 1153c143.333 0 255.332 -35.498 335.999 -106.498s121 -172.167 121 -303.5v-743h-271l-75 150h-8c-32 -40 -64.833 -72.5 -98.5 -97.5s-72.167 -43.333 -115.5 -55s-96.333 -17.5 -159 -17.5c-65.333 0 -124 13.333 -176 40s-93 67 -123 121s-45 122.333 -45 205
c0 121.333 42 211.333 126 270s205.667 91.667 365 99l189 6v16c0 50.667 -12.5 86.667 -37.5 108s-58.5 32 -100.5 32c-44.667 0 -94.5 -7.83301 -149.5 -23.5s-110.167 -35.834 -165.5 -60.501l-113 258c65.333 33.333 139.333 58.666 222 75.999s175.334 26 278.001 26z
M755.999 506.002l-90 -4.00098c-72 -2.66699 -122.5 -15.167 -151.5 -37.5s-43.5 -54.166 -43.5 -95.499c0 -38.667 10.333 -67.167 31 -85.5s48 -27.5 82 -27.5c47.333 0 87.833 15 121.5 45s50.5 69 50.5 117v88zM214.999 1237c4 62.667 12.4971 115.668 25.4971 159.001
s30 78.5 51 105.5s46.333 46.667 76 59s62.834 18.5 99.501 18.5c25.333 0 52.333 -4.83301 81 -14.5s57.667 -20.834 87 -33.501s58.166 -23.834 86.499 -33.501s55.5 -14.5 81.5 -14.5c12 0 25.167 5.66699 39.5 17s24.833 38.333 31.5 81h183
c-8.66699 -122.667 -35.5 -210.334 -80.5 -263.001s-100.167 -79 -165.5 -79c-30 0 -60.167 4.83301 -90.5 14.5s-60.166 20.834 -89.499 33.501s-57.666 23.834 -84.999 33.501s-53.666 14.5 -78.999 14.5c-12.667 0 -25.667 -5.33301 -39 -16s-24.333 -38 -33 -82h-180z
" />
    <glyph glyph-name="adieresis" unicode="&#xe4;" horiz-adv-x="1276" 
d="M688 1153c143.333 0 255.332 -35.498 335.999 -106.498s121 -172.167 121 -303.5v-743h-271l-75 150h-8c-32 -40 -64.833 -72.5 -98.5 -97.5s-72.167 -43.333 -115.5 -55s-96.333 -17.5 -159 -17.5c-65.333 0 -124 13.333 -176 40s-93 67 -123 121s-45 122.333 -45 205
c0 121.333 42 211.333 126 270s205.667 91.667 365 99l189 6v16c0 50.667 -12.5 86.667 -37.5 108s-58.5 32 -100.5 32c-44.667 0 -94.5 -7.83301 -149.5 -23.5s-110.167 -35.834 -165.5 -60.501l-113 258c65.333 33.333 139.333 58.666 222 75.999s175.334 26 278.001 26z
M755.999 506.002l-90 -4.00098c-72 -2.66699 -122.5 -15.167 -151.5 -37.5s-43.5 -54.166 -43.5 -95.499c0 -38.667 10.333 -67.167 31 -85.5s48 -27.5 82 -27.5c47.333 0 87.833 15 121.5 45s50.5 69 50.5 117v88zM226.999 1413c0 54.667 16.333 94.667 49 120
s73 38 121 38c46 0 86.167 -12.667 120.5 -38s51.5 -65.333 51.5 -120c0 -52.667 -17.167 -91.834 -51.5 -117.501s-74.5 -38.5 -120.5 -38.5c-48 0 -88.333 12.833 -121 38.5s-49 64.834 -49 117.501zM705.999 1413c0 54.667 16.5 94.667 49.5 120s73.833 38 122.5 38
c46.667 0 87.167 -12.667 121.5 -38s51.5 -65.333 51.5 -120c0 -52.667 -17.167 -91.834 -51.5 -117.501s-74.833 -38.5 -121.5 -38.5c-48.667 0 -89.5 12.833 -122.5 38.5s-49.5 64.834 -49.5 117.501z" />
    <glyph glyph-name="aring" unicode="&#xe5;" horiz-adv-x="1276" 
d="M688 1153c143.333 0 255.332 -35.498 335.999 -106.498s121 -172.167 121 -303.5v-743h-271l-75 150h-8c-32 -40 -64.833 -72.5 -98.5 -97.5s-72.167 -43.333 -115.5 -55s-96.333 -17.5 -159 -17.5c-65.333 0 -124 13.333 -176 40s-93 67 -123 121s-45 122.333 -45 205
c0 121.333 42 211.333 126 270s205.667 91.667 365 99l189 6v16c0 50.667 -12.5 86.667 -37.5 108s-58.5 32 -100.5 32c-44.667 0 -94.5 -7.83301 -149.5 -23.5s-110.167 -35.834 -165.5 -60.501l-113 258c65.333 33.333 139.333 58.666 222 75.999s175.334 26 278.001 26z
M755.999 506.002l-90 -4.00098c-72 -2.66699 -122.5 -15.167 -151.5 -37.5s-43.5 -54.166 -43.5 -95.499c0 -38.667 10.333 -67.167 31 -85.5s48 -27.5 82 -27.5c47.333 0 87.833 15 121.5 45s50.5 69 50.5 117v88zM638.999 1237c-78.667 0 -142.334 22.5 -191.001 67.5
s-73 106.5 -73 184.5c0 79.333 24.333 141.5 73 186.5s112.334 67.5 191.001 67.5c75.333 0 139.5 -22.5 192.5 -67.5s79.5 -106.5 79.5 -184.5c0 -78.667 -26.333 -140.667 -79 -186s-117 -68 -193 -68zM638.999 1405c23.333 0 43.166 7.83301 59.499 23.5
s24.5 35.834 24.5 60.501c0 25.333 -8.16699 45.666 -24.5 60.999s-36.166 23 -59.499 23s-43.166 -7.66699 -59.499 -23s-24.5 -35.666 -24.5 -60.999c0 -24.667 7.16699 -44.834 21.5 -60.501s35.166 -23.5 62.499 -23.5z" />
    <glyph glyph-name="ae" unicode="&#xe6;" horiz-adv-x="1915" 
d="M1337 1153c96 0 181 -19.1641 255 -57.4971s132 -96 174 -173s63 -173.5 63 -289.5v-172h-696c3.33301 -55.333 26.5 -103 69.5 -143s106.5 -60 190.5 -60c52 0 109.5 6.16699 172.5 18.5s126.833 34.833 191.5 67.5v-281c-54.667 -28.667 -113.334 -49.667 -176.001 -63
s-142.667 -20 -240 -20c-57.333 0 -112.333 6.66699 -165 20s-101.334 34.166 -146.001 62.499s-84.334 64.166 -119.001 107.499c-46 -48 -89.833 -85.833 -131.5 -113.5s-89.167 -47.334 -142.5 -59.001s-121 -17.5 -203 -17.5c-62.667 0 -121.334 13.333 -176.001 40
s-99 67.5 -133 122.5s-51 124.833 -51 209.5c0 84 20.667 152 62 204s99.333 90.667 174 116s161.667 39.666 261 42.999l183 6v18c0 54.667 -13.667 91.334 -41 110.001s-59 28 -95 28c-44.667 0 -94.667 -7.16699 -150 -21.5s-109.666 -33.833 -162.999 -58.5l-110 256
c64.667 33.333 135.834 58.333 213.501 75s157.834 25 240.501 25c64.667 0 125.334 -7.83301 182.001 -23.5s108 -39.167 154 -70.5c47.333 32.667 98.5 56.5 153.5 71.5s121.167 22.5 198.5 22.5zM756 506.003l-84.002 -4c-76.667 -2 -129 -16 -157 -42
s-42 -60.667 -42 -104c0 -36.667 10.333 -62.5 31 -77.5s48 -22.5 82 -22.5c30.667 0 58.834 6.83301 84.501 20.5s46.334 32.667 62.001 57s23.5 52.5 23.5 84.5v88zM1315 887.003c-48 0 -87.999 -13.3311 -119.999 -39.998s-50.667 -73.334 -56 -140.001h340
c-0.666992 32.667 -7.33398 62.667 -20.001 90s-31.167 49.166 -55.5 65.499s-53.833 24.5 -88.5 24.5z" />
    <glyph glyph-name="ccedilla" unicode="&#xe7;" horiz-adv-x="1104" 
d="M651 -20c-114.667 0 -214.33 20.5029 -298.997 61.5029s-150.167 104.333 -196.5 190s-69.5 195.5 -69.5 329.5c0 137.333 25.833 249.666 77.5 336.999s122.5 151.666 212.5 192.999s192 62 306 62c69.333 0 135.166 -7.66699 197.499 -23s120.166 -36.333 173.499 -63
l-115 -289c-46.667 20.667 -90.167 37.167 -130.5 49.5s-82.166 18.5 -125.499 18.5c-39.333 0 -74 -10.333 -104 -31s-53.333 -51.834 -70 -93.501s-25 -94.5 -25 -158.5c0 -65.333 8.5 -118 25.5 -158s40.667 -69 71 -87s65.166 -27 104.499 -27
c56.667 0 113.167 8.83301 169.5 26.5s109.833 42.167 160.5 73.5v-311c-46.667 -30.667 -99.334 -55 -158.001 -73s-127 -27 -205 -27zM881.004 -251.997c0 -72.667 -25.001 -130.834 -75.001 -174.501s-116.667 -65.5 -200 -65.5c-46.667 0 -89 3.66699 -127 11
s-69.333 15.333 -94 24v193c22.667 -7.33301 44.834 -13 66.501 -17s43.834 -6 66.501 -6c25.333 0 45.333 5.33301 60 16s22 24.667 22 42c0 23.333 -11.167 41.833 -33.5 55.5s-59.5 25.167 -111.5 34.5l61 139h195l-19 -61c27.333 -6 55.666 -15.667 84.999 -29
s54 -32.666 74 -57.999s30 -60 30 -104z" />
    <glyph glyph-name="egrave" unicode="&#xe8;" horiz-adv-x="1266" 
d="M645 1153c110 0 205.002 -19.167 285.002 -57.5s141.667 -95.833 185 -172.5s65 -172.667 65 -288v-174h-699c3.33301 -59.333 25.5 -108 66.5 -146s101.5 -57 181.5 -57c70.667 0 135.5 7 194.5 21s119.833 35.667 182.5 65v-281
c-54.667 -28.667 -114.334 -49.667 -179.001 -63s-146.334 -20 -245.001 -20c-114 0 -216 20.333 -306 61s-160.833 103.667 -212.5 189s-77.5 195 -77.5 329c0 136 23.333 247.833 70 335.5s112 152.667 196 195s181.667 63.5 293 63.5zM659.002 887
c-46 0 -84.499 -14.499 -115.499 -43.499s-49.167 -74.5 -54.5 -136.5h336c-0.666992 33.333 -7.33398 63.666 -20.001 90.999s-31.167 49 -55.5 65s-54.5 24 -90.5 24zM631.003 1569c23.333 -30.667 51.167 -64.333 83.5 -101l97 -107.5l81.5 -90.5v-29h-260
c-28 17.333 -61.333 39.333 -100 66l-121 84.5l-118.5 86l-92.5 70.5v21h430z" />
    <glyph glyph-name="eacute" unicode="&#xe9;" horiz-adv-x="1266" 
d="M645 1153c110 0 205.002 -19.167 285.002 -57.5s141.667 -95.833 185 -172.5s65 -172.667 65 -288v-174h-699c3.33301 -59.333 25.5 -108 66.5 -146s101.5 -57 181.5 -57c70.667 0 135.5 7 194.5 21s119.833 35.667 182.5 65v-281
c-54.667 -28.667 -114.334 -49.667 -179.001 -63s-146.334 -20 -245.001 -20c-114 0 -216 20.333 -306 61s-160.833 103.667 -212.5 189s-77.5 195 -77.5 329c0 136 23.333 247.833 70 335.5s112 152.667 196 195s181.667 63.5 293 63.5zM659.002 887
c-46 0 -84.499 -14.499 -115.499 -43.499s-49.167 -74.5 -54.5 -136.5h336c-0.666992 33.333 -7.33398 63.666 -20.001 90.999s-31.167 49 -55.5 65s-54.5 24 -90.5 24zM1120 1569v-21.001c-24 -19.333 -54.667 -42.833 -92 -70.5l-118.5 -86l-121 -84.5
c-39 -26.667 -72.5 -48.667 -100.5 -66h-260v29l84 90.5l98 107.5c32.667 36.667 60 70.334 82 101.001h428z" />
    <glyph glyph-name="ecircumflex" unicode="&#xea;" horiz-adv-x="1266" 
d="M645 1153c110 0 205.002 -19.167 285.002 -57.5s141.667 -95.833 185 -172.5s65 -172.667 65 -288v-174h-699c3.33301 -59.333 25.5 -108 66.5 -146s101.5 -57 181.5 -57c70.667 0 135.5 7 194.5 21s119.833 35.667 182.5 65v-281
c-54.667 -28.667 -114.334 -49.667 -179.001 -63s-146.334 -20 -245.001 -20c-114 0 -216 20.333 -306 61s-160.833 103.667 -212.5 189s-77.5 195 -77.5 329c0 136 23.333 247.833 70 335.5s112 152.667 196 195s181.667 63.5 293 63.5zM659.002 887
c-46 0 -84.499 -14.499 -115.499 -43.499s-49.167 -74.5 -54.5 -136.5h336c-0.666992 33.333 -7.33398 63.666 -20.001 90.999s-31.167 49 -55.5 65s-54.5 24 -90.5 24zM833.003 1569c21.333 -31.333 47.665 -65.833 78.998 -103.5s63 -73.834 95 -108.501l82 -87v-29h-254
c-35.333 20.667 -68.666 43.167 -99.999 67.5s-64.666 51.833 -99.999 82.5l-97.5 -81c-29 -23.333 -61.5 -46.333 -97.5 -69h-258v29c26 24.667 55.167 54.334 87.5 89.001s63.833 70.5 94.5 107.5s56 71.167 76 102.5h393z" />
    <glyph glyph-name="edieresis" unicode="&#xeb;" horiz-adv-x="1266" 
d="M645 1153c110 0 205.002 -19.167 285.002 -57.5s141.667 -95.833 185 -172.5s65 -172.667 65 -288v-174h-699c3.33301 -59.333 25.5 -108 66.5 -146s101.5 -57 181.5 -57c70.667 0 135.5 7 194.5 21s119.833 35.667 182.5 65v-281
c-54.667 -28.667 -114.334 -49.667 -179.001 -63s-146.334 -20 -245.001 -20c-114 0 -216 20.333 -306 61s-160.833 103.667 -212.5 189s-77.5 195 -77.5 329c0 136 23.333 247.833 70 335.5s112 152.667 196 195s181.667 63.5 293 63.5zM659.002 887
c-46 0 -84.499 -14.499 -115.499 -43.499s-49.167 -74.5 -54.5 -136.5h336c-0.666992 33.333 -7.33398 63.666 -20.001 90.999s-31.167 49 -55.5 65s-54.5 24 -90.5 24zM221.003 1413c0 54.667 16.333 94.667 49 120s73 38 121 38c46 0 86.167 -12.667 120.5 -38
s51.5 -65.333 51.5 -120c0 -52.667 -17.167 -91.834 -51.5 -117.501s-74.5 -38.5 -120.5 -38.5c-48 0 -88.333 12.833 -121 38.5s-49 64.834 -49 117.501zM700.003 1413c0 54.667 16.5 94.667 49.5 120s73.833 38 122.5 38c46.667 0 87.167 -12.667 121.5 -38
s51.5 -65.333 51.5 -120c0 -52.667 -17.167 -91.834 -51.5 -117.501s-74.833 -38.5 -121.5 -38.5c-48.667 0 -89.5 12.833 -122.5 38.5s-49.5 64.834 -49.5 117.501z" />
    <glyph glyph-name="igrave" unicode="&#xec;" horiz-adv-x="666" 
d="M528 0h-391v1133h391v-1133zM332 1569c23.333 -30.667 51.167 -64.333 83.5 -101l97 -107.5l81.5 -90.5v-29h-260c-28 17.333 -61.333 39.333 -100 66l-121 84.5l-118.5 86l-92.5 70.5v21h430z" />
    <glyph glyph-name="iacute" unicode="&#xed;" horiz-adv-x="666" 
d="M528 0h-391v1133h391v-1133zM821 1569v-21.001c-24 -19.333 -54.667 -42.833 -92 -70.5l-118.5 -86l-121 -84.5c-39 -26.667 -72.5 -48.667 -100.5 -66h-260v29l84 90.5l98 107.5c32.667 36.667 60 70.334 82 101.001h428z" />
    <glyph glyph-name="icircumflex" unicode="&#xee;" horiz-adv-x="666" 
d="M528 0h-391v1133h391v-1133zM534 1569c21.333 -31.333 47.665 -65.833 78.998 -103.5s63 -73.834 95 -108.501l82 -87v-29h-254c-35.333 20.667 -68.666 43.167 -99.999 67.5s-64.666 51.833 -99.999 82.5l-97.5 -81c-29 -23.333 -61.5 -46.333 -97.5 -69h-258v29
c26 24.667 55.167 54.334 87.5 89.001s63.833 70.5 94.5 107.5s56 71.167 76 102.5h393z" />
    <glyph glyph-name="idieresis" unicode="&#xef;" horiz-adv-x="666" 
d="M528 0h-391v1133h391v-1133zM-78 1413c0 54.667 16.333 94.667 49 120s73 38 121 38c46 0 86.167 -12.667 120.5 -38s51.5 -65.333 51.5 -120c0 -52.667 -17.167 -91.834 -51.5 -117.501s-74.5 -38.5 -120.5 -38.5c-48 0 -88.333 12.833 -121 38.5
s-49 64.834 -49 117.501zM401 1413c0 54.667 16.5 94.667 49.5 120s73.833 38 122.5 38c46.667 0 87.167 -12.667 121.5 -38s51.5 -65.333 51.5 -120c0 -52.667 -17.167 -91.834 -51.5 -117.501s-74.833 -38.5 -121.5 -38.5c-48.667 0 -89.5 12.833 -122.5 38.5
s-49.5 64.834 -49.5 117.501z" />
    <glyph glyph-name="eth" unicode="&#xf0;" horiz-adv-x="1313" 
d="M479 1573c53.333 -22.667 101.833 -44.668 145.5 -66.001s83.834 -44.333 120.501 -69l209 137l115 -182l-145 -97c64 -62.667 117.833 -128.834 161.5 -198.501s76.5 -146.667 98.5 -231s33 -179.833 33 -286.5c0 -123.333 -23.333 -230 -70 -320
s-112.5 -159.167 -197.5 -207.5s-185.167 -72.5 -300.5 -72.5c-108.667 0 -205.167 19.667 -289.5 59s-150.666 97.5 -198.999 174.5s-72.5 171.833 -72.5 284.5s21 207.334 63 284.001s99.167 134.5 171.5 173.5s153.833 58.5 244.5 58.5c44.667 0 83 -3.16699 115 -9.5
s58.667 -15.666 80 -27.999s37.666 -27.833 48.999 -46.5l8 4c-19.333 37.333 -39.833 73 -61.5 107s-48.834 67.333 -81.501 100l-182 -119l-117 184l143 92l-71 45l-78 48zM653 732.999c-40.667 0 -73 -8.16699 -97 -24.5s-41.167 -41.666 -51.5 -75.999
s-15.5 -78.5 -15.5 -132.5c0 -48.667 5.33301 -91.167 16 -127.5s28 -64.5 52 -84.5s56 -30 96 -30c60.667 0 103.167 23.667 127.5 71s36.5 119.333 36.5 216c0 23.333 -3.33301 46.166 -10 68.499s-16.667 42.5 -30 60.5s-30.333 32.333 -51 43s-45 16 -73 16z" />
    <glyph glyph-name="ntilde" unicode="&#xf1;" horiz-adv-x="1372" 
d="M844 1153c116.667 0 212.002 -32.998 286.002 -98.998s111 -171.667 111 -317v-737h-391v618c0 75.333 -10.833 132.166 -32.5 170.499s-56.5 57.5 -104.5 57.5c-74 0 -123.667 -30.167 -149 -90.5s-38 -146.833 -38 -259.5v-496h-391v1133h295l53 -150h15
c24 36 52.667 66.667 86 92s71.666 44.666 114.999 57.999s91.666 20 144.999 20zM262.002 1237c4 62.667 12.4971 115.668 25.4971 159.001s30 78.5 51 105.5s46.333 46.667 76 59s62.834 18.5 99.501 18.5c25.333 0 52.333 -4.83301 81 -14.5s57.667 -20.834 87 -33.501
s58.166 -23.834 86.499 -33.501s55.5 -14.5 81.5 -14.5c12 0 25.167 5.66699 39.5 17s24.833 38.333 31.5 81h183c-8.66699 -122.667 -35.5 -210.334 -80.5 -263.001s-100.167 -79 -165.5 -79c-30 0 -60.167 4.83301 -90.5 14.5s-60.166 20.834 -89.499 33.501
s-57.666 23.834 -84.999 33.501s-53.666 14.5 -78.999 14.5c-12.667 0 -25.667 -5.33301 -39 -16s-24.333 -38 -33 -82h-180z" />
    <glyph glyph-name="ograve" unicode="&#xf2;" horiz-adv-x="1305" 
d="M1217 569c0 -94.667 -13 -178.667 -39 -252s-63.667 -135 -113 -185s-109 -87.833 -179 -113.5s-149 -38.5 -237 -38.5c-82 0 -157.167 12.833 -225.5 38.5s-127.833 63.5 -178.5 113.5s-89.834 111.667 -117.501 185s-41.5 157.333 -41.5 252
c0 125.333 22.833 231.333 68.5 318s111 152.667 196 198s186.5 68 304.5 68c108.667 0 205.334 -22.667 290.001 -68s151.167 -111.333 199.5 -198s72.5 -192.667 72.5 -318zM483 569c0 -64.667 5.66504 -119.167 16.998 -163.5s29.5 -78 54.5 -101
s57.833 -34.5 98.5 -34.5s73 11.5 97 34.5s41.5 56.667 52.5 101s16.5 98.833 16.5 163.5s-5.5 118.667 -16.5 162s-28.667 76 -53 98s-57.166 33 -98.499 33c-59.333 0 -102.166 -24.667 -128.499 -74s-39.5 -122.333 -39.5 -219zM650.998 1569
c23.333 -30.667 51.167 -64.333 83.5 -101l97 -107.5l81.5 -90.5v-29h-260c-28 17.333 -61.333 39.333 -100 66l-121 84.5l-118.5 86l-92.5 70.5v21h430z" />
    <glyph glyph-name="oacute" unicode="&#xf3;" horiz-adv-x="1305" 
d="M1217 569c0 -94.667 -13 -178.667 -39 -252s-63.667 -135 -113 -185s-109 -87.833 -179 -113.5s-149 -38.5 -237 -38.5c-82 0 -157.167 12.833 -225.5 38.5s-127.833 63.5 -178.5 113.5s-89.834 111.667 -117.501 185s-41.5 157.333 -41.5 252
c0 125.333 22.833 231.333 68.5 318s111 152.667 196 198s186.5 68 304.5 68c108.667 0 205.334 -22.667 290.001 -68s151.167 -111.333 199.5 -198s72.5 -192.667 72.5 -318zM483 569c0 -64.667 5.66504 -119.167 16.998 -163.5s29.5 -78 54.5 -101
s57.833 -34.5 98.5 -34.5s73 11.5 97 34.5s41.5 56.667 52.5 101s16.5 98.833 16.5 163.5s-5.5 118.667 -16.5 162s-28.667 76 -53 98s-57.166 33 -98.499 33c-59.333 0 -102.166 -24.667 -128.499 -74s-39.5 -122.333 -39.5 -219zM1141 1569v-21.001
c-24 -19.333 -54.667 -42.833 -92 -70.5l-118.5 -86l-121 -84.5c-39 -26.667 -72.5 -48.667 -100.5 -66h-260v29l84 90.5l98 107.5c32.667 36.667 60 70.334 82 101.001h428z" />
    <glyph glyph-name="ocircumflex" unicode="&#xf4;" horiz-adv-x="1305" 
d="M1217 569c0 -94.667 -13 -178.667 -39 -252s-63.667 -135 -113 -185s-109 -87.833 -179 -113.5s-149 -38.5 -237 -38.5c-82 0 -157.167 12.833 -225.5 38.5s-127.833 63.5 -178.5 113.5s-89.834 111.667 -117.501 185s-41.5 157.333 -41.5 252
c0 125.333 22.833 231.333 68.5 318s111 152.667 196 198s186.5 68 304.5 68c108.667 0 205.334 -22.667 290.001 -68s151.167 -111.333 199.5 -198s72.5 -192.667 72.5 -318zM483 569c0 -64.667 5.66504 -119.167 16.998 -163.5s29.5 -78 54.5 -101
s57.833 -34.5 98.5 -34.5s73 11.5 97 34.5s41.5 56.667 52.5 101s16.5 98.833 16.5 163.5s-5.5 118.667 -16.5 162s-28.667 76 -53 98s-57.166 33 -98.499 33c-59.333 0 -102.166 -24.667 -128.499 -74s-39.5 -122.333 -39.5 -219zM853.998 1569
c21.333 -31.333 47.665 -65.833 78.998 -103.5s63 -73.834 95 -108.501l82 -87v-29h-254c-35.333 20.667 -68.666 43.167 -99.999 67.5s-64.666 51.833 -99.999 82.5l-97.5 -81c-29 -23.333 -61.5 -46.333 -97.5 -69h-258v29c26 24.667 55.167 54.334 87.5 89.001
s63.833 70.5 94.5 107.5s56 71.167 76 102.5h393z" />
    <glyph glyph-name="otilde" unicode="&#xf5;" horiz-adv-x="1305" 
d="M1217 569c0 -94.667 -13 -178.667 -39 -252s-63.667 -135 -113 -185s-109 -87.833 -179 -113.5s-149 -38.5 -237 -38.5c-82 0 -157.167 12.833 -225.5 38.5s-127.833 63.5 -178.5 113.5s-89.834 111.667 -117.501 185s-41.5 157.333 -41.5 252
c0 125.333 22.833 231.333 68.5 318s111 152.667 196 198s186.5 68 304.5 68c108.667 0 205.334 -22.667 290.001 -68s151.167 -111.333 199.5 -198s72.5 -192.667 72.5 -318zM483 569c0 -64.667 5.66504 -119.167 16.998 -163.5s29.5 -78 54.5 -101
s57.833 -34.5 98.5 -34.5s73 11.5 97 34.5s41.5 56.667 52.5 101s16.5 98.833 16.5 163.5s-5.5 118.667 -16.5 162s-28.667 76 -53 98s-57.166 33 -98.499 33c-59.333 0 -102.166 -24.667 -128.499 -74s-39.5 -122.333 -39.5 -219zM228.998 1237
c4 62.667 12.4971 115.668 25.4971 159.001s30 78.5 51 105.5s46.333 46.667 76 59s62.834 18.5 99.501 18.5c25.333 0 52.333 -4.83301 81 -14.5s57.667 -20.834 87 -33.501s58.166 -23.834 86.499 -33.501s55.5 -14.5 81.5 -14.5c12 0 25.167 5.66699 39.5 17
s24.833 38.333 31.5 81h183c-8.66699 -122.667 -35.5 -210.334 -80.5 -263.001s-100.167 -79 -165.5 -79c-30 0 -60.167 4.83301 -90.5 14.5s-60.166 20.834 -89.499 33.501s-57.666 23.834 -84.999 33.501s-53.666 14.5 -78.999 14.5c-12.667 0 -25.667 -5.33301 -39 -16
s-24.333 -38 -33 -82h-180z" />
    <glyph glyph-name="odieresis" unicode="&#xf6;" horiz-adv-x="1305" 
d="M1217 569c0 -94.667 -13 -178.667 -39 -252s-63.667 -135 -113 -185s-109 -87.833 -179 -113.5s-149 -38.5 -237 -38.5c-82 0 -157.167 12.833 -225.5 38.5s-127.833 63.5 -178.5 113.5s-89.834 111.667 -117.501 185s-41.5 157.333 -41.5 252
c0 125.333 22.833 231.333 68.5 318s111 152.667 196 198s186.5 68 304.5 68c108.667 0 205.334 -22.667 290.001 -68s151.167 -111.333 199.5 -198s72.5 -192.667 72.5 -318zM483 569c0 -64.667 5.66504 -119.167 16.998 -163.5s29.5 -78 54.5 -101
s57.833 -34.5 98.5 -34.5s73 11.5 97 34.5s41.5 56.667 52.5 101s16.5 98.833 16.5 163.5s-5.5 118.667 -16.5 162s-28.667 76 -53 98s-57.166 33 -98.499 33c-59.333 0 -102.166 -24.667 -128.499 -74s-39.5 -122.333 -39.5 -219zM240.998 1413
c0 54.667 16.333 94.667 49 120s73 38 121 38c46 0 86.167 -12.667 120.5 -38s51.5 -65.333 51.5 -120c0 -52.667 -17.167 -91.834 -51.5 -117.501s-74.5 -38.5 -120.5 -38.5c-48 0 -88.333 12.833 -121 38.5s-49 64.834 -49 117.501zM719.998 1413
c0 54.667 16.5 94.667 49.5 120s73.833 38 122.5 38c46.667 0 87.167 -12.667 121.5 -38s51.5 -65.333 51.5 -120c0 -52.667 -17.167 -91.834 -51.5 -117.501s-74.833 -38.5 -121.5 -38.5c-48.667 0 -89.5 12.833 -122.5 38.5s-49.5 64.834 -49.5 117.501z" />
    <glyph glyph-name="divide" unicode="&#xf7;" horiz-adv-x="1200" 
d="M92 588v268h1014v-268h-1014zM598 162c-42 0 -78.5 13.5 -109.5 40.5s-46.5 70.167 -46.5 129.5c0 63.333 15.5 107.5 46.5 132.5s67.5 37.5 109.5 37.5c41.333 0 78 -12.5 110 -37.5s48 -69.167 48 -132.5c0 -59.333 -16 -102.5 -48 -129.5s-68.667 -40.5 -110 -40.5z
M598 942c-42 0 -78.5 13.5 -109.5 40.5s-46.5 70.167 -46.5 129.5c0 63.333 15.5 107.5 46.5 132.5s67.5 37.5 109.5 37.5c41.333 0 78 -12.5 110 -37.5s48 -69.167 48 -132.5c0 -59.333 -16 -102.5 -48 -129.5s-68.667 -40.5 -110 -40.5z" />
    <glyph glyph-name="oslash" unicode="&#xf8;" horiz-adv-x="1362" 
d="M1274 569c0 -126 -23.832 -232.832 -71.499 -320.499s-116 -154.334 -205 -200.001s-195.5 -68.5 -319.5 -68.5c-40.667 0 -80.334 3 -119.001 9s-75.334 14.333 -110.001 25l-84 -131l-170 107l79 123c-58.667 50 -104.667 113.333 -138 190s-50 165.334 -50 266.001
c0 187.333 53 331.5 159 432.5s252.333 151.5 439 151.5c42 0 82.833 -3.33301 122.5 -10s76.834 -16.334 111.501 -29.001l71 111l168 -105l-67 -104c57.333 -48.667 102.333 -110.667 135 -186s49 -162.333 49 -261zM461.001 569.001c0 -28.667 0.832031 -55 2.49902 -79
s4.83398 -46.667 9.50098 -68l289 448c-12.667 4.66699 -25.667 8 -39 10s-27.666 3 -42.999 3c-80.667 0 -137.334 -26.5 -170.001 -79.5s-49 -131.167 -49 -234.5zM899 569.001c0 24.667 -0.666016 48.167 -1.99902 70.5s-4 42.5 -8 60.5l-283 -442
c11.333 -2.66699 23.166 -4.66699 35.499 -6s25.833 -2 40.5 -2c55.333 0 98.833 12 130.5 36s54 59.833 67 107.5s19.5 106.167 19.5 175.5z" />
    <glyph glyph-name="ugrave" unicode="&#xf9;" horiz-adv-x="1372" 
d="M1237 1133v-1133h-295l-49 141h-23c-23.333 -38 -52.833 -68.833 -88.5 -92.5s-75.167 -41 -118.5 -52s-88.333 -16.5 -135 -16.5c-74 0 -140.833 14.333 -200.5 43s-107 73.667 -142 135s-52.5 140.333 -52.5 237v738h391v-619c0 -73.333 10.5 -129.166 31.5 -167.499
s55.5 -57.5 103.5 -57.5c49.333 0 87.5 13.333 114.5 40s45.833 66 56.5 118s16 115.333 16 190v496h391zM684 1569c23.333 -30.667 51.167 -64.333 83.5 -101l97 -107.5l81.5 -90.5v-29h-260c-28 17.333 -61.333 39.333 -100 66l-121 84.5l-118.5 86l-92.5 70.5v21h430z
" />
    <glyph glyph-name="uacute" unicode="&#xfa;" horiz-adv-x="1372" 
d="M1237 1133v-1133h-295l-49 141h-23c-23.333 -38 -52.833 -68.833 -88.5 -92.5s-75.167 -41 -118.5 -52s-88.333 -16.5 -135 -16.5c-74 0 -140.833 14.333 -200.5 43s-107 73.667 -142 135s-52.5 140.333 -52.5 237v738h391v-619c0 -73.333 10.5 -129.166 31.5 -167.499
s55.5 -57.5 103.5 -57.5c49.333 0 87.5 13.333 114.5 40s45.833 66 56.5 118s16 115.333 16 190v496h391zM1173 1569v-21.001c-24 -19.333 -54.667 -42.833 -92 -70.5l-118.5 -86l-121 -84.5c-39 -26.667 -72.5 -48.667 -100.5 -66h-260v29l84 90.5l98 107.5
c32.667 36.667 60 70.334 82 101.001h428z" />
    <glyph glyph-name="ucircumflex" unicode="&#xfb;" horiz-adv-x="1372" 
d="M1237 1133v-1133h-295l-49 141h-23c-23.333 -38 -52.833 -68.833 -88.5 -92.5s-75.167 -41 -118.5 -52s-88.333 -16.5 -135 -16.5c-74 0 -140.833 14.333 -200.5 43s-107 73.667 -142 135s-52.5 140.333 -52.5 237v738h391v-619c0 -73.333 10.5 -129.166 31.5 -167.499
s55.5 -57.5 103.5 -57.5c49.333 0 87.5 13.333 114.5 40s45.833 66 56.5 118s16 115.333 16 190v496h391zM887 1569c21.333 -31.333 47.665 -65.833 78.998 -103.5s63 -73.834 95 -108.501l82 -87v-29h-254c-35.333 20.667 -68.666 43.167 -99.999 67.5
s-64.666 51.833 -99.999 82.5l-97.5 -81c-29 -23.333 -61.5 -46.333 -97.5 -69h-258v29c26 24.667 55.167 54.334 87.5 89.001s63.833 70.5 94.5 107.5s56 71.167 76 102.5h393z" />
    <glyph glyph-name="udieresis" unicode="&#xfc;" horiz-adv-x="1372" 
d="M1237 1133v-1133h-295l-49 141h-23c-23.333 -38 -52.833 -68.833 -88.5 -92.5s-75.167 -41 -118.5 -52s-88.333 -16.5 -135 -16.5c-74 0 -140.833 14.333 -200.5 43s-107 73.667 -142 135s-52.5 140.333 -52.5 237v738h391v-619c0 -73.333 10.5 -129.166 31.5 -167.499
s55.5 -57.5 103.5 -57.5c49.333 0 87.5 13.333 114.5 40s45.833 66 56.5 118s16 115.333 16 190v496h391zM274 1413c0 54.667 16.333 94.667 49 120s73 38 121 38c46 0 86.167 -12.667 120.5 -38s51.5 -65.333 51.5 -120c0 -52.667 -17.167 -91.834 -51.5 -117.501
s-74.5 -38.5 -120.5 -38.5c-48 0 -88.333 12.833 -121 38.5s-49 64.834 -49 117.501zM753 1413c0 54.667 16.5 94.667 49.5 120s73.833 38 122.5 38c46.667 0 87.167 -12.667 121.5 -38s51.5 -65.333 51.5 -120c0 -52.667 -17.167 -91.834 -51.5 -117.501
s-74.833 -38.5 -121.5 -38.5c-48.667 0 -89.5 12.833 -122.5 38.5s-49.5 64.834 -49.5 117.501z" />
    <glyph glyph-name="yacute" unicode="&#xfd;" horiz-adv-x="1249" 
d="M-2 1133l412.002 0.00292969l192 -650c2.66699 -9.33301 5.33398 -20.833 8.00098 -34.5s5 -28.167 7 -43.5s3.33301 -30.333 4 -45h8c3.33301 27.333 7.16602 51.166 11.499 71.499s8.5 36.833 12.5 49.5l197 652h399l-448 -1205
c-34.667 -92 -74.834 -169.167 -120.501 -231.5s-102 -109.333 -169 -141s-150.167 -47.5 -249.5 -47.5c-36 0 -66.833 1.83301 -92.5 5.5s-48.167 7.5 -67.5 11.5v307c14.667 -2.66699 32.667 -5.33398 54 -8.00098s43.666 -4 66.999 -4c43.333 0 78.5 8.66699 105.5 26
s49.167 40.166 66.5 68.499s32.333 58.833 45 91.5l4 10zM1112 1569v-21.001c-24 -19.333 -54.667 -42.833 -92 -70.5l-118.5 -86l-121 -84.5c-39 -26.667 -72.5 -48.667 -100.5 -66h-260v29l84 90.5l98 107.5c32.667 36.667 60 70.334 82 101.001h428z" />
    <glyph glyph-name="thorn" unicode="&#xfe;" horiz-adv-x="1317" 
d="M1229 569c0 -128.667 -18 -236.835 -54 -324.502s-85.333 -153.667 -148 -198s-134 -66.5 -214 -66.5c-46.667 0 -88 6.16699 -124 18.5s-67.333 28.333 -94 48s-49.667 40.5 -69 62.5h-14c2.66699 -13.333 5 -29.166 7 -47.499s3.66699 -36.666 5 -54.999
s2 -34.833 2 -49.5v-449h-391v2048h391v-344c0 -54.667 -2 -100.667 -6 -138s-8 -66.333 -12 -87h18c17.333 30.667 40 58.5 68 83.5s61.5 45 100.5 60s83.167 22.5 132.5 22.5c118 0 214.5 -49.5 289.5 -148.5s112.5 -244.167 112.5 -435.5zM831 572.999
c0 89.333 -11 157.167 -33 203.5s-60.667 69.5 -116 69.5c-56.667 0 -96.334 -20.5 -119.001 -61.5s-35 -102.5 -37 -184.5v-29c0 -90 11.833 -158.5 35.5 -205.5s65.834 -70.5 126.501 -70.5c36 0 64.333 10.5 85 31.5s35.5 52.167 44.5 93.5s13.5 92.333 13.5 153z" />
    <glyph glyph-name="ydieresis" unicode="&#xff;" horiz-adv-x="1249" 
d="M-2 1133l412.002 0.00292969l192 -650c2.66699 -9.33301 5.33398 -20.833 8.00098 -34.5s5 -28.167 7 -43.5s3.33301 -30.333 4 -45h8c3.33301 27.333 7.16602 51.166 11.499 71.499s8.5 36.833 12.5 49.5l197 652h399l-448 -1205
c-34.667 -92 -74.834 -169.167 -120.501 -231.5s-102 -109.333 -169 -141s-150.167 -47.5 -249.5 -47.5c-36 0 -66.833 1.83301 -92.5 5.5s-48.167 7.5 -67.5 11.5v307c14.667 -2.66699 32.667 -5.33398 54 -8.00098s43.666 -4 66.999 -4c43.333 0 78.5 8.66699 105.5 26
s49.167 40.166 66.5 68.499s32.333 58.833 45 91.5l4 10zM213.002 1413c0 54.667 16.333 94.667 49 120s73 38 121 38c46 0 86.167 -12.667 120.5 -38s51.5 -65.333 51.5 -120c0 -52.667 -17.167 -91.834 -51.5 -117.501s-74.5 -38.5 -120.5 -38.5
c-48 0 -88.333 12.833 -121 38.5s-49 64.834 -49 117.501zM692.002 1413c0 54.667 16.5 94.667 49.5 120s73.833 38 122.5 38c46.667 0 87.167 -12.667 121.5 -38s51.5 -65.333 51.5 -120c0 -52.667 -17.167 -91.834 -51.5 -117.501s-74.833 -38.5 -121.5 -38.5
c-48.667 0 -89.5 12.833 -122.5 38.5s-49.5 64.834 -49.5 117.501z" />
    <glyph glyph-name="Amacron" unicode="&#x100;" horiz-adv-x="1487" 
d="M1055 0l-72 274h-475l-74 -274h-434l477 1468h527l483 -1468h-432zM901 598l-62.999 240l-29 111.5l-37.5 150c-12.333 51.667 -21.833 94.167 -28.5 127.5c-6 -33.333 -14.5 -74.5 -25.5 -123.5l-34 -145.5c-11.667 -48 -21.834 -88 -30.501 -120l-63 -240h311z
M1114 1807v-236h-727v236h727z" />
    <glyph glyph-name="amacron" unicode="&#x101;" horiz-adv-x="1276" 
d="M688 1153c143.333 0 255.332 -35.498 335.999 -106.498s121 -172.167 121 -303.5v-743h-271l-75 150h-8c-32 -40 -64.833 -72.5 -98.5 -97.5s-72.167 -43.333 -115.5 -55s-96.333 -17.5 -159 -17.5c-65.333 0 -124 13.333 -176 40s-93 67 -123 121s-45 122.333 -45 205
c0 121.333 42 211.333 126 270s205.667 91.667 365 99l189 6v16c0 50.667 -12.5 86.667 -37.5 108s-58.5 32 -100.5 32c-44.667 0 -94.5 -7.83301 -149.5 -23.5s-110.167 -35.834 -165.5 -60.501l-113 258c65.333 33.333 139.333 58.666 222 75.999s175.334 26 278.001 26z
M755.999 506.002l-90 -4.00098c-72 -2.66699 -122.5 -15.167 -151.5 -37.5s-43.5 -54.166 -43.5 -95.499c0 -38.667 10.333 -67.167 31 -85.5s48 -27.5 82 -27.5c47.333 0 87.833 15 121.5 45s50.5 69 50.5 117v88zM1010 1477v-236h-727v236h727z" />
    <glyph glyph-name="Abreve" unicode="&#x102;" horiz-adv-x="1487" 
d="M1055 0l-72 274h-475l-74 -274h-434l477 1468h527l483 -1468h-432zM901 598l-62.999 240l-29 111.5l-37.5 150c-12.333 51.667 -21.833 94.167 -28.5 127.5c-6 -33.333 -14.5 -74.5 -25.5 -123.5l-34 -145.5c-11.667 -48 -21.834 -88 -30.501 -120l-63 -240h311z
M1153 1942c-4.66699 -74 -23.5 -138.833 -56.5 -194.5s-79.167 -99 -138.5 -130s-130.333 -46.5 -213 -46.5c-130 0 -228 33.167 -294 99.5s-101.667 156.833 -107 271.5h211c10 -38 22.5 -66.333 37.5 -85s34.833 -31 59.5 -37s55.667 -9 93 -9
c29.333 0 56.5 3.5 81.5 10.5s46.833 20 65.5 39s32.667 46.167 42 81.5h219z" />
    <glyph glyph-name="abreve" unicode="&#x103;" horiz-adv-x="1276" 
d="M688 1153c143.333 0 255.332 -35.498 335.999 -106.498s121 -172.167 121 -303.5v-743h-271l-75 150h-8c-32 -40 -64.833 -72.5 -98.5 -97.5s-72.167 -43.333 -115.5 -55s-96.333 -17.5 -159 -17.5c-65.333 0 -124 13.333 -176 40s-93 67 -123 121s-45 122.333 -45 205
c0 121.333 42 211.333 126 270s205.667 91.667 365 99l189 6v16c0 50.667 -12.5 86.667 -37.5 108s-58.5 32 -100.5 32c-44.667 0 -94.5 -7.83301 -149.5 -23.5s-110.167 -35.834 -165.5 -60.501l-113 258c65.333 33.333 139.333 58.666 222 75.999s175.334 26 278.001 26z
M755.999 506.002l-90 -4.00098c-72 -2.66699 -122.5 -15.167 -151.5 -37.5s-43.5 -54.166 -43.5 -95.499c0 -38.667 10.333 -67.167 31 -85.5s48 -27.5 82 -27.5c47.333 0 87.833 15 121.5 45s50.5 69 50.5 117v88zM1049 1612c-4.66699 -74 -23.5 -138.833 -56.5 -194.5
s-79.167 -99 -138.5 -130s-130.333 -46.5 -213 -46.5c-130 0 -228 33.167 -294 99.5s-101.667 156.833 -107 271.5h211c10 -38 22.5 -66.333 37.5 -85s34.833 -31 59.5 -37s55.667 -9 93 -9c29.333 0 56.5 3.5 81.5 10.5s46.833 20 65.5 39s32.667 46.167 42 81.5h219z" />
    <glyph glyph-name="Aogonek" unicode="&#x104;" horiz-adv-x="1487" 
d="M1055 0l-72 274h-475l-74 -274h-434l477 1468h527l483 -1468h-432zM901 598l-62.999 240l-29 111.5l-37.5 150c-12.333 51.667 -21.833 94.167 -28.5 127.5c-6 -33.333 -14.5 -74.5 -25.5 -123.5l-34 -145.5c-11.667 -48 -21.834 -88 -30.501 -120l-63 -240h311z
M1256 -199c0 -24.667 7.16504 -42 21.498 -52s33.166 -15 56.499 -15c17.333 0 37.833 2.16699 61.5 6.5s42.5 9.5 56.5 15.5v-221c-22.667 -6.66699 -48 -12.834 -76 -18.501s-60.667 -8.5 -98 -8.5c-77.333 0 -142.666 20.833 -195.999 62.5s-80 98.167 -80 169.5
c0 30.667 6.83301 62.167 20.5 94.5s37.334 66.333 71.001 102s80.834 73.834 141.501 114.501l154 -51c-46 -44 -79.667 -80.333 -101 -109s-32 -58.667 -32 -90z" />
    <glyph glyph-name="aogonek" unicode="&#x105;" horiz-adv-x="1276" 
d="M688 1153c143.333 0 255.332 -35.498 335.999 -106.498s121 -172.167 121 -303.5v-743h-271l-75 150h-8c-32 -40 -64.833 -72.5 -98.5 -97.5s-72.167 -43.333 -115.5 -55s-96.333 -17.5 -159 -17.5c-65.333 0 -124 13.333 -176 40s-93 67 -123 121s-45 122.333 -45 205
c0 121.333 42 211.333 126 270s205.667 91.667 365 99l189 6v16c0 50.667 -12.5 86.667 -37.5 108s-58.5 32 -100.5 32c-44.667 0 -94.5 -7.83301 -149.5 -23.5s-110.167 -35.834 -165.5 -60.501l-113 258c65.333 33.333 139.333 58.666 222 75.999s175.334 26 278.001 26z
M755.999 506.002l-90 -4.00098c-72 -2.66699 -122.5 -15.167 -151.5 -37.5s-43.5 -54.166 -43.5 -95.499c0 -38.667 10.333 -67.167 31 -85.5s48 -27.5 82 -27.5c47.333 0 87.833 15 121.5 45s50.5 69 50.5 117v88zM953.999 -198.999c0 -24.667 7.16504 -42 21.498 -52
s33.166 -15 56.499 -15c17.333 0 37.833 2.16699 61.5 6.5s42.5 9.5 56.5 15.5v-221c-22.667 -6.66699 -48 -12.834 -76 -18.501s-60.667 -8.5 -98 -8.5c-77.333 0 -142.666 20.833 -195.999 62.5s-80 98.167 -80 169.5c0 30.667 6.83301 62.167 20.5 94.5
s37.334 66.333 71.001 102s80.834 73.834 141.501 114.501l154 -51c-46 -44 -79.667 -80.333 -101 -109s-32 -58.667 -32 -90z" />
    <glyph glyph-name="Cacute" unicode="&#x106;" horiz-adv-x="1329" 
d="M809 1159c-46.667 0 -88.3301 -9.83105 -124.997 -29.498s-68 -48.167 -94 -85.5s-45.833 -82.833 -59.5 -136.5s-20.5 -114.5 -20.5 -182.5c0 -92 11.667 -169.333 35 -232s58.833 -110 106.5 -142s107.5 -48 179.5 -48c65.333 0 128.166 9 188.499 27
s121.166 39.667 182.499 65v-334c-64.667 -28.667 -130.834 -49.334 -198.501 -62.001s-139.5 -19 -215.5 -19c-158.667 0 -288.5 31.5 -389.5 94.5s-175.333 150.5 -223 262.5s-71.5 242 -71.5 390c0 110.667 15.5 212 46.5 304s76.5 171.833 136.5 239.5
s134.167 120 222.5 157s189.5 55.5 303.5 55.5c70.667 0 145.167 -8.16699 223.5 -24.5s154.833 -42.5 229.5 -78.5l-121 -311c-53.333 25.333 -107.333 46.666 -162 63.999s-112.667 26 -174 26zM1235 1899v-21.001c-24 -19.333 -54.667 -42.833 -92 -70.5l-118.5 -86
l-121 -84.5c-39 -26.667 -72.5 -48.667 -100.5 -66h-260v29l84 90.5l98 107.5c32.667 36.667 60 70.334 82 101.001h428z" />
    <glyph glyph-name="cacute" unicode="&#x107;" horiz-adv-x="1104" 
d="M651 -20c-114.667 0 -214.33 20.5029 -298.997 61.5029s-150.167 104.333 -196.5 190s-69.5 195.5 -69.5 329.5c0 137.333 25.833 249.666 77.5 336.999s122.5 151.666 212.5 192.999s192 62 306 62c69.333 0 135.166 -7.66699 197.499 -23s120.166 -36.333 173.499 -63
l-115 -289c-46.667 20.667 -90.167 37.167 -130.5 49.5s-82.166 18.5 -125.499 18.5c-39.333 0 -74 -10.333 -104 -31s-53.333 -51.834 -70 -93.501s-25 -94.5 -25 -158.5c0 -65.333 8.5 -118 25.5 -158s40.667 -69 71 -87s65.166 -27 104.499 -27
c56.667 0 113.167 8.83301 169.5 26.5s109.833 42.167 160.5 73.5v-311c-46.667 -30.667 -99.334 -55 -158.001 -73s-127 -27 -205 -27zM1087 1569v-21.001c-24 -19.333 -54.667 -42.833 -92 -70.5l-118.5 -86l-121 -84.5c-39 -26.667 -72.5 -48.667 -100.5 -66h-260v29
l84 90.5l98 107.5c32.667 36.667 60 70.334 82 101.001h428z" />
    <glyph glyph-name="Ccircumflex" unicode="&#x108;" horiz-adv-x="1329" 
d="M809 1159c-46.667 0 -88.3301 -9.83105 -124.997 -29.498s-68 -48.167 -94 -85.5s-45.833 -82.833 -59.5 -136.5s-20.5 -114.5 -20.5 -182.5c0 -92 11.667 -169.333 35 -232s58.833 -110 106.5 -142s107.5 -48 179.5 -48c65.333 0 128.166 9 188.499 27
s121.166 39.667 182.499 65v-334c-64.667 -28.667 -130.834 -49.334 -198.501 -62.001s-139.5 -19 -215.5 -19c-158.667 0 -288.5 31.5 -389.5 94.5s-175.333 150.5 -223 262.5s-71.5 242 -71.5 390c0 110.667 15.5 212 46.5 304s76.5 171.833 136.5 239.5
s134.167 120 222.5 157s189.5 55.5 303.5 55.5c70.667 0 145.167 -8.16699 223.5 -24.5s154.833 -42.5 229.5 -78.5l-121 -311c-53.333 25.333 -107.333 46.666 -162 63.999s-112.667 26 -174 26zM948.004 1899c21.333 -31.333 47.665 -65.833 78.998 -103.5
s63 -73.834 95 -108.501l82 -87v-29h-254c-35.333 20.667 -68.666 43.167 -99.999 67.5s-64.666 51.833 -99.999 82.5l-97.5 -81c-29 -23.333 -61.5 -46.333 -97.5 -69h-258v29c26 24.667 55.167 54.334 87.5 89.001s63.833 70.5 94.5 107.5s56 71.167 76 102.5h393z" />
    <glyph glyph-name="ccircumflex" unicode="&#x109;" horiz-adv-x="1104" 
d="M651 -20c-114.667 0 -214.33 20.5029 -298.997 61.5029s-150.167 104.333 -196.5 190s-69.5 195.5 -69.5 329.5c0 137.333 25.833 249.666 77.5 336.999s122.5 151.666 212.5 192.999s192 62 306 62c69.333 0 135.166 -7.66699 197.499 -23s120.166 -36.333 173.499 -63
l-115 -289c-46.667 20.667 -90.167 37.167 -130.5 49.5s-82.166 18.5 -125.499 18.5c-39.333 0 -74 -10.333 -104 -31s-53.333 -51.834 -70 -93.501s-25 -94.5 -25 -158.5c0 -65.333 8.5 -118 25.5 -158s40.667 -69 71 -87s65.166 -27 104.499 -27
c56.667 0 113.167 8.83301 169.5 26.5s109.833 42.167 160.5 73.5v-311c-46.667 -30.667 -99.334 -55 -158.001 -73s-127 -27 -205 -27zM801.004 1569c21.333 -31.333 47.665 -65.833 78.998 -103.5s63 -73.834 95 -108.501l82 -87v-29h-254
c-35.333 20.667 -68.666 43.167 -99.999 67.5s-64.666 51.833 -99.999 82.5l-97.5 -81c-29 -23.333 -61.5 -46.333 -97.5 -69h-258v29c26 24.667 55.167 54.334 87.5 89.001s63.833 70.5 94.5 107.5s56 71.167 76 102.5h393z" />
    <glyph glyph-name="Cdot" unicode="&#x10a;" horiz-adv-x="1329" 
d="M809 1159c-46.667 0 -88.3301 -9.83105 -124.997 -29.498s-68 -48.167 -94 -85.5s-45.833 -82.833 -59.5 -136.5s-20.5 -114.5 -20.5 -182.5c0 -92 11.667 -169.333 35 -232s58.833 -110 106.5 -142s107.5 -48 179.5 -48c65.333 0 128.166 9 188.499 27
s121.166 39.667 182.499 65v-334c-64.667 -28.667 -130.834 -49.334 -198.501 -62.001s-139.5 -19 -215.5 -19c-158.667 0 -288.5 31.5 -389.5 94.5s-175.333 150.5 -223 262.5s-71.5 242 -71.5 390c0 110.667 15.5 212 46.5 304s76.5 171.833 136.5 239.5
s134.167 120 222.5 157s189.5 55.5 303.5 55.5c70.667 0 145.167 -8.16699 223.5 -24.5s154.833 -42.5 229.5 -78.5l-121 -311c-53.333 25.333 -107.333 46.666 -162 63.999s-112.667 26 -174 26zM750.004 1919c56 0 104.833 -11.667 146.5 -35s62.5 -69.666 62.5 -138.999
c0 -67.333 -20.833 -112.833 -62.5 -136.5s-90.5 -35.5 -146.5 -35.5c-57.333 0 -106.166 11.833 -146.499 35.5s-60.5 69.167 -60.5 136.5c0 69.333 20.167 115.666 60.5 138.999s89.166 35 146.499 35z" />
    <glyph glyph-name="cdot" unicode="&#x10b;" horiz-adv-x="1104" 
d="M651 -20c-114.667 0 -214.33 20.5029 -298.997 61.5029s-150.167 104.333 -196.5 190s-69.5 195.5 -69.5 329.5c0 137.333 25.833 249.666 77.5 336.999s122.5 151.666 212.5 192.999s192 62 306 62c69.333 0 135.166 -7.66699 197.499 -23s120.166 -36.333 173.499 -63
l-115 -289c-46.667 20.667 -90.167 37.167 -130.5 49.5s-82.166 18.5 -125.499 18.5c-39.333 0 -74 -10.333 -104 -31s-53.333 -51.834 -70 -93.501s-25 -94.5 -25 -158.5c0 -65.333 8.5 -118 25.5 -158s40.667 -69 71 -87s65.166 -27 104.499 -27
c56.667 0 113.167 8.83301 169.5 26.5s109.833 42.167 160.5 73.5v-311c-46.667 -30.667 -99.334 -55 -158.001 -73s-127 -27 -205 -27zM602.004 1589c56 0 104.833 -11.667 146.5 -35s62.5 -69.666 62.5 -138.999c0 -67.333 -20.833 -112.833 -62.5 -136.5
s-90.5 -35.5 -146.5 -35.5c-57.333 0 -106.166 11.833 -146.499 35.5s-60.5 69.167 -60.5 136.5c0 69.333 20.167 115.666 60.5 138.999s89.166 35 146.499 35z" />
    <glyph glyph-name="Ccaron" unicode="&#x10c;" horiz-adv-x="1329" 
d="M809 1159c-46.667 0 -88.3301 -9.83105 -124.997 -29.498s-68 -48.167 -94 -85.5s-45.833 -82.833 -59.5 -136.5s-20.5 -114.5 -20.5 -182.5c0 -92 11.667 -169.333 35 -232s58.833 -110 106.5 -142s107.5 -48 179.5 -48c65.333 0 128.166 9 188.499 27
s121.166 39.667 182.499 65v-334c-64.667 -28.667 -130.834 -49.334 -198.501 -62.001s-139.5 -19 -215.5 -19c-158.667 0 -288.5 31.5 -389.5 94.5s-175.333 150.5 -223 262.5s-71.5 242 -71.5 390c0 110.667 15.5 212 46.5 304s76.5 171.833 136.5 239.5
s134.167 120 222.5 157s189.5 55.5 303.5 55.5c70.667 0 145.167 -8.16699 223.5 -24.5s154.833 -42.5 229.5 -78.5l-121 -311c-53.333 25.333 -107.333 46.666 -162 63.999s-112.667 26 -174 26zM555.004 1571c-20 31.333 -45.332 65.5 -75.999 102.5
s-62.167 72.833 -94.5 107.5s-61.5 64.334 -87.5 89.001v29h258c36 -22.667 68.5 -45.5 97.5 -68.5s61.5 -50.167 97.5 -81.5c35.333 31.333 68.666 59 99.999 83s64.666 46.333 99.999 67h254v-29l-82 -87c-32 -34.667 -63.667 -70.834 -95 -108.501
s-57.666 -72.167 -78.999 -103.5h-393z" />
    <glyph glyph-name="ccaron" unicode="&#x10d;" horiz-adv-x="1104" 
d="M651 -20c-114.667 0 -214.33 20.5029 -298.997 61.5029s-150.167 104.333 -196.5 190s-69.5 195.5 -69.5 329.5c0 137.333 25.833 249.666 77.5 336.999s122.5 151.666 212.5 192.999s192 62 306 62c69.333 0 135.166 -7.66699 197.499 -23s120.166 -36.333 173.499 -63
l-115 -289c-46.667 20.667 -90.167 37.167 -130.5 49.5s-82.166 18.5 -125.499 18.5c-39.333 0 -74 -10.333 -104 -31s-53.333 -51.834 -70 -93.501s-25 -94.5 -25 -158.5c0 -65.333 8.5 -118 25.5 -158s40.667 -69 71 -87s65.166 -27 104.499 -27
c56.667 0 113.167 8.83301 169.5 26.5s109.833 42.167 160.5 73.5v-311c-46.667 -30.667 -99.334 -55 -158.001 -73s-127 -27 -205 -27zM408.004 1241c-20 31.333 -45.332 65.5 -75.999 102.5s-62.167 72.833 -94.5 107.5s-61.5 64.334 -87.5 89.001v29h258
c36 -22.667 68.5 -45.5 97.5 -68.5s61.5 -50.167 97.5 -81.5c35.333 31.333 68.666 59 99.999 83s64.666 46.333 99.999 67h254v-29l-82 -87c-32 -34.667 -63.667 -70.834 -95 -108.501s-57.666 -72.167 -78.999 -103.5h-393z" />
    <glyph glyph-name="Dcaron" unicode="&#x10e;" horiz-adv-x="1503" 
d="M1399 762c0 -170 -31.666 -311.333 -94.999 -424s-152.5 -197.167 -267.5 -253.5s-250.167 -84.5 -405.5 -84.5h-473v1462h506c157.333 0 290.666 -27 399.999 -81s192.5 -133 249.5 -237s85.5 -231.333 85.5 -382zM989.001 748c0 88.667 -11.833 162.167 -35.5 220.5
s-59.167 102 -106.5 131s-107 43.5 -179 43.5h-115v-819h88c120 0 208 34.833 264 104.5s84 176.167 84 319.5zM559.001 1571c-20 31.333 -45.332 65.5 -75.999 102.5s-62.167 72.833 -94.5 107.5s-61.5 64.334 -87.5 89.001v29h258c36 -22.667 68.5 -45.5 97.5 -68.5
s61.5 -50.167 97.5 -81.5c35.333 31.333 68.666 59 99.999 83s64.666 46.333 99.999 67h254v-29l-82 -87c-32 -34.667 -63.667 -70.834 -95 -108.501s-57.666 -72.167 -78.999 -103.5h-393z" />
    <glyph glyph-name="dcaron" unicode="&#x10f;" horiz-adv-x="1317" 
d="M487 -20c-116.667 0 -212.668 49.6699 -288.001 149.003s-113 244.666 -113 435.999c0 193.333 38.667 339.666 116 438.999s177.333 149 300 149c50.667 0 94.334 -7.33301 131.001 -22s68.5 -34.5 95.5 -59.5s50.5 -53.167 70.5 -84.5h8
c-4.66699 28.667 -9 68.167 -13 118.5s-6 99.5 -6 147.5v303h394v-1556h-295l-84 143h-15c-18 -30 -40.5 -57.333 -67.5 -82s-59.667 -44.334 -98 -59.001s-83.5 -22 -135.5 -22zM646.999 289.003c62.667 0 106.834 19.832 132.501 59.499s39.5 100.167 41.5 181.5v31
c0 89.333 -12.5 157.833 -37.5 205.5s-71.833 71.5 -140.5 71.5c-46.667 0 -85.334 -22.667 -116.001 -68s-46 -115.666 -46 -210.999c0 -94 15.5 -162.5 46.5 -205.5s70.833 -64.5 119.5 -64.5zM1668 1556l0.00195312 -22l-55.5 -97l-56 -97l-67.5 -111h-233v28
c5.33301 20 10.666 42.667 15.999 68l16 78.5c5.33301 27 10.166 53.667 14.499 80s7.83301 50.5 10.5 72.5h355z" />
    <glyph glyph-name="Dcroat" unicode="&#x110;" horiz-adv-x="1503" 
d="M664 1462c157.333 0 290.667 -27 400 -81s192.5 -133 249.5 -237s85.5 -231.333 85.5 -382c0 -170 -31.667 -311.333 -95 -424s-152.5 -197.167 -267.5 -253.5s-250.167 -84.5 -405.5 -84.5h-473v563h-127v320h127v579h506zM668.001 1143h-115v-260h211v-320h-211v-239
h88c120 0 208 34.833 264 104.5s84 176.167 84 319.5c0 88.667 -11.833 162.167 -35.5 220.5s-59.167 102 -106.5 131s-107 43.5 -179 43.5z" />
    <glyph glyph-name="dcroat" unicode="&#x111;" horiz-adv-x="1358" 
d="M471 -20c-111.333 0 -203.334 45.5039 -276.001 136.504s-109 223.5 -109 397.5c0 184.667 39.667 320.667 119 408s180.333 131 303 131c51.333 0 96 -7.33301 134 -22s70.833 -34.334 98.5 -59.001s51.167 -52.334 70.5 -83.001h8
c-4 16.667 -10.167 50.167 -18.5 100.5s-12.5 106.166 -12.5 167.499v10h-231v242h231v147h394v-147h155v-242h-155v-1167h-320l-88 143h-14c-19.333 -30 -42.166 -57.333 -68.499 -82s-57.5 -44.334 -93.5 -59.001s-78.333 -22 -127 -22zM667.999 289.004
c56 0 95 16.3311 117 48.998s34 82.334 36 149.001v25c0 72.667 -14.5 128.334 -43.5 167.001s-67.5 58 -115.5 58c-40.667 0 -74.834 -16.5 -102.501 -49.5s-41.5 -92.167 -41.5 -177.5c0 -57.333 11.833 -108.5 35.5 -153.5s61.834 -67.5 114.501 -67.5z" />
    <glyph glyph-name="Emacron" unicode="&#x112;" horiz-adv-x="1124" 
d="M1026 0h-868v1462h868v-317h-473v-230h438v-317h-438v-276h473v-322zM963 1807v-236h-727v236h727z" />
    <glyph glyph-name="emacron" unicode="&#x113;" horiz-adv-x="1266" 
d="M645 1153c110 0 205.002 -19.167 285.002 -57.5s141.667 -95.833 185 -172.5s65 -172.667 65 -288v-174h-699c3.33301 -59.333 25.5 -108 66.5 -146s101.5 -57 181.5 -57c70.667 0 135.5 7 194.5 21s119.833 35.667 182.5 65v-281
c-54.667 -28.667 -114.334 -49.667 -179.001 -63s-146.334 -20 -245.001 -20c-114 0 -216 20.333 -306 61s-160.833 103.667 -212.5 189s-77.5 195 -77.5 329c0 136 23.333 247.833 70 335.5s112 152.667 196 195s181.667 63.5 293 63.5zM659.002 887
c-46 0 -84.499 -14.499 -115.499 -43.499s-49.167 -74.5 -54.5 -136.5h336c-0.666992 33.333 -7.33398 63.666 -20.001 90.999s-31.167 49 -55.5 65s-54.5 24 -90.5 24zM1004 1477v-236h-727v236h727z" />
    <glyph glyph-name="Ebreve" unicode="&#x114;" horiz-adv-x="1124" 
d="M1026 0h-868v1462h868v-317h-473v-230h438v-317h-438v-276h473v-322zM1002 1942c-4.66699 -74 -23.5 -138.833 -56.5 -194.5s-79.167 -99 -138.5 -130s-130.333 -46.5 -213 -46.5c-130 0 -228 33.167 -294 99.5s-101.667 156.833 -107 271.5h211
c10 -38 22.5 -66.333 37.5 -85s34.833 -31 59.5 -37s55.667 -9 93 -9c29.333 0 56.5 3.5 81.5 10.5s46.833 20 65.5 39s32.667 46.167 42 81.5h219z" />
    <glyph glyph-name="ebreve" unicode="&#x115;" horiz-adv-x="1266" 
d="M645 1153c110 0 205.002 -19.167 285.002 -57.5s141.667 -95.833 185 -172.5s65 -172.667 65 -288v-174h-699c3.33301 -59.333 25.5 -108 66.5 -146s101.5 -57 181.5 -57c70.667 0 135.5 7 194.5 21s119.833 35.667 182.5 65v-281
c-54.667 -28.667 -114.334 -49.667 -179.001 -63s-146.334 -20 -245.001 -20c-114 0 -216 20.333 -306 61s-160.833 103.667 -212.5 189s-77.5 195 -77.5 329c0 136 23.333 247.833 70 335.5s112 152.667 196 195s181.667 63.5 293 63.5zM659.002 887
c-46 0 -84.499 -14.499 -115.499 -43.499s-49.167 -74.5 -54.5 -136.5h336c-0.666992 33.333 -7.33398 63.666 -20.001 90.999s-31.167 49 -55.5 65s-54.5 24 -90.5 24zM1043 1612c-4.66699 -74 -23.5 -138.833 -56.5 -194.5s-79.167 -99 -138.5 -130
s-130.333 -46.5 -213 -46.5c-130 0 -228 33.167 -294 99.5s-101.667 156.833 -107 271.5h211c10 -38 22.5 -66.333 37.5 -85s34.833 -31 59.5 -37s55.667 -9 93 -9c29.333 0 56.5 3.5 81.5 10.5s46.833 20 65.5 39s32.667 46.167 42 81.5h219z" />
    <glyph glyph-name="Edotaccent" unicode="&#x116;" horiz-adv-x="1124" 
d="M1026 0h-868v1462h868v-317h-473v-230h438v-317h-438v-276h473v-322zM594 1919c56 0 104.833 -11.667 146.5 -35s62.5 -69.666 62.5 -138.999c0 -67.333 -20.833 -112.833 -62.5 -136.5s-90.5 -35.5 -146.5 -35.5c-57.333 0 -106.166 11.833 -146.499 35.5
s-60.5 69.167 -60.5 136.5c0 69.333 20.167 115.666 60.5 138.999s89.166 35 146.499 35z" />
    <glyph glyph-name="edotaccent" unicode="&#x117;" horiz-adv-x="1266" 
d="M645 1153c110 0 205.002 -19.167 285.002 -57.5s141.667 -95.833 185 -172.5s65 -172.667 65 -288v-174h-699c3.33301 -59.333 25.5 -108 66.5 -146s101.5 -57 181.5 -57c70.667 0 135.5 7 194.5 21s119.833 35.667 182.5 65v-281
c-54.667 -28.667 -114.334 -49.667 -179.001 -63s-146.334 -20 -245.001 -20c-114 0 -216 20.333 -306 61s-160.833 103.667 -212.5 189s-77.5 195 -77.5 329c0 136 23.333 247.833 70 335.5s112 152.667 196 195s181.667 63.5 293 63.5zM659.002 887
c-46 0 -84.499 -14.499 -115.499 -43.499s-49.167 -74.5 -54.5 -136.5h336c-0.666992 33.333 -7.33398 63.666 -20.001 90.999s-31.167 49 -55.5 65s-54.5 24 -90.5 24zM635.003 1589c56 0 104.833 -11.667 146.5 -35s62.5 -69.666 62.5 -138.999
c0 -67.333 -20.833 -112.833 -62.5 -136.5s-90.5 -35.5 -146.5 -35.5c-57.333 0 -106.166 11.833 -146.499 35.5s-60.5 69.167 -60.5 136.5c0 69.333 20.167 115.666 60.5 138.999s89.166 35 146.499 35z" />
    <glyph glyph-name="Eogonek" unicode="&#x118;" horiz-adv-x="1124" 
d="M1026 0h-868v1462h868v-317h-473v-230h438v-317h-438v-276h473v-322zM834 -199c0 -24.667 7.16504 -42 21.498 -52s33.166 -15 56.499 -15c17.333 0 37.833 2.16699 61.5 6.5s42.5 9.5 56.5 15.5v-221c-22.667 -6.66699 -48 -12.834 -76 -18.501s-60.667 -8.5 -98 -8.5
c-77.333 0 -142.666 20.833 -195.999 62.5s-80 98.167 -80 169.5c0 30.667 6.83301 62.167 20.5 94.5s37.334 66.333 71.001 102s80.834 73.834 141.501 114.501l154 -51c-46 -44 -79.667 -80.333 -101 -109s-32 -58.667 -32 -90z" />
    <glyph glyph-name="eogonek" unicode="&#x119;" horiz-adv-x="1266" 
d="M915 -186c0 -26 8.16504 -45.832 24.498 -59.499s36.166 -20.5 59.499 -20.5c20.667 0 41 2.16699 61 6.5s37.333 9.5 52 15.5v-221c-22.667 -6.66699 -48 -12.834 -76 -18.501s-60.667 -8.5 -98 -8.5c-78 0 -143.5 20.833 -196.5 62.5s-79.5 98.167 -79.5 169.5
c0 30.667 6.83301 62.167 20.5 94.5s37.334 66.333 71.001 102s80.834 73.834 141.501 114.501l211 12c-55.333 -46.667 -96.666 -84.834 -123.999 -114.501s-45.333 -54.5 -54 -74.5s-13 -40 -13 -60zM644.998 1153c110 0 205.002 -19.167 285.002 -57.5
s141.667 -95.833 185 -172.5s65 -172.667 65 -288v-174h-699c3.33301 -59.333 25.5 -108 66.5 -146s101.5 -57 181.5 -57c70.667 0 135.5 7 194.5 21s119.833 35.667 182.5 65v-281c-54.667 -28.667 -114.334 -49.667 -179.001 -63s-146.334 -20 -245.001 -20
c-114 0 -216 20.333 -306 61s-160.833 103.667 -212.5 189s-77.5 195 -77.5 329c0 136 23.333 247.833 70 335.5s112 152.667 196 195s181.667 63.5 293 63.5zM659 887.001c-46 0 -84.499 -14.499 -115.499 -43.499s-49.167 -74.5 -54.5 -136.5h336
c-0.666992 33.333 -7.33398 63.666 -20.001 90.999s-31.167 49 -55.5 65s-54.5 24 -90.5 24z" />
    <glyph glyph-name="Ecaron" unicode="&#x11a;" horiz-adv-x="1124" 
d="M1026 0h-868v1462h868v-317h-473v-230h438v-317h-438v-276h473v-322zM399 1571c-20 31.333 -45.332 65.5 -75.999 102.5s-62.167 72.833 -94.5 107.5s-61.5 64.334 -87.5 89.001v29h258c36 -22.667 68.5 -45.5 97.5 -68.5s61.5 -50.167 97.5 -81.5
c35.333 31.333 68.666 59 99.999 83s64.666 46.333 99.999 67h254v-29l-82 -87c-32 -34.667 -63.667 -70.834 -95 -108.501s-57.666 -72.167 -78.999 -103.5h-393z" />
    <glyph glyph-name="ecaron" unicode="&#x11b;" horiz-adv-x="1266" 
d="M645 1153c110 0 205.002 -19.167 285.002 -57.5s141.667 -95.833 185 -172.5s65 -172.667 65 -288v-174h-699c3.33301 -59.333 25.5 -108 66.5 -146s101.5 -57 181.5 -57c70.667 0 135.5 7 194.5 21s119.833 35.667 182.5 65v-281
c-54.667 -28.667 -114.334 -49.667 -179.001 -63s-146.334 -20 -245.001 -20c-114 0 -216 20.333 -306 61s-160.833 103.667 -212.5 189s-77.5 195 -77.5 329c0 136 23.333 247.833 70 335.5s112 152.667 196 195s181.667 63.5 293 63.5zM659.002 887
c-46 0 -84.499 -14.499 -115.499 -43.499s-49.167 -74.5 -54.5 -136.5h336c-0.666992 33.333 -7.33398 63.666 -20.001 90.999s-31.167 49 -55.5 65s-54.5 24 -90.5 24zM440.003 1241c-20 31.333 -45.332 65.5 -75.999 102.5s-62.167 72.833 -94.5 107.5
s-61.5 64.334 -87.5 89.001v29h258c36 -22.667 68.5 -45.5 97.5 -68.5s61.5 -50.167 97.5 -81.5c35.333 31.333 68.666 59 99.999 83s64.666 46.333 99.999 67h254v-29l-82 -87c-32 -34.667 -63.667 -70.834 -95 -108.501s-57.666 -72.167 -78.999 -103.5h-393z" />
    <glyph glyph-name="Gcircumflex" unicode="&#x11c;" horiz-adv-x="1516" 
d="M745 856l630.998 -0.00292969v-788c-75.333 -26 -161.666 -47.167 -258.999 -63.5s-199.333 -24.5 -306 -24.5c-140.667 0 -264 27.333 -370 82s-188.667 137.834 -248 249.501s-89 252.834 -89 423.501c0 153.333 29.333 285.833 88 397.5s145.167 198 259.5 259
s254.5 91.5 420.5 91.5c91.333 0 178 -8.66699 260 -26s153.333 -39.333 214 -66l-125 -310c-52.667 26 -107.334 45.5 -164.001 58.5s-117.667 19.5 -183 19.5c-87.333 0 -157.5 -19.667 -210.5 -59s-91.5 -91.833 -115.5 -157.5s-36 -138.167 -36 -217.5
c0 -90.667 12.833 -167.167 38.5 -229.5s63.334 -109.666 113.001 -141.999s109.834 -48.5 180.501 -48.5c23.333 0 51.833 1.66699 85.5 5s59.167 7.33301 76.5 12v229h-261v305zM1022 1899c21.333 -31.333 47.665 -65.833 78.998 -103.5s63 -73.834 95 -108.501l82 -87
v-29h-254c-35.333 20.667 -68.666 43.167 -99.999 67.5s-64.666 51.833 -99.999 82.5l-97.5 -81c-29 -23.333 -61.5 -46.333 -97.5 -69h-258v29c26 24.667 55.167 54.334 87.5 89.001s63.833 70.5 94.5 107.5s56 71.167 76 102.5h393z" />
    <glyph glyph-name="gcircumflex" unicode="&#x11d;" horiz-adv-x="1241" 
d="M522 -492c-160.667 0 -284.494 26.8301 -371.494 80.4971s-130.5 130.834 -130.5 231.501c0 67.333 21 123 63 167s105 75.667 189 95c-34.667 14.667 -64.834 38.334 -90.501 71.001s-38.5 65 -38.5 97c0 35.333 9.66699 66.5 29 93.5s59.666 59.167 120.999 96.5
c-58.667 26 -104.834 66.667 -138.501 122s-50.5 122.666 -50.5 201.999c0 82 18.833 152 56.5 210s92.667 102.333 165 133s160.5 46 264.5 46c14 0 35.333 -1.16699 64 -3.5s57.667 -5 87 -8s52 -5.83301 68 -8.5h395v-189l-155 -57c10.667 -19.333 18.667 -40.333 24 -63
s8 -46.667 8 -72c0 -122 -42.833 -216.667 -128.5 -284s-213.5 -101 -383.5 -101c-42 0 -75.333 2.66699 -100 8c-4.66699 -8.66699 -8.16699 -17.167 -10.5 -25.5s-3.5 -16.166 -3.5 -23.499c0 -15.333 9.16699 -27.5 27.5 -36.5s40.666 -15.167 66.999 -18.5
s51.5 -5 75.5 -5h188c127.333 0 222.666 -26.667 285.999 -80s95 -133.666 95 -240.999c0 -138 -58.833 -245.333 -176.5 -322s-282.834 -115 -495.501 -115zM541.006 -248.003c47.333 0 95 4.16504 143 12.498s88.333 21.833 121 40.5s49 43.334 49 74.001
c0 23.333 -9.66699 40.833 -29 52.5s-44.333 19.5 -75 23.5s-63 6 -97 6h-152c-28 0 -53.5 -4.5 -76.5 -13.5s-41.167 -21.167 -54.5 -36.5s-20 -32.666 -20 -51.999c0 -32 17.333 -57.833 52 -77.5s81 -29.5 139 -29.5zM594.006 587.995c37.333 0 66.166 14.333 86.499 43
s30.5 71.667 30.5 129c0 58.667 -9.66699 102.667 -29 132s-48.666 44 -87.999 44c-40.667 0 -71 -14.5 -91 -43.5s-30 -72.5 -30 -130.5s10 -101.5 30 -130.5s50.333 -43.5 91 -43.5zM791.006 1569c21.333 -31.333 47.665 -65.833 78.998 -103.5s63 -73.834 95 -108.501
l82 -87v-29h-254c-35.333 20.667 -68.666 43.167 -99.999 67.5s-64.666 51.833 -99.999 82.5l-97.5 -81c-29 -23.333 -61.5 -46.333 -97.5 -69h-258v29c26 24.667 55.167 54.334 87.5 89.001s63.833 70.5 94.5 107.5s56 71.167 76 102.5h393z" />
    <glyph glyph-name="Gbreve" unicode="&#x11e;" horiz-adv-x="1516" 
d="M745 856l630.998 -0.00292969v-788c-75.333 -26 -161.666 -47.167 -258.999 -63.5s-199.333 -24.5 -306 -24.5c-140.667 0 -264 27.333 -370 82s-188.667 137.834 -248 249.501s-89 252.834 -89 423.501c0 153.333 29.333 285.833 88 397.5s145.167 198 259.5 259
s254.5 91.5 420.5 91.5c91.333 0 178 -8.66699 260 -26s153.333 -39.333 214 -66l-125 -310c-52.667 26 -107.334 45.5 -164.001 58.5s-117.667 19.5 -183 19.5c-87.333 0 -157.5 -19.667 -210.5 -59s-91.5 -91.833 -115.5 -157.5s-36 -138.167 -36 -217.5
c0 -90.667 12.833 -167.167 38.5 -229.5s63.334 -109.666 113.001 -141.999s109.834 -48.5 180.501 -48.5c23.333 0 51.833 1.66699 85.5 5s59.167 7.33301 76.5 12v229h-261v305zM1231 1942c-4.66699 -74 -23.5 -138.833 -56.5 -194.5s-79.167 -99 -138.5 -130
s-130.333 -46.5 -213 -46.5c-130 0 -228 33.167 -294 99.5s-101.667 156.833 -107 271.5h211c10 -38 22.5 -66.333 37.5 -85s34.833 -31 59.5 -37s55.667 -9 93 -9c29.333 0 56.5 3.5 81.5 10.5s46.833 20 65.5 39s32.667 46.167 42 81.5h219z" />
    <glyph glyph-name="gbreve" unicode="&#x11f;" horiz-adv-x="1241" 
d="M522 -492c-160.667 0 -284.494 26.8301 -371.494 80.4971s-130.5 130.834 -130.5 231.501c0 67.333 21 123 63 167s105 75.667 189 95c-34.667 14.667 -64.834 38.334 -90.501 71.001s-38.5 65 -38.5 97c0 35.333 9.66699 66.5 29 93.5s59.666 59.167 120.999 96.5
c-58.667 26 -104.834 66.667 -138.501 122s-50.5 122.666 -50.5 201.999c0 82 18.833 152 56.5 210s92.667 102.333 165 133s160.5 46 264.5 46c14 0 35.333 -1.16699 64 -3.5s57.667 -5 87 -8s52 -5.83301 68 -8.5h395v-189l-155 -57c10.667 -19.333 18.667 -40.333 24 -63
s8 -46.667 8 -72c0 -122 -42.833 -216.667 -128.5 -284s-213.5 -101 -383.5 -101c-42 0 -75.333 2.66699 -100 8c-4.66699 -8.66699 -8.16699 -17.167 -10.5 -25.5s-3.5 -16.166 -3.5 -23.499c0 -15.333 9.16699 -27.5 27.5 -36.5s40.666 -15.167 66.999 -18.5
s51.5 -5 75.5 -5h188c127.333 0 222.666 -26.667 285.999 -80s95 -133.666 95 -240.999c0 -138 -58.833 -245.333 -176.5 -322s-282.834 -115 -495.501 -115zM541.006 -248.003c47.333 0 95 4.16504 143 12.498s88.333 21.833 121 40.5s49 43.334 49 74.001
c0 23.333 -9.66699 40.833 -29 52.5s-44.333 19.5 -75 23.5s-63 6 -97 6h-152c-28 0 -53.5 -4.5 -76.5 -13.5s-41.167 -21.167 -54.5 -36.5s-20 -32.666 -20 -51.999c0 -32 17.333 -57.833 52 -77.5s81 -29.5 139 -29.5zM594.006 587.995c37.333 0 66.166 14.333 86.499 43
s30.5 71.667 30.5 129c0 58.667 -9.66699 102.667 -29 132s-48.666 44 -87.999 44c-40.667 0 -71 -14.5 -91 -43.5s-30 -72.5 -30 -130.5s10 -101.5 30 -130.5s50.333 -43.5 91 -43.5zM997.006 1612c-4.66699 -74 -23.5 -138.833 -56.5 -194.5s-79.167 -99 -138.5 -130
s-130.333 -46.5 -213 -46.5c-130 0 -228 33.167 -294 99.5s-101.667 156.833 -107 271.5h211c10 -38 22.5 -66.333 37.5 -85s34.833 -31 59.5 -37s55.667 -9 93 -9c29.333 0 56.5 3.5 81.5 10.5s46.833 20 65.5 39s32.667 46.167 42 81.5h219z" />
    <glyph glyph-name="Gdot" unicode="&#x120;" horiz-adv-x="1516" 
d="M745 856l630.998 -0.00292969v-788c-75.333 -26 -161.666 -47.167 -258.999 -63.5s-199.333 -24.5 -306 -24.5c-140.667 0 -264 27.333 -370 82s-188.667 137.834 -248 249.501s-89 252.834 -89 423.501c0 153.333 29.333 285.833 88 397.5s145.167 198 259.5 259
s254.5 91.5 420.5 91.5c91.333 0 178 -8.66699 260 -26s153.333 -39.333 214 -66l-125 -310c-52.667 26 -107.334 45.5 -164.001 58.5s-117.667 19.5 -183 19.5c-87.333 0 -157.5 -19.667 -210.5 -59s-91.5 -91.833 -115.5 -157.5s-36 -138.167 -36 -217.5
c0 -90.667 12.833 -167.167 38.5 -229.5s63.334 -109.666 113.001 -141.999s109.834 -48.5 180.501 -48.5c23.333 0 51.833 1.66699 85.5 5s59.167 7.33301 76.5 12v229h-261v305zM823.998 1919c56 0 104.833 -11.667 146.5 -35s62.5 -69.666 62.5 -138.999
c0 -67.333 -20.833 -112.833 -62.5 -136.5s-90.5 -35.5 -146.5 -35.5c-57.333 0 -106.166 11.833 -146.499 35.5s-60.5 69.167 -60.5 136.5c0 69.333 20.167 115.666 60.5 138.999s89.166 35 146.499 35z" />
    <glyph glyph-name="gdot" unicode="&#x121;" horiz-adv-x="1241" 
d="M522 -492c-160.667 0 -284.494 26.8301 -371.494 80.4971s-130.5 130.834 -130.5 231.501c0 67.333 21 123 63 167s105 75.667 189 95c-34.667 14.667 -64.834 38.334 -90.501 71.001s-38.5 65 -38.5 97c0 35.333 9.66699 66.5 29 93.5s59.666 59.167 120.999 96.5
c-58.667 26 -104.834 66.667 -138.501 122s-50.5 122.666 -50.5 201.999c0 82 18.833 152 56.5 210s92.667 102.333 165 133s160.5 46 264.5 46c14 0 35.333 -1.16699 64 -3.5s57.667 -5 87 -8s52 -5.83301 68 -8.5h395v-189l-155 -57c10.667 -19.333 18.667 -40.333 24 -63
s8 -46.667 8 -72c0 -122 -42.833 -216.667 -128.5 -284s-213.5 -101 -383.5 -101c-42 0 -75.333 2.66699 -100 8c-4.66699 -8.66699 -8.16699 -17.167 -10.5 -25.5s-3.5 -16.166 -3.5 -23.499c0 -15.333 9.16699 -27.5 27.5 -36.5s40.666 -15.167 66.999 -18.5
s51.5 -5 75.5 -5h188c127.333 0 222.666 -26.667 285.999 -80s95 -133.666 95 -240.999c0 -138 -58.833 -245.333 -176.5 -322s-282.834 -115 -495.501 -115zM541.006 -248.003c47.333 0 95 4.16504 143 12.498s88.333 21.833 121 40.5s49 43.334 49 74.001
c0 23.333 -9.66699 40.833 -29 52.5s-44.333 19.5 -75 23.5s-63 6 -97 6h-152c-28 0 -53.5 -4.5 -76.5 -13.5s-41.167 -21.167 -54.5 -36.5s-20 -32.666 -20 -51.999c0 -32 17.333 -57.833 52 -77.5s81 -29.5 139 -29.5zM594.006 587.995c37.333 0 66.166 14.333 86.499 43
s30.5 71.667 30.5 129c0 58.667 -9.66699 102.667 -29 132s-48.666 44 -87.999 44c-40.667 0 -71 -14.5 -91 -43.5s-30 -72.5 -30 -130.5s10 -101.5 30 -130.5s50.333 -43.5 91 -43.5zM593.006 1589c56 0 104.833 -11.667 146.5 -35s62.5 -69.666 62.5 -138.999
c0 -67.333 -20.833 -112.833 -62.5 -136.5s-90.5 -35.5 -146.5 -35.5c-57.333 0 -106.166 11.833 -146.499 35.5s-60.5 69.167 -60.5 136.5c0 69.333 20.167 115.666 60.5 138.999s89.166 35 146.499 35z" />
    <glyph glyph-name="uni0122" unicode="&#x122;" horiz-adv-x="1516" 
d="M745 856l630.998 -0.00292969v-788c-75.333 -26 -161.666 -47.167 -258.999 -63.5s-199.333 -24.5 -306 -24.5c-140.667 0 -264 27.333 -370 82s-188.667 137.834 -248 249.501s-89 252.834 -89 423.501c0 153.333 29.333 285.833 88 397.5s145.167 198 259.5 259
s254.5 91.5 420.5 91.5c91.333 0 178 -8.66699 260 -26s153.333 -39.333 214 -66l-125 -310c-52.667 26 -107.334 45.5 -164.001 58.5s-117.667 19.5 -183 19.5c-87.333 0 -157.5 -19.667 -210.5 -59s-91.5 -91.833 -115.5 -157.5s-36 -138.167 -36 -217.5
c0 -90.667 12.833 -167.167 38.5 -229.5s63.334 -109.666 113.001 -141.999s109.834 -48.5 180.501 -48.5c23.333 0 51.833 1.66699 85.5 5s59.167 7.33301 76.5 12v229h-261v305zM976.998 -125.003l-0.00195312 -22.002c-16 -36.667 -32 -71.334 -48 -104.001
s-33.5 -65.167 -52.5 -97.5s-41.5 -67.166 -67.5 -104.499h-234v29c8 28.667 15.333 61.334 22 98.001s12.334 72.834 17.001 108.501s7.33398 66.5 8.00098 92.5h355z" />
    <glyph glyph-name="uni0123" unicode="&#x123;" horiz-adv-x="1241" 
d="M779 1558v-29.002l-17 -96c-6 -35.333 -11.5 -70.666 -16.5 -105.999s-8.83301 -67.666 -11.5 -96.999h-357v23l55 97l54 97.5l61 110.5h232zM522 -492.002c-160.667 0 -284.494 26.8301 -371.494 80.4971s-130.5 130.834 -130.5 231.501c0 67.333 21 123 63 167
s105 75.667 189 95c-34.667 14.667 -64.834 38.334 -90.501 71.001s-38.5 65 -38.5 97c0 35.333 9.66699 66.5 29 93.5s59.666 59.167 120.999 96.5c-58.667 26 -104.834 66.667 -138.501 122s-50.5 122.666 -50.5 201.999c0 82 18.833 152 56.5 210s92.667 102.333 165 133
s160.5 46 264.5 46c14 0 35.333 -1.16699 64 -3.5s57.667 -5 87 -8s52 -5.83301 68 -8.5h395v-189l-155 -57c10.667 -19.333 18.667 -40.333 24 -63s8 -46.667 8 -72c0 -122 -42.833 -216.667 -128.5 -284s-213.5 -101 -383.5 -101c-42 0 -75.333 2.66699 -100 8
c-4.66699 -8.66699 -8.16699 -17.167 -10.5 -25.5s-3.5 -16.166 -3.5 -23.499c0 -15.333 9.16699 -27.5 27.5 -36.5s40.666 -15.167 66.999 -18.5s51.5 -5 75.5 -5h188c127.333 0 222.666 -26.667 285.999 -80s95 -133.666 95 -240.999c0 -138 -58.833 -245.333 -176.5 -322
s-282.834 -115 -495.501 -115zM541.006 -248.005c47.333 0 95 4.16504 143 12.498s88.333 21.833 121 40.5s49 43.334 49 74.001c0 23.333 -9.66699 40.833 -29 52.5s-44.333 19.5 -75 23.5s-63 6 -97 6h-152c-28 0 -53.5 -4.5 -76.5 -13.5s-41.167 -21.167 -54.5 -36.5
s-20 -32.666 -20 -51.999c0 -32 17.333 -57.833 52 -77.5s81 -29.5 139 -29.5zM594.006 587.993c37.333 0 66.166 14.333 86.499 43s30.5 71.667 30.5 129c0 58.667 -9.66699 102.667 -29 132s-48.666 44 -87.999 44c-40.667 0 -71 -14.5 -91 -43.5s-30 -72.5 -30 -130.5
s10 -101.5 30 -130.5s50.333 -43.5 91 -43.5z" />
    <glyph glyph-name="Hcircumflex" unicode="&#x124;" horiz-adv-x="1569" 
d="M1411 0h-397v596h-459v-596h-397v1462h397v-542h459v542h397v-1462zM985 1899c21.333 -31.333 47.665 -65.833 78.998 -103.5s63 -73.834 95 -108.501l82 -87v-29h-254c-35.333 20.667 -68.666 43.167 -99.999 67.5s-64.666 51.833 -99.999 82.5l-97.5 -81
c-29 -23.333 -61.5 -46.333 -97.5 -69h-258v29c26 24.667 55.167 54.334 87.5 89.001s63.833 70.5 94.5 107.5s56 71.167 76 102.5h393z" />
    <glyph glyph-name="hcircumflex" unicode="&#x125;" horiz-adv-x="1372" 
d="M526 1556l-0.00195312 -220.996c0 -84 -1.83301 -154.5 -5.5 -211.5s-7.16699 -100.5 -10.5 -130.5h18c24.667 39.333 52.667 70.666 84 93.999s66 40.166 104 50.499s79.333 15.5 124 15.5c74.667 0 142.167 -14.333 202.5 -43s108.5 -73.5 144.5 -134.5
s54 -140.5 54 -238.5v-737h-393v618c0 75.333 -11 132.166 -33 170.499s-56 57.5 -102 57.5c-47.333 0 -84.666 -13.5 -111.999 -40.5s-46.666 -66.333 -57.999 -118s-17 -114.834 -17 -189.501v-498h-391v1556h391zM535.998 1993
c21.333 -31.333 47.665 -65.833 78.998 -103.5s63 -73.834 95 -108.501l82 -87v-29h-254c-35.333 20.667 -68.666 43.167 -99.999 67.5s-64.666 51.833 -99.999 82.5l-97.5 -81c-29 -23.333 -61.5 -46.333 -97.5 -69h-258v29c26 24.667 55.167 54.334 87.5 89.001
s63.833 70.5 94.5 107.5s56 71.167 76 102.5h393z" />
    <glyph glyph-name="Hbar" unicode="&#x126;" horiz-adv-x="1602" 
d="M174 0v1067h-174v233h174v162h395v-162h461v162h397v-162h175v-233h-175v-1067h-397v596h-461v-596h-395zM569 920h461v147h-461v-147z" />
    <glyph glyph-name="hbar" unicode="&#x127;" horiz-adv-x="1393" 
d="M547 1556v-147.001h233v-242h-235v-41c0 -31.333 -1.66699 -70.166 -5 -116.499s-6.66602 -85.166 -9.99902 -116.499h23c24.667 38.667 52.167 69.667 82.5 93s64.333 40.333 102 51s79.167 16 124.5 16c75.333 0 143.166 -14.5 203.499 -43.5
s108.166 -73.833 143.499 -134.5s53 -139.334 53 -236.001v-639h-394v518c0 75.333 -11 132 -33 170s-56 57 -102 57c-46.667 0 -83.667 -13.5 -111 -40.5s-46.666 -66.5 -57.999 -118.5s-17 -115.667 -17 -191v-395h-391v1167h-156v242h156v147h391z" />
    <glyph glyph-name="Itilde" unicode="&#x128;" horiz-adv-x="713" 
d="M158 0v1462h397v-1462h-397zM-64 1567c4 62.667 12.4971 115.668 25.4971 159.001s30 78.5 51 105.5s46.333 46.667 76 59s62.834 18.5 99.501 18.5c25.333 0 52.333 -4.83301 81 -14.5s57.667 -20.834 87 -33.501s58.166 -23.834 86.499 -33.501s55.5 -14.5 81.5 -14.5
c12 0 25.167 5.66699 39.5 17s24.833 38.333 31.5 81h183c-8.66699 -122.667 -35.5 -210.334 -80.5 -263.001s-100.167 -79 -165.5 -79c-30 0 -60.167 4.83301 -90.5 14.5s-60.166 20.834 -89.499 33.501s-57.666 23.834 -84.999 33.501s-53.666 14.5 -78.999 14.5
c-12.667 0 -25.667 -5.33301 -39 -16s-24.333 -38 -33 -82h-180z" />
    <glyph glyph-name="itilde" unicode="&#x129;" horiz-adv-x="666" 
d="M528 0h-391v1133h391v-1133zM-90 1237c4 62.667 12.4971 115.668 25.4971 159.001s30 78.5 51 105.5s46.333 46.667 76 59s62.834 18.5 99.501 18.5c25.333 0 52.333 -4.83301 81 -14.5s57.667 -20.834 87 -33.501s58.166 -23.834 86.499 -33.501s55.5 -14.5 81.5 -14.5
c12 0 25.167 5.66699 39.5 17s24.833 38.333 31.5 81h183c-8.66699 -122.667 -35.5 -210.334 -80.5 -263.001s-100.167 -79 -165.5 -79c-30 0 -60.167 4.83301 -90.5 14.5s-60.166 20.834 -89.499 33.501s-57.666 23.834 -84.999 33.501s-53.666 14.5 -78.999 14.5
c-12.667 0 -25.667 -5.33301 -39 -16s-24.333 -38 -33 -82h-180z" />
    <glyph glyph-name="Imacron" unicode="&#x12a;" horiz-adv-x="713" 
d="M158 0v1462h397v-1462h-397zM721 1807v-236h-727v236h727z" />
    <glyph glyph-name="imacron" unicode="&#x12b;" horiz-adv-x="666" 
d="M528 0h-391v1133h391v-1133zM705 1477v-236h-727v236h727z" />
    <glyph glyph-name="Ibreve" unicode="&#x12c;" horiz-adv-x="713" 
d="M158 0v1462h397v-1462h-397zM760 1942c-4.66699 -74 -23.5 -138.833 -56.5 -194.5s-79.167 -99 -138.5 -130s-130.333 -46.5 -213 -46.5c-130 0 -228 33.167 -294 99.5s-101.667 156.833 -107 271.5h211c10 -38 22.5 -66.333 37.5 -85s34.833 -31 59.5 -37
s55.667 -9 93 -9c29.333 0 56.5 3.5 81.5 10.5s46.833 20 65.5 39s32.667 46.167 42 81.5h219z" />
    <glyph glyph-name="ibreve" unicode="&#x12d;" horiz-adv-x="666" 
d="M528 0h-391v1133h391v-1133zM744 1612c-4.66699 -74 -23.5 -138.833 -56.5 -194.5s-79.167 -99 -138.5 -130s-130.333 -46.5 -213 -46.5c-130 0 -228 33.167 -294 99.5s-101.667 156.833 -107 271.5h211c10 -38 22.5 -66.333 37.5 -85s34.833 -31 59.5 -37
s55.667 -9 93 -9c29.333 0 56.5 3.5 81.5 10.5s46.833 20 65.5 39s32.667 46.167 42 81.5h219z" />
    <glyph glyph-name="Iogonek" unicode="&#x12e;" horiz-adv-x="713" 
d="M158 0v1462h397v-1462h-397zM385 -199c0 -24.667 7.16504 -42 21.498 -52s33.166 -15 56.499 -15c17.333 0 37.833 2.16699 61.5 6.5s42.5 9.5 56.5 15.5v-221c-22.667 -6.66699 -48 -12.834 -76 -18.501s-60.667 -8.5 -98 -8.5c-77.333 0 -142.666 20.833 -195.999 62.5
s-80 98.167 -80 169.5c0 30.667 6.83301 62.167 20.5 94.5s37.334 66.333 71.001 102s80.834 73.834 141.501 114.501l154 -51c-46 -44 -79.667 -80.333 -101 -109s-32 -58.667 -32 -90z" />
    <glyph glyph-name="iogonek" unicode="&#x12f;" horiz-adv-x="666" 
d="M528 1133v-1133h-391v1133h391zM334 1589c56 0 104.833 -11.667 146.5 -35s62.5 -69.666 62.5 -138.999c0 -67.333 -20.833 -112.833 -62.5 -136.5s-90.5 -35.5 -146.5 -35.5c-57.333 0 -106.166 11.833 -146.499 35.5s-60.5 69.167 -60.5 136.5
c0 69.333 20.167 115.666 60.5 138.999s89.166 35 146.499 35zM356 -199c0 -24.667 7.16504 -42 21.498 -52s33.166 -15 56.499 -15c17.333 0 37.833 2.16699 61.5 6.5s42.5 9.5 56.5 15.5v-221c-22.667 -6.66699 -48 -12.834 -76 -18.501s-60.667 -8.5 -98 -8.5
c-77.333 0 -142.666 20.833 -195.999 62.5s-80 98.167 -80 169.5c0 30.667 6.83301 62.167 20.5 94.5s37.334 66.333 71.001 102s80.834 73.834 141.501 114.501l154 -51c-46 -44 -79.667 -80.333 -101 -109s-32 -58.667 -32 -90z" />
    <glyph glyph-name="Idotaccent" unicode="&#x130;" horiz-adv-x="713" 
d="M158 0v1462h397v-1462h-397zM356 1919c56 0 104.833 -11.667 146.5 -35s62.5 -69.666 62.5 -138.999c0 -67.333 -20.833 -112.833 -62.5 -136.5s-90.5 -35.5 -146.5 -35.5c-57.333 0 -106.166 11.833 -146.499 35.5s-60.5 69.167 -60.5 136.5
c0 69.333 20.167 115.666 60.5 138.999s89.166 35 146.499 35z" />
    <glyph glyph-name="dotlessi" unicode="&#x131;" horiz-adv-x="666" 
d="M528 0h-391v1133h391v-1133z" />
    <glyph glyph-name="IJ" unicode="&#x132;" horiz-adv-x="1434" 
d="M158 0v1462h397v-1462h-397zM756 -459c-44.667 0 -83.8311 2.16797 -117.498 6.50098s-62.834 9.16602 -87.501 14.499v307c21.333 -4 44 -8.5 68 -13.5s50 -7.5 78 -7.5c47.333 0 84.166 9.66699 110.499 29s44.833 48.333 55.5 87s16 87 16 145v1353h397v-1319
c0 -146.667 -22 -264 -66 -352s-105 -151.667 -183 -191s-168.333 -59 -271 -59z" />
    <glyph glyph-name="ij" unicode="&#x133;" horiz-adv-x="1329" 
d="M528 1133v-1133h-391v1133h391zM334 1589c56 0 104.833 -11.667 146.5 -35s62.5 -69.666 62.5 -138.999c0 -67.333 -20.833 -112.833 -62.5 -136.5s-90.5 -35.5 -146.5 -35.5c-57.333 0 -106.166 11.833 -146.499 35.5s-60.5 69.167 -60.5 136.5
c0 69.333 20.167 115.666 60.5 138.999s89.166 35 146.499 35zM772 -492c-31.333 0 -67.5 2.5 -108.5 7.5s-74.833 10.833 -101.5 17.5v305c21.333 -6 41 -10.5 59 -13.5s38.333 -4.5 61 -4.5c32 0 59.833 11.167 83.5 33.5s35.5 67.833 35.5 136.5v1143h391v-1225
c0 -68 -13.333 -132.5 -40 -193.5s-70.667 -110.667 -132 -149s-144 -57.5 -248 -57.5zM791 1415c0 69.333 20.167 115.666 60.5 138.999s89.166 35 146.499 35c56 0 104.833 -11.667 146.5 -35s62.5 -69.666 62.5 -138.999c0 -67.333 -20.833 -112.833 -62.5 -136.5
s-90.5 -35.5 -146.5 -35.5c-57.333 0 -106.166 11.833 -146.499 35.5s-60.5 69.167 -60.5 136.5z" />
    <glyph glyph-name="Jcircumflex" unicode="&#x134;" horiz-adv-x="721" 
d="M43 -459c-44.667 0 -83.8311 2.16797 -117.498 6.50098s-62.834 9.16602 -87.501 14.499v307c21.333 -4 44 -8.5 68 -13.5s50 -7.5 78 -7.5c47.333 0 84.166 9.66699 110.499 29s44.833 48.333 55.5 87s16 87 16 145v1353h397v-1319c0 -146.667 -22 -264 -66 -352
s-105 -151.667 -183 -191s-168.333 -59 -271 -59zM561.003 1899c21.333 -31.333 47.665 -65.833 78.998 -103.5s63 -73.834 95 -108.501l82 -87v-29h-254c-35.333 20.667 -68.666 43.167 -99.999 67.5s-64.666 51.833 -99.999 82.5l-97.5 -81
c-29 -23.333 -61.5 -46.333 -97.5 -69h-258v29c26 24.667 55.167 54.334 87.5 89.001s63.833 70.5 94.5 107.5s56 71.167 76 102.5h393z" />
    <glyph glyph-name="jcircumflex" unicode="&#x135;" horiz-adv-x="664" 
d="M106 -492c-31.333 0 -67.5 2.5 -108.5 7.5s-74.833 10.833 -101.5 17.5v305c21.333 -6 41 -10.5 59 -13.5s38.333 -4.5 61 -4.5c32 0 59.833 11.167 83.5 33.5s35.5 67.833 35.5 136.5v1143h391v-1225c0 -68 -13.333 -132.5 -40 -193.5s-70.667 -110.667 -132 -149
s-144 -57.5 -248 -57.5zM532 1569c21.333 -31.333 47.665 -65.833 78.998 -103.5s63 -73.834 95 -108.501l82 -87v-29h-254c-35.333 20.667 -68.666 43.167 -99.999 67.5s-64.666 51.833 -99.999 82.5l-97.5 -81c-29 -23.333 -61.5 -46.333 -97.5 -69h-258v29
c26 24.667 55.167 54.334 87.5 89.001s63.833 70.5 94.5 107.5s56 71.167 76 102.5h393z" />
    <glyph glyph-name="uni0136" unicode="&#x136;" horiz-adv-x="1407" 
d="M1407 0h-446.001l-289 559l-117 -70v-489h-397v1462h397v-635c16.667 32 35.834 64 57.501 96l63.5 91l307 448h432l-461 -655zM935.999 -125l-0.00195312 -22.002c-16 -36.667 -32 -71.334 -48 -104.001s-33.5 -65.167 -52.5 -97.5s-41.5 -67.166 -67.5 -104.499h-234
v29c8 28.667 15.333 61.334 22 98.001s12.334 72.834 17.001 108.501s7.33398 66.5 8.00098 92.5h355z" />
    <glyph glyph-name="uni0137" unicode="&#x137;" horiz-adv-x="1350" 
d="M528 1556v-611.999c0 -46 -1.83301 -97.167 -5.5 -153.5s-9.16699 -107.5 -16.5 -153.5h8l58 88c23.333 35.333 44.333 64.666 63 87.999l254 320h436l-393 -482l418 -651h-447l-248 406l-127 -97v-309h-393v1556h393zM875 -124.999l-0.00195312 -22.002
c-16 -36.667 -32 -71.334 -48 -104.001s-33.5 -65.167 -52.5 -97.5s-41.5 -67.166 -67.5 -104.499h-234v29c8 28.667 15.333 61.334 22 98.001s12.334 72.834 17.001 108.501s7.33398 66.5 8.00098 92.5h355z" />
    <glyph glyph-name="kgreenlandic" unicode="&#x138;" horiz-adv-x="1350" 
d="M1331 1133l-404.999 -496l424 -637h-441l-252 399l-129 -98v-301h-393v1133h393v-246c0 -56.667 -1.16699 -105.167 -3.5 -145.5s-4.5 -73.166 -6.5 -98.499h8c12.667 17.333 29.167 41.666 49.5 72.999s44.166 65 71.499 101l246 316h438z" />
    <glyph glyph-name="Lacute" unicode="&#x139;" horiz-adv-x="1192" 
d="M158 0v1462h395v-1143h563v-319h-958zM835 1899v-21.001c-24 -19.333 -54.667 -42.833 -92 -70.5l-118.5 -86l-121 -84.5c-39 -26.667 -72.5 -48.667 -100.5 -66h-260v29l84 90.5l98 107.5c32.667 36.667 60 70.334 82 101.001h428z" />
    <glyph glyph-name="lacute" unicode="&#x13a;" horiz-adv-x="662" 
d="M526 0h-391v1556h391v-1556zM819 1993v-21.001c-24 -19.333 -54.667 -42.833 -92 -70.5l-118.5 -86l-121 -84.5c-39 -26.667 -72.5 -48.667 -100.5 -66h-260v29l84 90.5l98 107.5c32.667 36.667 60 70.334 82 101.001h428z" />
    <glyph glyph-name="uni013B" unicode="&#x13b;" horiz-adv-x="1192" 
d="M158 0v1462h395v-1143h563v-319h-958zM832 -125l-0.00195312 -22.002c-16 -36.667 -32 -71.334 -48 -104.001s-33.5 -65.167 -52.5 -97.5s-41.5 -67.166 -67.5 -104.499h-234v29c8 28.667 15.333 61.334 22 98.001s12.334 72.834 17.001 108.501
s7.33398 66.5 8.00098 92.5h355z" />
    <glyph glyph-name="uni013C" unicode="&#x13c;" horiz-adv-x="662" 
d="M526 0h-391v1556h391v-1556zM531 -125l-0.00195312 -22.002c-16 -36.667 -32 -71.334 -48 -104.001s-33.5 -65.167 -52.5 -97.5s-41.5 -67.166 -67.5 -104.499h-234v29c8 28.667 15.333 61.334 22 98.001s12.334 72.834 17.001 108.501s7.33398 66.5 8.00098 92.5h355z
" />
    <glyph glyph-name="Lcaron" unicode="&#x13d;" horiz-adv-x="1192" 
d="M158 0v1462h395v-1143h563v-319h-958zM1178 1462l0.00195312 -22l-55.5 -97l-56 -97l-67.5 -111h-233v28c5.33301 20 10.666 42.667 15.999 68l16 78.5c5.33301 27 10.166 53.667 14.499 80s7.83301 50.5 10.5 72.5h355z" />
    <glyph glyph-name="lcaron" unicode="&#x13e;" horiz-adv-x="662" 
d="M526 0h-391v1556h391v-1556zM1002 1556l0.00195312 -22l-55.5 -97l-56 -97l-67.5 -111h-233v28c5.33301 20 10.666 42.667 15.999 68l16 78.5c5.33301 27 10.166 53.667 14.499 80s7.83301 50.5 10.5 72.5h355z" />
    <glyph glyph-name="Ldot" unicode="&#x13f;" horiz-adv-x="1192" 
d="M158 0v1462h395v-1143h563v-319h-958zM916 985c56 0 104.833 -11.667 146.5 -35s62.5 -69.666 62.5 -138.999c0 -67.333 -20.833 -112.833 -62.5 -136.5s-90.5 -35.5 -146.5 -35.5c-57.333 0 -106.166 11.833 -146.499 35.5s-60.5 69.167 -60.5 136.5
c0 69.333 20.167 115.666 60.5 138.999s89.166 35 146.499 35z" />
    <glyph glyph-name="ldot" unicode="&#x140;" horiz-adv-x="887" 
d="M526 0h-391v1556h391v-1556zM772 950c56 0 104.833 -11.667 146.5 -35s62.5 -69.666 62.5 -138.999c0 -67.333 -20.833 -112.833 -62.5 -136.5s-90.5 -35.5 -146.5 -35.5c-57.333 0 -106.166 11.833 -146.499 35.5s-60.5 69.167 -60.5 136.5
c0 69.333 20.167 115.666 60.5 138.999s89.166 35 146.499 35z" />
    <glyph glyph-name="Lslash" unicode="&#x141;" horiz-adv-x="1247" 
d="M213 0v481l-102 -57l-142 248l244 145v645h395v-401l211 131l148 -244l-359 -223v-406h563v-319h-958z" />
    <glyph glyph-name="lslash" unicode="&#x142;" horiz-adv-x="854" 
d="M233 0v403l-124 -67l-140 248l264 151v821h392v-585l114 69l146 -247l-260 -154v-639h-392z" />
    <glyph glyph-name="Nacute" unicode="&#x143;" horiz-adv-x="1708" 
d="M1550 0l-518 0.00292969l-534 1030h-9c3.33301 -31.333 6.33301 -69 9 -113s5 -88.833 7 -134.5s3 -86.834 3 -123.501v-659h-350v1462h516l532 -1016h6c-2 32 -4 69.167 -6 111.5s-3.83301 85.166 -5.5 128.499s-2.5 81.666 -2.5 114.999v661h352v-1462zM1341 1899
v-21.001c-24 -19.333 -54.667 -42.833 -92 -70.5l-118.5 -86l-121 -84.5c-39 -26.667 -72.5 -48.667 -100.5 -66h-260v29l84 90.5l98 107.5c32.667 36.667 60 70.334 82 101.001h428z" />
    <glyph glyph-name="nacute" unicode="&#x144;" horiz-adv-x="1372" 
d="M844 1153c116.667 0 212.002 -32.998 286.002 -98.998s111 -171.667 111 -317v-737h-391v618c0 75.333 -10.833 132.166 -32.5 170.499s-56.5 57.5 -104.5 57.5c-74 0 -123.667 -30.167 -149 -90.5s-38 -146.833 -38 -259.5v-496h-391v1133h295l53 -150h15
c24 36 52.667 66.667 86 92s71.666 44.666 114.999 57.999s91.666 20 144.999 20zM1173 1569v-21.001c-24 -19.333 -54.667 -42.833 -92 -70.5l-118.5 -86l-121 -84.5c-39 -26.667 -72.5 -48.667 -100.5 -66h-260v29l84 90.5l98 107.5c32.667 36.667 60 70.334 82 101.001
h428z" />
    <glyph glyph-name="uni0145" unicode="&#x145;" horiz-adv-x="1708" 
d="M1550 0l-518 0.00292969l-534 1030h-9c3.33301 -31.333 6.33301 -69 9 -113s5 -88.833 7 -134.5s3 -86.834 3 -123.501v-659h-350v1462h516l532 -1016h6c-2 32 -4 69.167 -6 111.5s-3.83301 85.166 -5.5 128.499s-2.5 81.666 -2.5 114.999v661h352v-1462zM1053 -124.997
l-0.00195312 -22.002c-16 -36.667 -32 -71.334 -48 -104.001s-33.5 -65.167 -52.5 -97.5s-41.5 -67.166 -67.5 -104.499h-234v29c8 28.667 15.333 61.334 22 98.001s12.334 72.834 17.001 108.501s7.33398 66.5 8.00098 92.5h355z" />
    <glyph glyph-name="uni0146" unicode="&#x146;" horiz-adv-x="1372" 
d="M844 1153c116.667 0 212.002 -32.998 286.002 -98.998s111 -171.667 111 -317v-737h-391v618c0 75.333 -10.833 132.166 -32.5 170.499s-56.5 57.5 -104.5 57.5c-74 0 -123.667 -30.167 -149 -90.5s-38 -146.833 -38 -259.5v-496h-391v1133h295l53 -150h15
c24 36 52.667 66.667 86 92s71.666 44.666 114.999 57.999s91.666 20 144.999 20zM885.002 -124.998l-0.00195312 -22.002c-16 -36.667 -32 -71.334 -48 -104.001s-33.5 -65.167 -52.5 -97.5s-41.5 -67.166 -67.5 -104.499h-234v29c8 28.667 15.333 61.334 22 98.001
s12.334 72.834 17.001 108.501s7.33398 66.5 8.00098 92.5h355z" />
    <glyph glyph-name="Ncaron" unicode="&#x147;" horiz-adv-x="1708" 
d="M1550 0l-518 0.00292969l-534 1030h-9c3.33301 -31.333 6.33301 -69 9 -113s5 -88.833 7 -134.5s3 -86.834 3 -123.501v-659h-350v1462h516l532 -1016h6c-2 32 -4 69.167 -6 111.5s-3.83301 85.166 -5.5 128.499s-2.5 81.666 -2.5 114.999v661h352v-1462zM662 1571
c-20 31.333 -45.332 65.5 -75.999 102.5s-62.167 72.833 -94.5 107.5s-61.5 64.334 -87.5 89.001v29h258c36 -22.667 68.5 -45.5 97.5 -68.5s61.5 -50.167 97.5 -81.5c35.333 31.333 68.666 59 99.999 83s64.666 46.333 99.999 67h254v-29l-82 -87
c-32 -34.667 -63.667 -70.834 -95 -108.501s-57.666 -72.167 -78.999 -103.5h-393z" />
    <glyph glyph-name="ncaron" unicode="&#x148;" horiz-adv-x="1372" 
d="M844 1153c116.667 0 212.002 -32.998 286.002 -98.998s111 -171.667 111 -317v-737h-391v618c0 75.333 -10.833 132.166 -32.5 170.499s-56.5 57.5 -104.5 57.5c-74 0 -123.667 -30.167 -149 -90.5s-38 -146.833 -38 -259.5v-496h-391v1133h295l53 -150h15
c24 36 52.667 66.667 86 92s71.666 44.666 114.999 57.999s91.666 20 144.999 20zM494.002 1241c-20 31.333 -45.332 65.5 -75.999 102.5s-62.167 72.833 -94.5 107.5s-61.5 64.334 -87.5 89.001v29h258c36 -22.667 68.5 -45.5 97.5 -68.5s61.5 -50.167 97.5 -81.5
c35.333 31.333 68.666 59 99.999 83s64.666 46.333 99.999 67h254v-29l-82 -87c-32 -34.667 -63.667 -70.834 -95 -108.501s-57.666 -72.167 -78.999 -103.5h-393z" />
    <glyph glyph-name="napostrophe" unicode="&#x149;" horiz-adv-x="1700" 
d="M1172 1153c116.667 0 212.002 -32.998 286.002 -98.998s111 -171.667 111 -317v-737h-391v618c0 75.333 -10.833 132.166 -32.5 170.499s-56.5 57.5 -104.5 57.5c-74 0 -123.667 -30.167 -149 -90.5s-38 -146.833 -38 -259.5v-496h-391v1133h295l53 -150h15
c24 36 52.667 66.667 86 92s71.666 44.666 114.999 57.999s91.666 20 144.999 20zM440.002 1460l14.998 -21.999c-12 -49.333 -27.667 -108.166 -47 -176.499s-40.166 -136.833 -62.499 -205.5s-44.833 -128.334 -67.5 -179.001h-278c10 46.667 19.833 95.5 29.5 146.5
s18.834 102.167 27.501 153.5s16.5 101.166 23.5 149.499s12.833 92.833 17.5 133.5h342z" />
    <glyph glyph-name="Eng" unicode="&#x14a;" horiz-adv-x="1708" 
d="M1028 -489c-48.667 0 -91.667 2.16699 -129 6.5s-68.666 8.83301 -93.999 13.5v307l79.5 -13c27.667 -4.66699 58.5 -7 92.5 -7c52.667 0 96.167 6.83301 130.5 20.5s60.666 34 78.999 61s29.166 60.5 32.499 100.5l-721 1030h-9
c3.33301 -26.667 6.33301 -63.167 9 -109.5s5 -96.5 7 -150.5s3 -106 3 -156v-614h-350v1462h475l573 -809h8c-2 26 -4.16699 63.5 -6.5 112.5s-4.5 101.333 -6.5 157s-3 106.5 -3 152.5v387h352v-1470c0 -104.667 -22.167 -192.667 -66.5 -264
s-105.666 -125.333 -183.999 -162s-168.833 -55 -271.5 -55z" />
    <glyph glyph-name="eng" unicode="&#x14b;" horiz-adv-x="1372" 
d="M829 -492c-30.667 0 -66.6719 2.5 -108.005 7.5s-75.666 10.833 -102.999 17.5v305c23.333 -6 43.333 -10.5 60 -13.5s35.667 -4.5 57 -4.5c30 0 56.333 11.167 79 33.5s34 67.833 34 136.5v665c0 62.667 -11.667 110.167 -35 142.5s-56.666 48.5 -99.999 48.5
c-49.333 0 -87.5 -13.5 -114.5 -40.5s-45.833 -66.5 -56.5 -118.5s-16 -115.667 -16 -191v-496h-391v1133h295l49 -140h25c24 38.667 54 69.667 90 93s75.833 40.333 119.5 51s87.834 16 132.501 16c73.333 0 139.833 -14.5 199.5 -43.5s107.167 -74 142.5 -135
s53 -140.167 53 -237.5v-829c0 -68 -13.167 -132.5 -39.5 -193.5s-69.666 -110.667 -129.999 -149s-141.166 -57.5 -242.499 -57.5z" />
    <glyph glyph-name="Omacron" unicode="&#x14c;" horiz-adv-x="1632" 
d="M1526 733c0 -112.667 -13.498 -215.166 -40.498 -307.499s-69.167 -171.833 -126.5 -238.5s-131 -117.834 -221 -153.501s-197.667 -53.5 -323 -53.5c-122.667 0 -228.834 17.833 -318.501 53.5s-163.5 86.667 -221.5 153s-101 145.833 -129 238.5s-42 196 -42 310
c0 152 25.167 284.167 75.5 396.5s128.166 199.333 233.499 261s240 92.5 404 92.5c166.667 0 302.167 -31 406.5 -93s180.833 -149.333 229.5 -262s73 -245 73 -397zM520.002 733.001c0 -88 10.001 -163.667 30.001 -227s51.667 -112 95 -146s100 -51 170 -51
c72.667 0 130.5 17 173.5 51s74 82.667 93 146s28.5 139 28.5 227c0 132 -22 236.333 -66 313s-119.667 115 -227 115c-71.333 0 -128.833 -17.333 -172.5 -52s-75.334 -84 -95.001 -148s-29.5 -140 -29.5 -228zM1188 1807v-236h-727v236h727z" />
    <glyph glyph-name="omacron" unicode="&#x14d;" horiz-adv-x="1305" 
d="M1217 569c0 -94.667 -13 -178.667 -39 -252s-63.667 -135 -113 -185s-109 -87.833 -179 -113.5s-149 -38.5 -237 -38.5c-82 0 -157.167 12.833 -225.5 38.5s-127.833 63.5 -178.5 113.5s-89.834 111.667 -117.501 185s-41.5 157.333 -41.5 252
c0 125.333 22.833 231.333 68.5 318s111 152.667 196 198s186.5 68 304.5 68c108.667 0 205.334 -22.667 290.001 -68s151.167 -111.333 199.5 -198s72.5 -192.667 72.5 -318zM483 569c0 -64.667 5.66504 -119.167 16.998 -163.5s29.5 -78 54.5 -101
s57.833 -34.5 98.5 -34.5s73 11.5 97 34.5s41.5 56.667 52.5 101s16.5 98.833 16.5 163.5s-5.5 118.667 -16.5 162s-28.667 76 -53 98s-57.166 33 -98.499 33c-59.333 0 -102.166 -24.667 -128.499 -74s-39.5 -122.333 -39.5 -219zM1024 1477v-236h-727v236h727z" />
    <glyph glyph-name="Obreve" unicode="&#x14e;" horiz-adv-x="1632" 
d="M1526 733c0 -112.667 -13.498 -215.166 -40.498 -307.499s-69.167 -171.833 -126.5 -238.5s-131 -117.834 -221 -153.501s-197.667 -53.5 -323 -53.5c-122.667 0 -228.834 17.833 -318.501 53.5s-163.5 86.667 -221.5 153s-101 145.833 -129 238.5s-42 196 -42 310
c0 152 25.167 284.167 75.5 396.5s128.166 199.333 233.499 261s240 92.5 404 92.5c166.667 0 302.167 -31 406.5 -93s180.833 -149.333 229.5 -262s73 -245 73 -397zM520.002 733.001c0 -88 10.001 -163.667 30.001 -227s51.667 -112 95 -146s100 -51 170 -51
c72.667 0 130.5 17 173.5 51s74 82.667 93 146s28.5 139 28.5 227c0 132 -22 236.333 -66 313s-119.667 115 -227 115c-71.333 0 -128.833 -17.333 -172.5 -52s-75.334 -84 -95.001 -148s-29.5 -140 -29.5 -228zM1227 1942c-4.66699 -74 -23.5 -138.833 -56.5 -194.5
s-79.167 -99 -138.5 -130s-130.333 -46.5 -213 -46.5c-130 0 -228 33.167 -294 99.5s-101.667 156.833 -107 271.5h211c10 -38 22.5 -66.333 37.5 -85s34.833 -31 59.5 -37s55.667 -9 93 -9c29.333 0 56.5 3.5 81.5 10.5s46.833 20 65.5 39s32.667 46.167 42 81.5h219z" />
    <glyph glyph-name="obreve" unicode="&#x14f;" horiz-adv-x="1305" 
d="M1217 569c0 -94.667 -13 -178.667 -39 -252s-63.667 -135 -113 -185s-109 -87.833 -179 -113.5s-149 -38.5 -237 -38.5c-82 0 -157.167 12.833 -225.5 38.5s-127.833 63.5 -178.5 113.5s-89.834 111.667 -117.501 185s-41.5 157.333 -41.5 252
c0 125.333 22.833 231.333 68.5 318s111 152.667 196 198s186.5 68 304.5 68c108.667 0 205.334 -22.667 290.001 -68s151.167 -111.333 199.5 -198s72.5 -192.667 72.5 -318zM483 569c0 -64.667 5.66504 -119.167 16.998 -163.5s29.5 -78 54.5 -101
s57.833 -34.5 98.5 -34.5s73 11.5 97 34.5s41.5 56.667 52.5 101s16.5 98.833 16.5 163.5s-5.5 118.667 -16.5 162s-28.667 76 -53 98s-57.166 33 -98.499 33c-59.333 0 -102.166 -24.667 -128.499 -74s-39.5 -122.333 -39.5 -219zM1063 1612
c-4.66699 -74 -23.5 -138.833 -56.5 -194.5s-79.167 -99 -138.5 -130s-130.333 -46.5 -213 -46.5c-130 0 -228 33.167 -294 99.5s-101.667 156.833 -107 271.5h211c10 -38 22.5 -66.333 37.5 -85s34.833 -31 59.5 -37s55.667 -9 93 -9c29.333 0 56.5 3.5 81.5 10.5
s46.833 20 65.5 39s32.667 46.167 42 81.5h219z" />
    <glyph glyph-name="Ohungarumlaut" unicode="&#x150;" horiz-adv-x="1632" 
d="M1526 733c0 -112.667 -13.498 -215.166 -40.498 -307.499s-69.167 -171.833 -126.5 -238.5s-131 -117.834 -221 -153.501s-197.667 -53.5 -323 -53.5c-122.667 0 -228.834 17.833 -318.501 53.5s-163.5 86.667 -221.5 153s-101 145.833 -129 238.5s-42 196 -42 310
c0 152 25.167 284.167 75.5 396.5s128.166 199.333 233.499 261s240 92.5 404 92.5c166.667 0 302.167 -31 406.5 -93s180.833 -149.333 229.5 -262s73 -245 73 -397zM520.002 733.001c0 -88 10.001 -163.667 30.001 -227s51.667 -112 95 -146s100 -51 170 -51
c72.667 0 130.5 17 173.5 51s74 82.667 93 146s28.5 139 28.5 227c0 132 -22 236.333 -66 313s-119.667 115 -227 115c-71.333 0 -128.833 -17.333 -172.5 -52s-75.334 -84 -95.001 -148s-29.5 -140 -29.5 -228zM1456 1899v-21c-10.667 -18 -31 -40.5 -61 -67.5
s-64.333 -55.5 -103 -85.5l-115 -86l-97 -68h-203v29l67.5 91.5l76.5 107c25.333 36.333 46.333 69.833 63 100.5h372zM991.003 1899l0.000976562 -21c-10.667 -18 -31 -40.5 -61 -67.5s-64.333 -55.5 -103 -85.5l-114.5 -86l-95.5 -68h-203v29l67 91.5l76 107
c25.333 36.333 46.666 69.833 63.999 100.5h370z" />
    <glyph glyph-name="ohungarumlaut" unicode="&#x151;" horiz-adv-x="1305" 
d="M1217 569c0 -94.667 -13 -178.667 -39 -252s-63.667 -135 -113 -185s-109 -87.833 -179 -113.5s-149 -38.5 -237 -38.5c-82 0 -157.167 12.833 -225.5 38.5s-127.833 63.5 -178.5 113.5s-89.834 111.667 -117.501 185s-41.5 157.333 -41.5 252
c0 125.333 22.833 231.333 68.5 318s111 152.667 196 198s186.5 68 304.5 68c108.667 0 205.334 -22.667 290.001 -68s151.167 -111.333 199.5 -198s72.5 -192.667 72.5 -318zM483 569c0 -64.667 5.66504 -119.167 16.998 -163.5s29.5 -78 54.5 -101
s57.833 -34.5 98.5 -34.5s73 11.5 97 34.5s41.5 56.667 52.5 101s16.5 98.833 16.5 163.5s-5.5 118.667 -16.5 162s-28.667 76 -53 98s-57.166 33 -98.499 33c-59.333 0 -102.166 -24.667 -128.499 -74s-39.5 -122.333 -39.5 -219zM1292 1569v-21
c-10.667 -18 -31 -40.5 -61 -67.5s-64.333 -55.5 -103 -85.5l-115 -86l-97 -68h-203v29l67.5 91.5l76.5 107c25.333 36.333 46.333 69.833 63 100.5h372zM826.998 1569l0.000976562 -21c-10.667 -18 -31 -40.5 -61 -67.5s-64.333 -55.5 -103 -85.5l-114.5 -86l-95.5 -68
h-203v29l67 91.5l76 107c25.333 36.333 46.666 69.833 63.999 100.5h370z" />
    <glyph glyph-name="OE" unicode="&#x152;" horiz-adv-x="1960" 
d="M776 1485c37.333 0 80.998 -1.99805 130.998 -5.99805s89.667 -9.66699 119 -17h836v-317h-473v-230h436v-317h-436v-276h473v-322h-844c-28.667 -6 -67.667 -10.833 -117 -14.5s-91.666 -5.5 -126.999 -5.5c-147.333 0 -270.666 31.333 -369.999 94
s-174.166 150.667 -224.499 264s-75.5 245.666 -75.5 396.999s24.667 283.166 74 395.499s123.666 199.5 222.999 261.5s224.333 93 375 93zM777.998 1161c-44 0 -82.1699 -9.83301 -114.503 -29.5s-59.166 -48.167 -80.499 -85.5s-37.166 -82.333 -47.499 -135
s-15.5 -112 -15.5 -178c0 -88 9.33301 -163.667 28 -227s46.834 -112 84.501 -146s85.5 -51 143.5 -51c42 0 82.5 3.66699 121.5 11s70.833 18 95.5 32v760c-22.667 15.333 -53.667 27.333 -93 36s-80 13 -122 13z" />
    <glyph glyph-name="oe" unicode="&#x153;" horiz-adv-x="2007" 
d="M1430 1153c95.333 0 179.998 -19.168 253.998 -57.501s132 -96 174 -173s63 -173.5 63 -289.5v-172h-696c3.33301 -55.333 26.5 -103 69.5 -143s106.5 -60 190.5 -60c52 0 109.5 6.16699 172.5 18.5s126.833 34.833 191.5 67.5v-281
c-54.667 -28.667 -113.167 -49.667 -175.5 -63s-142.166 -20 -239.499 -20c-74 0 -143.833 11.167 -209.5 33.5s-123.5 56.833 -173.5 103.5c-49.333 -44.667 -107.666 -78.667 -174.999 -102s-143 -35 -227 -35c-108.667 0 -205.5 22.833 -290.5 68.5
s-151.667 112.334 -200 200.001s-72.5 194.5 -72.5 320.5c0 125.333 22.833 231.333 68.5 318s111 152.667 196 198s186.5 68 304.5 68c74 0 142.833 -10.667 206.5 -32s119.834 -53 168.501 -95c32.667 26.667 68.5 49.5 107.5 68.5s82.667 33.5 131 43.5
s102.166 15 161.499 15zM650.998 861.999c-59.333 0 -101.835 -24.667 -127.502 -74s-38.5 -122.333 -38.5 -219c0 -64.667 5.5 -119.167 16.5 -163.5s28.833 -78 53.5 -101s57.334 -34.5 98.001 -34.5s73 11.5 97 34.5s41.5 56.667 52.5 101s16.5 98.833 16.5 163.5
s-5.5 118.667 -16.5 162s-28.667 76 -53 98s-57.166 33 -98.499 33zM1407 886.999c-48 0 -87.999 -13.3311 -119.999 -39.998s-50.667 -73.334 -56 -140.001h340c-0.666992 32.667 -7.33398 62.667 -20.001 90s-31.167 49.166 -55.5 65.499s-53.833 24.5 -88.5 24.5z" />
    <glyph glyph-name="Racute" unicode="&#x154;" horiz-adv-x="1386" 
d="M637 1462c132.667 0 243 -16.167 331 -48.5s154.167 -80.5 198.5 -144.5s66.5 -143.667 66.5 -239c0 -59.333 -10 -113.333 -30 -162s-48.5 -92.167 -85.5 -130.5s-81.167 -71.833 -132.5 -100.5l426 -637h-448l-310 532h-100v-532h-395v1462h479zM631 1163
l-78.001 -0.000976562v-334h74c60.667 0 110.334 13.333 149.001 40s58 74.334 58 143.001c0 47.333 -16 84.333 -48 111s-83.667 40 -155 40zM1182 1899v-21.001c-24 -19.333 -54.667 -42.833 -92 -70.5l-118.5 -86l-121 -84.5c-39 -26.667 -72.5 -48.667 -100.5 -66h-260
v29l84 90.5l98 107.5c32.667 36.667 60 70.334 82 101.001h428z" />
    <glyph glyph-name="racute" unicode="&#x155;" horiz-adv-x="961" 
d="M819 1153c21.333 0 43.6689 -1.49902 67.002 -4.49902s40.666 -5.5 51.999 -7.5l-35 -369c-12.667 3.33301 -29 6.16602 -49 8.49902s-48 3.5 -84 3.5c-24.667 0 -51 -2.33301 -79 -7s-54.5 -14.5 -79.5 -29.5s-45.5 -37.667 -61.5 -68s-24 -71.166 -24 -122.499v-557
h-391v1133h291l61 -181h19c20.667 37.333 47.167 71.166 79.5 101.499s68.666 54.5 108.999 72.5s81.833 27 124.5 27zM1001 1569v-21.001c-24 -19.333 -54.667 -42.833 -92 -70.5l-118.5 -86l-121 -84.5c-39 -26.667 -72.5 -48.667 -100.5 -66h-260v29l84 90.5l98 107.5
c32.667 36.667 60 70.334 82 101.001h428z" />
    <glyph glyph-name="uni0156" unicode="&#x156;" horiz-adv-x="1386" 
d="M637 1462c132.667 0 243 -16.167 331 -48.5s154.167 -80.5 198.5 -144.5s66.5 -143.667 66.5 -239c0 -59.333 -10 -113.333 -30 -162s-48.5 -92.167 -85.5 -130.5s-81.167 -71.833 -132.5 -100.5l426 -637h-448l-310 532h-100v-532h-395v1462h479zM631 1163
l-78.001 -0.000976562v-334h74c60.667 0 110.334 13.333 149.001 40s58 74.334 58 143.001c0 47.333 -16 84.333 -48 111s-83.667 40 -155 40zM923.999 -125.001l-0.00195312 -22.002c-16 -36.667 -32 -71.334 -48 -104.001s-33.5 -65.167 -52.5 -97.5
s-41.5 -67.166 -67.5 -104.499h-234v29c8 28.667 15.333 61.334 22 98.001s12.334 72.834 17.001 108.501s7.33398 66.5 8.00098 92.5h355z" />
    <glyph glyph-name="uni0157" unicode="&#x157;" horiz-adv-x="961" 
d="M819 1153c21.333 0 43.6689 -1.49902 67.002 -4.49902s40.666 -5.5 51.999 -7.5l-35 -369c-12.667 3.33301 -29 6.16602 -49 8.49902s-48 3.5 -84 3.5c-24.667 0 -51 -2.33301 -79 -7s-54.5 -14.5 -79.5 -29.5s-45.5 -37.667 -61.5 -68s-24 -71.166 -24 -122.499v-557
h-391v1133h291l61 -181h19c20.667 37.333 47.167 71.166 79.5 101.499s68.666 54.5 108.999 72.5s81.833 27 124.5 27zM537.003 -124.999l-0.00195312 -22.002c-16 -36.667 -32 -71.334 -48 -104.001s-33.5 -65.167 -52.5 -97.5s-41.5 -67.166 -67.5 -104.499h-234v29
c8 28.667 15.333 61.334 22 98.001s12.334 72.834 17.001 108.501s7.33398 66.5 8.00098 92.5h355z" />
    <glyph glyph-name="Rcaron" unicode="&#x158;" horiz-adv-x="1386" 
d="M637 1462c132.667 0 243 -16.167 331 -48.5s154.167 -80.5 198.5 -144.5s66.5 -143.667 66.5 -239c0 -59.333 -10 -113.333 -30 -162s-48.5 -92.167 -85.5 -130.5s-81.167 -71.833 -132.5 -100.5l426 -637h-448l-310 532h-100v-532h-395v1462h479zM631 1163
l-78.001 -0.000976562v-334h74c60.667 0 110.334 13.333 149.001 40s58 74.334 58 143.001c0 47.333 -16 84.333 -48 111s-83.667 40 -155 40zM501.999 1571c-20 31.333 -45.332 65.5 -75.999 102.5s-62.167 72.833 -94.5 107.5s-61.5 64.334 -87.5 89.001v29h258
c36 -22.667 68.5 -45.5 97.5 -68.5s61.5 -50.167 97.5 -81.5c35.333 31.333 68.666 59 99.999 83s64.666 46.333 99.999 67h254v-29l-82 -87c-32 -34.667 -63.667 -70.834 -95 -108.501s-57.666 -72.167 -78.999 -103.5h-393z" />
    <glyph glyph-name="rcaron" unicode="&#x159;" horiz-adv-x="961" 
d="M819 1153c21.333 0 43.6689 -1.49902 67.002 -4.49902s40.666 -5.5 51.999 -7.5l-35 -369c-12.667 3.33301 -29 6.16602 -49 8.49902s-48 3.5 -84 3.5c-24.667 0 -51 -2.33301 -79 -7s-54.5 -14.5 -79.5 -29.5s-45.5 -37.667 -61.5 -68s-24 -71.166 -24 -122.499v-557
h-391v1133h291l61 -181h19c20.667 37.333 47.167 71.166 79.5 101.499s68.666 54.5 108.999 72.5s81.833 27 124.5 27zM322.003 1241c-20 31.333 -45.332 65.5 -75.999 102.5s-62.167 72.833 -94.5 107.5s-61.5 64.334 -87.5 89.001v29h258
c36 -22.667 68.5 -45.5 97.5 -68.5s61.5 -50.167 97.5 -81.5c35.333 31.333 68.666 59 99.999 83s64.666 46.333 99.999 67h254v-29l-82 -87c-32 -34.667 -63.667 -70.834 -95 -108.501s-57.666 -72.167 -78.999 -103.5h-393z" />
    <glyph glyph-name="Sacute" unicode="&#x15a;" horiz-adv-x="1182" 
d="M1114 444c0 -79.333 -20 -154.499 -60 -225.499s-102.167 -128.5 -186.5 -172.5s-193.166 -66 -326.499 -66c-66.667 0 -125.167 3 -175.5 9s-97.166 15.833 -140.499 29.5s-88.333 31.5 -135 53.5v352c79.333 -40 159.333 -70.5 240 -91.5s153.667 -31.5 219 -31.5
c39.333 0 71.5 4.66699 96.5 14s43.5 22.166 55.5 38.499s18 35.166 18 56.499c0 25.333 -8.83301 46.833 -26.5 64.5s-45.834 36.167 -84.501 55.5s-89.667 43.333 -153 72c-54 25.333 -102.833 51.333 -146.5 78s-81 57.167 -112 91.5s-54.833 74.5 -71.5 120.5
s-25 100.333 -25 163c0 94 23.167 172.833 69.5 236.5s111 111.5 194 143.5s178.833 48 287.5 48c95.333 0 181.166 -10.667 257.499 -32s144.833 -45.666 205.5 -72.999l-121 -305c-62.667 28.667 -124.334 51.5 -185.001 68.5s-117 25.5 -169 25.5
c-34 0 -61.833 -4.16699 -83.5 -12.5s-37.667 -19.5 -48 -33.5s-15.5 -30 -15.5 -48c0 -22.667 8.83301 -43 26.5 -61s47.334 -37.5 89.001 -58.5s98.5 -48.167 170.5 -81.5c71.333 -32 132 -66.5 182 -103.5s88.167 -81.333 114.5 -133s39.5 -115.5 39.5 -191.5zM1079 1899
v-21.001c-24 -19.333 -54.667 -42.833 -92 -70.5l-118.5 -86l-121 -84.5c-39 -26.667 -72.5 -48.667 -100.5 -66h-260v29l84 90.5l98 107.5c32.667 36.667 60 70.334 82 101.001h428z" />
    <glyph glyph-name="sacute" unicode="&#x15b;" horiz-adv-x="1059" 
d="M977 348c0 -72 -15.9971 -135.672 -47.9971 -191.005s-83.167 -98.666 -153.5 -129.999s-162.833 -47 -277.5 -47c-80.667 0 -152.834 4.33301 -216.501 13s-128.167 25.334 -193.5 50.001v313c71.333 -32.667 144 -56.167 218 -70.5s132.333 -21.5 175 -21.5
c44 0 76.167 4.83301 96.5 14.5s30.5 24.167 30.5 43.5c0 16.667 -6.83301 30.834 -20.5 42.501s-38 25.167 -73 40.5l-147.5 62c-62.667 26 -114.834 54.333 -156.501 85s-72.834 67.334 -93.501 110.001s-31 95 -31 157c0 110.667 42.667 194 128 250s198.333 84 339 84
c74.667 0 145 -8.16699 211 -24.5s134.333 -40.166 205 -71.499l-107 -252c-56 25.333 -112.667 45.666 -170 60.999s-103 23 -137 23c-30.667 0 -54.334 -4 -71.001 -12s-25 -19.667 -25 -35c0 -14 5.83301 -26.333 17.5 -37s33.834 -23 66.501 -37l143 -59
c66 -26.667 120.5 -55.167 163.5 -85.5s75 -67.166 96 -110.499s31.5 -98.333 31.5 -165zM1001 1569v-21.001c-24 -19.333 -54.667 -42.833 -92 -70.5l-118.5 -86l-121 -84.5c-39 -26.667 -72.5 -48.667 -100.5 -66h-260v29l84 90.5l98 107.5
c32.667 36.667 60 70.334 82 101.001h428z" />
    <glyph glyph-name="Scircumflex" unicode="&#x15c;" horiz-adv-x="1182" 
d="M1114 444c0 -79.333 -20 -154.499 -60 -225.499s-102.167 -128.5 -186.5 -172.5s-193.166 -66 -326.499 -66c-66.667 0 -125.167 3 -175.5 9s-97.166 15.833 -140.499 29.5s-88.333 31.5 -135 53.5v352c79.333 -40 159.333 -70.5 240 -91.5s153.667 -31.5 219 -31.5
c39.333 0 71.5 4.66699 96.5 14s43.5 22.166 55.5 38.499s18 35.166 18 56.499c0 25.333 -8.83301 46.833 -26.5 64.5s-45.834 36.167 -84.501 55.5s-89.667 43.333 -153 72c-54 25.333 -102.833 51.333 -146.5 78s-81 57.167 -112 91.5s-54.833 74.5 -71.5 120.5
s-25 100.333 -25 163c0 94 23.167 172.833 69.5 236.5s111 111.5 194 143.5s178.833 48 287.5 48c95.333 0 181.166 -10.667 257.499 -32s144.833 -45.666 205.5 -72.999l-121 -305c-62.667 28.667 -124.334 51.5 -185.001 68.5s-117 25.5 -169 25.5
c-34 0 -61.833 -4.16699 -83.5 -12.5s-37.667 -19.5 -48 -33.5s-15.5 -30 -15.5 -48c0 -22.667 8.83301 -43 26.5 -61s47.334 -37.5 89.001 -58.5s98.5 -48.167 170.5 -81.5c71.333 -32 132 -66.5 182 -103.5s88.167 -81.333 114.5 -133s39.5 -115.5 39.5 -191.5zM792 1899
c21.333 -31.333 47.665 -65.833 78.998 -103.5s63 -73.834 95 -108.501l82 -87v-29h-254c-35.333 20.667 -68.666 43.167 -99.999 67.5s-64.666 51.833 -99.999 82.5l-97.5 -81c-29 -23.333 -61.5 -46.333 -97.5 -69h-258v29c26 24.667 55.167 54.334 87.5 89.001
s63.833 70.5 94.5 107.5s56 71.167 76 102.5h393z" />
    <glyph glyph-name="scircumflex" unicode="&#x15d;" horiz-adv-x="1059" 
d="M977 348c0 -72 -15.9971 -135.672 -47.9971 -191.005s-83.167 -98.666 -153.5 -129.999s-162.833 -47 -277.5 -47c-80.667 0 -152.834 4.33301 -216.501 13s-128.167 25.334 -193.5 50.001v313c71.333 -32.667 144 -56.167 218 -70.5s132.333 -21.5 175 -21.5
c44 0 76.167 4.83301 96.5 14.5s30.5 24.167 30.5 43.5c0 16.667 -6.83301 30.834 -20.5 42.501s-38 25.167 -73 40.5l-147.5 62c-62.667 26 -114.834 54.333 -156.501 85s-72.834 67.334 -93.501 110.001s-31 95 -31 157c0 110.667 42.667 194 128 250s198.333 84 339 84
c74.667 0 145 -8.16699 211 -24.5s134.333 -40.166 205 -71.499l-107 -252c-56 25.333 -112.667 45.666 -170 60.999s-103 23 -137 23c-30.667 0 -54.334 -4 -71.001 -12s-25 -19.667 -25 -35c0 -14 5.83301 -26.333 17.5 -37s33.834 -23 66.501 -37l143 -59
c66 -26.667 120.5 -55.167 163.5 -85.5s75 -67.166 96 -110.499s31.5 -98.333 31.5 -165zM715.003 1569c21.333 -31.333 47.665 -65.833 78.998 -103.5s63 -73.834 95 -108.501l82 -87v-29h-254c-35.333 20.667 -68.666 43.167 -99.999 67.5s-64.666 51.833 -99.999 82.5
l-97.5 -81c-29 -23.333 -61.5 -46.333 -97.5 -69h-258v29c26 24.667 55.167 54.334 87.5 89.001s63.833 70.5 94.5 107.5s56 71.167 76 102.5h393z" />
    <glyph glyph-name="Scedilla" unicode="&#x15e;" horiz-adv-x="1182" 
d="M1114 444c0 -79.333 -20 -154.499 -60 -225.499s-102.167 -128.5 -186.5 -172.5s-193.166 -66 -326.499 -66c-66.667 0 -125.167 3 -175.5 9s-97.166 15.833 -140.499 29.5s-88.333 31.5 -135 53.5v352c79.333 -40 159.333 -70.5 240 -91.5s153.667 -31.5 219 -31.5
c39.333 0 71.5 4.66699 96.5 14s43.5 22.166 55.5 38.499s18 35.166 18 56.499c0 25.333 -8.83301 46.833 -26.5 64.5s-45.834 36.167 -84.501 55.5s-89.667 43.333 -153 72c-54 25.333 -102.833 51.333 -146.5 78s-81 57.167 -112 91.5s-54.833 74.5 -71.5 120.5
s-25 100.333 -25 163c0 94 23.167 172.833 69.5 236.5s111 111.5 194 143.5s178.833 48 287.5 48c95.333 0 181.166 -10.667 257.499 -32s144.833 -45.666 205.5 -72.999l-121 -305c-62.667 28.667 -124.334 51.5 -185.001 68.5s-117 25.5 -169 25.5
c-34 0 -61.833 -4.16699 -83.5 -12.5s-37.667 -19.5 -48 -33.5s-15.5 -30 -15.5 -48c0 -22.667 8.83301 -43 26.5 -61s47.334 -37.5 89.001 -58.5s98.5 -48.167 170.5 -81.5c71.333 -32 132 -66.5 182 -103.5s88.167 -81.333 114.5 -133s39.5 -115.5 39.5 -191.5z
M828 -251.999c0 -72.667 -25.001 -130.834 -75.001 -174.501s-116.667 -65.5 -200 -65.5c-46.667 0 -89 3.66699 -127 11s-69.333 15.333 -94 24v193c22.667 -7.33301 44.834 -13 66.501 -17s43.834 -6 66.501 -6c25.333 0 45.333 5.33301 60 16s22 24.667 22 42
c0 23.333 -11.167 41.833 -33.5 55.5s-59.5 25.167 -111.5 34.5l61 139h195l-19 -61c27.333 -6 55.666 -15.667 84.999 -29s54 -32.666 74 -57.999s30 -60 30 -104z" />
    <glyph glyph-name="scedilla" unicode="&#x15f;" horiz-adv-x="1059" 
d="M977 348c0 -72 -15.9971 -135.672 -47.9971 -191.005s-83.167 -98.666 -153.5 -129.999s-162.833 -47 -277.5 -47c-80.667 0 -152.834 4.33301 -216.501 13s-128.167 25.334 -193.5 50.001v313c71.333 -32.667 144 -56.167 218 -70.5s132.333 -21.5 175 -21.5
c44 0 76.167 4.83301 96.5 14.5s30.5 24.167 30.5 43.5c0 16.667 -6.83301 30.834 -20.5 42.501s-38 25.167 -73 40.5l-147.5 62c-62.667 26 -114.834 54.333 -156.501 85s-72.834 67.334 -93.501 110.001s-31 95 -31 157c0 110.667 42.667 194 128 250s198.333 84 339 84
c74.667 0 145 -8.16699 211 -24.5s134.333 -40.166 205 -71.499l-107 -252c-56 25.333 -112.667 45.666 -170 60.999s-103 23 -137 23c-30.667 0 -54.334 -4 -71.001 -12s-25 -19.667 -25 -35c0 -14 5.83301 -26.333 17.5 -37s33.834 -23 66.501 -37l143 -59
c66 -26.667 120.5 -55.167 163.5 -85.5s75 -67.166 96 -110.499s31.5 -98.333 31.5 -165zM750.003 -252.005c0 -72.667 -25.001 -130.834 -75.001 -174.501s-116.667 -65.5 -200 -65.5c-46.667 0 -89 3.66699 -127 11s-69.333 15.333 -94 24v193
c22.667 -7.33301 44.834 -13 66.501 -17s43.834 -6 66.501 -6c25.333 0 45.333 5.33301 60 16s22 24.667 22 42c0 23.333 -11.167 41.833 -33.5 55.5s-59.5 25.167 -111.5 34.5l61 139h195l-19 -61c27.333 -6 55.666 -15.667 84.999 -29s54 -32.666 74 -57.999
s30 -60 30 -104z" />
    <glyph glyph-name="Scaron" unicode="&#x160;" horiz-adv-x="1182" 
d="M1114 444c0 -79.333 -20 -154.499 -60 -225.499s-102.167 -128.5 -186.5 -172.5s-193.166 -66 -326.499 -66c-66.667 0 -125.167 3 -175.5 9s-97.166 15.833 -140.499 29.5s-88.333 31.5 -135 53.5v352c79.333 -40 159.333 -70.5 240 -91.5s153.667 -31.5 219 -31.5
c39.333 0 71.5 4.66699 96.5 14s43.5 22.166 55.5 38.499s18 35.166 18 56.499c0 25.333 -8.83301 46.833 -26.5 64.5s-45.834 36.167 -84.501 55.5s-89.667 43.333 -153 72c-54 25.333 -102.833 51.333 -146.5 78s-81 57.167 -112 91.5s-54.833 74.5 -71.5 120.5
s-25 100.333 -25 163c0 94 23.167 172.833 69.5 236.5s111 111.5 194 143.5s178.833 48 287.5 48c95.333 0 181.166 -10.667 257.499 -32s144.833 -45.666 205.5 -72.999l-121 -305c-62.667 28.667 -124.334 51.5 -185.001 68.5s-117 25.5 -169 25.5
c-34 0 -61.833 -4.16699 -83.5 -12.5s-37.667 -19.5 -48 -33.5s-15.5 -30 -15.5 -48c0 -22.667 8.83301 -43 26.5 -61s47.334 -37.5 89.001 -58.5s98.5 -48.167 170.5 -81.5c71.333 -32 132 -66.5 182 -103.5s88.167 -81.333 114.5 -133s39.5 -115.5 39.5 -191.5zM399 1571
c-20 31.333 -45.332 65.5 -75.999 102.5s-62.167 72.833 -94.5 107.5s-61.5 64.334 -87.5 89.001v29h258c36 -22.667 68.5 -45.5 97.5 -68.5s61.5 -50.167 97.5 -81.5c35.333 31.333 68.666 59 99.999 83s64.666 46.333 99.999 67h254v-29l-82 -87
c-32 -34.667 -63.667 -70.834 -95 -108.501s-57.666 -72.167 -78.999 -103.5h-393z" />
    <glyph glyph-name="scaron" unicode="&#x161;" horiz-adv-x="1059" 
d="M977 348c0 -72 -15.9971 -135.672 -47.9971 -191.005s-83.167 -98.666 -153.5 -129.999s-162.833 -47 -277.5 -47c-80.667 0 -152.834 4.33301 -216.501 13s-128.167 25.334 -193.5 50.001v313c71.333 -32.667 144 -56.167 218 -70.5s132.333 -21.5 175 -21.5
c44 0 76.167 4.83301 96.5 14.5s30.5 24.167 30.5 43.5c0 16.667 -6.83301 30.834 -20.5 42.501s-38 25.167 -73 40.5l-147.5 62c-62.667 26 -114.834 54.333 -156.501 85s-72.834 67.334 -93.501 110.001s-31 95 -31 157c0 110.667 42.667 194 128 250s198.333 84 339 84
c74.667 0 145 -8.16699 211 -24.5s134.333 -40.166 205 -71.499l-107 -252c-56 25.333 -112.667 45.666 -170 60.999s-103 23 -137 23c-30.667 0 -54.334 -4 -71.001 -12s-25 -19.667 -25 -35c0 -14 5.83301 -26.333 17.5 -37s33.834 -23 66.501 -37l143 -59
c66 -26.667 120.5 -55.167 163.5 -85.5s75 -67.166 96 -110.499s31.5 -98.333 31.5 -165zM322.003 1241c-20 31.333 -45.332 65.5 -75.999 102.5s-62.167 72.833 -94.5 107.5s-61.5 64.334 -87.5 89.001v29h258c36 -22.667 68.5 -45.5 97.5 -68.5s61.5 -50.167 97.5 -81.5
c35.333 31.333 68.666 59 99.999 83s64.666 46.333 99.999 67h254v-29l-82 -87c-32 -34.667 -63.667 -70.834 -95 -108.501s-57.666 -72.167 -78.999 -103.5h-393z" />
    <glyph glyph-name="uni0162" unicode="&#x162;" horiz-adv-x="1210" 
d="M803 0h-395v1139h-357v323h1108v-323h-356v-1139zM842 -252c0 -72.667 -25.001 -130.834 -75.001 -174.501s-116.667 -65.5 -200 -65.5c-46.667 0 -89 3.66699 -127 11s-69.333 15.333 -94 24v193c22.667 -7.33301 44.834 -13 66.501 -17s43.834 -6 66.501 -6
c25.333 0 45.333 5.33301 60 16s22 24.667 22 42c0 23.333 -11.167 41.833 -33.5 55.5s-59.5 25.167 -111.5 34.5l61 139h195l-19 -61c27.333 -6 55.666 -15.667 84.999 -29s54 -32.666 74 -57.999s30 -60 30 -104z" />
    <glyph glyph-name="uni0163" unicode="&#x163;" horiz-adv-x="942" 
d="M690 289c35.333 0 67.668 3.66895 97.001 11.002s60 16.666 92 27.999v-285c-42.667 -18.667 -87.834 -33.834 -135.501 -45.501s-108.5 -17.5 -182.5 -17.5c-73.333 0 -138 11.5 -194 34.5s-99.5 63 -130.5 120s-46.5 136.5 -46.5 238.5v467h-137v159l174 123l101 238
h256v-227h278v-293h-278v-441c0 -36.667 9.33301 -64.167 28 -82.5s44.667 -27.5 78 -27.5zM777.002 -251.998c0 -72.667 -25.001 -130.834 -75.001 -174.501s-116.667 -65.5 -200 -65.5c-46.667 0 -89 3.66699 -127 11s-69.333 15.333 -94 24v193
c22.667 -7.33301 44.834 -13 66.501 -17s43.834 -6 66.501 -6c25.333 0 45.333 5.33301 60 16s22 24.667 22 42c0 23.333 -11.167 41.833 -33.5 55.5s-59.5 25.167 -111.5 34.5l61 139h195l-19 -61c27.333 -6 55.666 -15.667 84.999 -29s54 -32.666 74 -57.999
s30 -60 30 -104z" />
    <glyph glyph-name="Tcaron" unicode="&#x164;" horiz-adv-x="1210" 
d="M803 0h-395v1139h-357v323h1108v-323h-356v-1139zM414 1571c-20 31.333 -45.332 65.5 -75.999 102.5s-62.167 72.833 -94.5 107.5s-61.5 64.334 -87.5 89.001v29h258c36 -22.667 68.5 -45.5 97.5 -68.5s61.5 -50.167 97.5 -81.5c35.333 31.333 68.666 59 99.999 83
s64.666 46.333 99.999 67h254v-29l-82 -87c-32 -34.667 -63.667 -70.834 -95 -108.501s-57.666 -72.167 -78.999 -103.5h-393z" />
    <glyph glyph-name="tcaron" unicode="&#x165;" horiz-adv-x="942" 
d="M690 289c35.333 0 67.668 3.66895 97.001 11.002s60 16.666 92 27.999v-285c-42.667 -18.667 -87.834 -33.834 -135.501 -45.501s-108.5 -17.5 -182.5 -17.5c-73.333 0 -138 11.5 -194 34.5s-99.5 63 -130.5 120s-46.5 136.5 -46.5 238.5v467h-137v159l174 123l101 238
h256v-227h278v-293h-278v-441c0 -36.667 9.33301 -64.167 28 -82.5s44.667 -27.5 78 -27.5zM1295 1556l0.00195312 -22l-55.5 -97l-56 -97l-67.5 -111h-233v28c5.33301 20 10.666 42.667 15.999 68l16 78.5c5.33301 27 10.166 53.667 14.499 80s7.83301 50.5 10.5 72.5h355z
" />
    <glyph glyph-name="Tbar" unicode="&#x166;" horiz-adv-x="1210" 
d="M408 0v547h-207v325h207v267h-357v323h1108v-323h-356v-267h211v-325h-211v-547h-395z" />
    <glyph glyph-name="tbar" unicode="&#x167;" horiz-adv-x="983" 
d="M74 444v244h753v-244h-753zM690 289c35.333 0 67.668 3.66895 97.001 11.002s60 16.666 92 27.999v-285c-42.667 -18.667 -87.834 -33.834 -135.501 -45.501s-108.5 -17.5 -182.5 -17.5c-73.333 0 -138 11.5 -194 34.5s-99.5 63 -130.5 120s-46.5 136.5 -46.5 238.5v467
h-137v159l174 123l101 238h256v-227h278v-293h-278v-441c0 -36.667 9.33301 -64.167 28 -82.5s44.667 -27.5 78 -27.5z" />
    <glyph glyph-name="Utilde" unicode="&#x168;" horiz-adv-x="1550" 
d="M1401 1462v-880c0 -122.667 -23.333 -229.167 -70 -319.5s-116.667 -160 -210 -209s-210.333 -73.5 -351 -73.5c-201.333 0 -355 51.667 -461 155s-159 249.333 -159 438v889h397v-858c0 -103.333 19.333 -178.333 58 -225s95.667 -70 171 -70c54 0 98 10.167 132 30.5
s58.833 52.5 74.5 96.5s23.5 100.667 23.5 170v856h395zM352 1567c4 62.667 12.4971 115.668 25.4971 159.001s30 78.5 51 105.5s46.333 46.667 76 59s62.834 18.5 99.501 18.5c25.333 0 52.333 -4.83301 81 -14.5s57.667 -20.834 87 -33.501s58.166 -23.834 86.499 -33.501
s55.5 -14.5 81.5 -14.5c12 0 25.167 5.66699 39.5 17s24.833 38.333 31.5 81h183c-8.66699 -122.667 -35.5 -210.334 -80.5 -263.001s-100.167 -79 -165.5 -79c-30 0 -60.167 4.83301 -90.5 14.5s-60.166 20.834 -89.499 33.501s-57.666 23.834 -84.999 33.501
s-53.666 14.5 -78.999 14.5c-12.667 0 -25.667 -5.33301 -39 -16s-24.333 -38 -33 -82h-180z" />
    <glyph glyph-name="utilde" unicode="&#x169;" horiz-adv-x="1372" 
d="M1237 1133v-1133h-295l-49 141h-23c-23.333 -38 -52.833 -68.833 -88.5 -92.5s-75.167 -41 -118.5 -52s-88.333 -16.5 -135 -16.5c-74 0 -140.833 14.333 -200.5 43s-107 73.667 -142 135s-52.5 140.333 -52.5 237v738h391v-619c0 -73.333 10.5 -129.166 31.5 -167.499
s55.5 -57.5 103.5 -57.5c49.333 0 87.5 13.333 114.5 40s45.833 66 56.5 118s16 115.333 16 190v496h391zM262 1237c4 62.667 12.4971 115.668 25.4971 159.001s30 78.5 51 105.5s46.333 46.667 76 59s62.834 18.5 99.501 18.5c25.333 0 52.333 -4.83301 81 -14.5
s57.667 -20.834 87 -33.501s58.166 -23.834 86.499 -33.501s55.5 -14.5 81.5 -14.5c12 0 25.167 5.66699 39.5 17s24.833 38.333 31.5 81h183c-8.66699 -122.667 -35.5 -210.334 -80.5 -263.001s-100.167 -79 -165.5 -79c-30 0 -60.167 4.83301 -90.5 14.5
s-60.166 20.834 -89.499 33.501s-57.666 23.834 -84.999 33.501s-53.666 14.5 -78.999 14.5c-12.667 0 -25.667 -5.33301 -39 -16s-24.333 -38 -33 -82h-180z" />
    <glyph glyph-name="Umacron" unicode="&#x16a;" horiz-adv-x="1550" 
d="M1401 1462v-880c0 -122.667 -23.333 -229.167 -70 -319.5s-116.667 -160 -210 -209s-210.333 -73.5 -351 -73.5c-201.333 0 -355 51.667 -461 155s-159 249.333 -159 438v889h397v-858c0 -103.333 19.333 -178.333 58 -225s95.667 -70 171 -70c54 0 98 10.167 132 30.5
s58.833 52.5 74.5 96.5s23.5 100.667 23.5 170v856h395zM1147 1807v-236h-727v236h727z" />
    <glyph glyph-name="umacron" unicode="&#x16b;" horiz-adv-x="1372" 
d="M1237 1133v-1133h-295l-49 141h-23c-23.333 -38 -52.833 -68.833 -88.5 -92.5s-75.167 -41 -118.5 -52s-88.333 -16.5 -135 -16.5c-74 0 -140.833 14.333 -200.5 43s-107 73.667 -142 135s-52.5 140.333 -52.5 237v738h391v-619c0 -73.333 10.5 -129.166 31.5 -167.499
s55.5 -57.5 103.5 -57.5c49.333 0 87.5 13.333 114.5 40s45.833 66 56.5 118s16 115.333 16 190v496h391zM1057 1477v-236h-727v236h727z" />
    <glyph glyph-name="Ubreve" unicode="&#x16c;" horiz-adv-x="1550" 
d="M1401 1462v-880c0 -122.667 -23.333 -229.167 -70 -319.5s-116.667 -160 -210 -209s-210.333 -73.5 -351 -73.5c-201.333 0 -355 51.667 -461 155s-159 249.333 -159 438v889h397v-858c0 -103.333 19.333 -178.333 58 -225s95.667 -70 171 -70c54 0 98 10.167 132 30.5
s58.833 52.5 74.5 96.5s23.5 100.667 23.5 170v856h395zM1186 1942c-4.66699 -74 -23.5 -138.833 -56.5 -194.5s-79.167 -99 -138.5 -130s-130.333 -46.5 -213 -46.5c-130 0 -228 33.167 -294 99.5s-101.667 156.833 -107 271.5h211c10 -38 22.5 -66.333 37.5 -85
s34.833 -31 59.5 -37s55.667 -9 93 -9c29.333 0 56.5 3.5 81.5 10.5s46.833 20 65.5 39s32.667 46.167 42 81.5h219z" />
    <glyph glyph-name="ubreve" unicode="&#x16d;" horiz-adv-x="1372" 
d="M1237 1133v-1133h-295l-49 141h-23c-23.333 -38 -52.833 -68.833 -88.5 -92.5s-75.167 -41 -118.5 -52s-88.333 -16.5 -135 -16.5c-74 0 -140.833 14.333 -200.5 43s-107 73.667 -142 135s-52.5 140.333 -52.5 237v738h391v-619c0 -73.333 10.5 -129.166 31.5 -167.499
s55.5 -57.5 103.5 -57.5c49.333 0 87.5 13.333 114.5 40s45.833 66 56.5 118s16 115.333 16 190v496h391zM1096 1612c-4.66699 -74 -23.5 -138.833 -56.5 -194.5s-79.167 -99 -138.5 -130s-130.333 -46.5 -213 -46.5c-130 0 -228 33.167 -294 99.5
s-101.667 156.833 -107 271.5h211c10 -38 22.5 -66.333 37.5 -85s34.833 -31 59.5 -37s55.667 -9 93 -9c29.333 0 56.5 3.5 81.5 10.5s46.833 20 65.5 39s32.667 46.167 42 81.5h219z" />
    <glyph glyph-name="Uring" unicode="&#x16e;" horiz-adv-x="1550" 
d="M1401 1462v-880c0 -122.667 -23.333 -229.167 -70 -319.5s-116.667 -160 -210 -209s-210.333 -73.5 -351 -73.5c-201.333 0 -355 51.667 -461 155s-159 249.333 -159 438v889h397v-858c0 -103.333 19.333 -178.333 58 -225s95.667 -70 171 -70c54 0 98 10.167 132 30.5
s58.833 52.5 74.5 96.5s23.5 100.667 23.5 170v856h395zM776 1567c-78.667 0 -142.334 22.5 -191.001 67.5s-73 106.5 -73 184.5c0 79.333 24.333 141.5 73 186.5s112.334 67.5 191.001 67.5c75.333 0 139.5 -22.5 192.5 -67.5s79.5 -106.5 79.5 -184.5
c0 -78.667 -26.333 -140.667 -79 -186s-117 -68 -193 -68zM776 1735c23.333 0 43.166 7.83301 59.499 23.5s24.5 35.834 24.5 60.501c0 25.333 -8.16699 45.666 -24.5 60.999s-36.166 23 -59.499 23s-43.166 -7.66699 -59.499 -23s-24.5 -35.666 -24.5 -60.999
c0 -24.667 7.16699 -44.834 21.5 -60.501s35.166 -23.5 62.499 -23.5z" />
    <glyph glyph-name="uring" unicode="&#x16f;" horiz-adv-x="1372" 
d="M1237 1133v-1133h-295l-49 141h-23c-23.333 -38 -52.833 -68.833 -88.5 -92.5s-75.167 -41 -118.5 -52s-88.333 -16.5 -135 -16.5c-74 0 -140.833 14.333 -200.5 43s-107 73.667 -142 135s-52.5 140.333 -52.5 237v738h391v-619c0 -73.333 10.5 -129.166 31.5 -167.499
s55.5 -57.5 103.5 -57.5c49.333 0 87.5 13.333 114.5 40s45.833 66 56.5 118s16 115.333 16 190v496h391zM686 1237c-78.667 0 -142.334 22.5 -191.001 67.5s-73 106.5 -73 184.5c0 79.333 24.333 141.5 73 186.5s112.334 67.5 191.001 67.5
c75.333 0 139.5 -22.5 192.5 -67.5s79.5 -106.5 79.5 -184.5c0 -78.667 -26.333 -140.667 -79 -186s-117 -68 -193 -68zM686 1405c23.333 0 43.166 7.83301 59.499 23.5s24.5 35.834 24.5 60.501c0 25.333 -8.16699 45.666 -24.5 60.999s-36.166 23 -59.499 23
s-43.166 -7.66699 -59.499 -23s-24.5 -35.666 -24.5 -60.999c0 -24.667 7.16699 -44.834 21.5 -60.501s35.166 -23.5 62.499 -23.5z" />
    </font>
</defs>
</svg>
