<svg width="13" height="12" viewBox="0 0 13 12" fill="none" xmlns="http://www.w3.org/2000/svg">
<path d="M1.90428 10.5938C2.11462 10.5938 2.28513 10.4364 2.28513 10.2422C2.28513 10.048 2.11462 9.89062 1.90428 9.89062C1.69395 9.89062 1.52344 10.048 1.52344 10.2422C1.52344 10.4364 1.69395 10.5938 1.90428 10.5938Z" fill="#62D33E"/>
<path d="M11.0957 10.5938C11.306 10.5938 11.4766 10.4364 11.4766 10.2422C11.4766 10.048 11.306 9.89062 11.0957 9.89062C10.8854 9.89062 10.7148 10.048 10.7148 10.2422C10.7148 10.4364 10.8854 10.5938 11.0957 10.5938Z" fill="#62D33E"/>
<path d="M12.7396 6.8257C12.8951 6.77784 13 6.6435 13 6.49219V4.14844C13 3.95428 12.8294 3.79688 12.6191 3.79688H11.4765V2.97656C11.4765 2.13654 10.7362 1.45312 9.82615 1.45312H8.81053C8.60019 1.45312 8.42967 1.61053 8.42967 1.80469C8.42967 1.99884 8.60019 2.15625 8.81053 2.15625H9.82615C10.3162 2.15625 10.7148 2.52424 10.7148 2.97656V7.09777C9.68754 7.20307 8.79583 7.72901 8.24701 8.48438H5.83983V7.89844C5.83983 7.35649 5.39468 6.90893 4.82421 6.85041V5.85938H5.96678C6.17712 5.85938 6.34764 5.70197 6.34764 5.50781V4.80469C6.34764 4.22313 5.83508 3.75 5.20507 3.75H3.30077V2.57812H5.45897C5.66931 2.57812 5.83983 2.42072 5.83983 2.22656C5.83983 2.03241 5.66931 1.875 5.45897 1.875H3.30077V1.05469C3.30077 0.473133 2.78821 0 2.1582 0C1.52818 0 1.01562 0.473133 1.01562 1.05469V4.57031C1.01562 5.2811 1.64208 5.85938 2.4121 5.85938H2.53906V6.85041C1.96858 6.90893 1.52343 7.35649 1.52343 7.89844V8.51974C0.65528 8.68308 0 9.39328 0 10.2422C0 11.2114 0.854266 12 1.90429 12C2.82391 12 3.59332 11.3951 3.77027 10.5938H9.2297C9.40662 11.3951 10.176 12 11.0957 12C12.1457 12 13 11.2114 13 10.2422C13 9.39328 12.3447 8.68308 11.4765 8.51974V7.21432L12.7396 6.8257ZM11.4765 4.5H12.2383V6.23878L11.4765 6.47316V4.5ZM2.4121 5.15625C2.06209 5.15625 1.77734 4.8934 1.77734 4.57031V1.05469C1.77734 0.860836 1.94819 0.703125 2.1582 0.703125C2.3682 0.703125 2.53906 0.860836 2.53906 1.05469V4.10156C2.53906 4.29572 2.70958 4.45312 2.91991 4.45312H5.20507C5.41507 4.45312 5.58592 4.61084 5.58592 4.80469V5.15625H2.4121ZM4.06249 5.85938V6.84375H3.30077V5.85938H4.06249ZM1.90429 11.2969C1.27428 11.2969 0.761717 10.8237 0.761717 10.2422C0.761717 9.66063 1.27428 9.1875 1.90429 9.1875C2.53431 9.1875 3.04687 9.66063 3.04687 10.2422C3.04687 10.8237 2.53431 11.2969 1.90429 11.2969ZM2.28515 8.48438V7.89844C2.28515 7.70459 2.456 7.54688 2.66601 7.54688H4.69725C4.90726 7.54688 5.07811 7.70459 5.07811 7.89844V8.48438H2.28515ZM7.68923 9.89062H3.77027C3.71294 9.63098 3.59337 9.39199 3.42669 9.1875H7.86402C7.77797 9.41145 7.71855 9.6469 7.68923 9.89062ZM9.2297 9.89062H8.45699C8.62449 8.81447 9.54899 7.96109 10.7148 7.80647V8.51974C9.96976 8.65992 9.38156 9.20288 9.2297 9.89062ZM12.2383 10.2422C12.2383 10.8237 11.7257 11.2969 11.0957 11.2969C10.4657 11.2969 9.9531 10.8237 9.9531 10.2422C9.9531 9.66063 10.4657 9.1875 11.0957 9.1875C11.7257 9.1875 12.2383 9.66063 12.2383 10.2422Z" fill="#62D33E"/>
</svg>
