<svg width="15" height="11" viewBox="0 0 15 11" fill="none" xmlns="http://www.w3.org/2000/svg">
<path d="M13.533 0.528809H0.731529C0.32917 0.528809 0 0.857981 0 1.26032V9.30704C0 9.70935 0.32917 10.0386 0.731529 10.0386H13.533C13.9353 10.0386 14.2645 9.7094 14.2645 9.30704V1.26032C14.2645 0.857981 13.9353 0.528809 13.533 0.528809ZM13.2585 1.07741L7.55305 5.35685C7.45047 5.43492 7.293 5.48376 7.13222 5.48303C6.97147 5.48376 6.81403 5.43492 6.71142 5.35685L1.00601 1.07741H13.2585ZM10.2108 5.63922L13.3198 9.47972C13.3229 9.48356 13.3267 9.48649 13.33 9.48997H0.934492C0.937779 9.48632 0.941624 9.48356 0.944744 9.47972L4.05368 5.63922C4.14894 5.52145 4.13088 5.3488 4.01289 5.25332C3.89513 5.15807 3.72248 5.17612 3.62719 5.29392L0.548626 9.09691V1.42032L6.38242 5.79571C6.6017 5.95903 6.8685 6.03091 7.13219 6.03164C7.39553 6.03108 7.66254 5.9592 7.88197 5.79571L13.7158 1.42032V9.09686L10.6373 5.29392C10.542 5.17615 10.3692 5.15804 10.2516 5.25332C10.1336 5.34858 10.1155 5.52145 10.2108 5.63922Z" fill="#62D33E"/>
</svg>
