<svg width="26" height="26" viewBox="0 0 26 26" fill="none" xmlns="http://www.w3.org/2000/svg">
<g clip-path="url(#clip0_231_1159)">
<path d="M24 13.5C24 19.8513 19.0751 25 13 25C6.92487 25 2 19.8513 2 13.5C2 7.14873 6.92487 2 13 2C19.0751 2 24 7.14873 24 13.5Z" fill="white"/>
<path d="M13.004 0C20.2263 0.054964 26.0116 5.79463 26.0004 13.0163C25.9892 20.2614 20.2191 26.0061 12.9846 26C11.2726 26.0056 9.57638 25.6716 7.99435 25.0174C6.41232 24.3631 4.97588 23.4017 3.76823 22.1887C2.56058 20.9757 1.60573 19.5352 0.958974 17.9508C0.312218 16.3664 -0.0135855 14.6694 0.000433948 12.9583C0.0330218 5.73661 5.78579 0.0641246 13.004 0ZM13.0132 4.79815C12.4429 4.8694 11.8634 4.89994 11.3033 5.01801C10.1072 5.27357 8.98438 5.79609 8.01879 6.5465C7.0532 7.2969 6.26983 8.25578 5.72726 9.35143C5.18469 10.4471 4.89696 11.6511 4.88558 12.8736C4.8742 14.0961 5.13947 15.3053 5.66155 16.4108C5.7173 16.5388 5.73497 16.6802 5.71247 16.818C5.46093 18.0954 5.19208 19.3687 4.94054 20.6461C4.85704 21.0705 5.04238 21.2354 5.46908 21.1357C6.69112 20.8476 7.92029 20.5514 9.14947 20.2725C9.3014 20.2396 9.45976 20.2534 9.60366 20.3122C11.3797 21.1001 13.2066 21.2741 15.0866 20.7733C19.2059 19.6761 21.7406 15.6505 20.9666 11.4356C20.266 7.60335 16.8687 4.82156 13.0132 4.79815Z" fill="#27A71A"/>
<path d="M7.15817 18.8466C7.29158 18.2063 7.39443 17.5997 7.54821 17.0053C7.60769 16.806 7.62582 16.5967 7.60148 16.3901C7.57714 16.1836 7.51084 15.9842 7.40665 15.8042C6.87078 14.8236 6.62961 13.7092 6.71212 12.5949C6.90256 9.61565 9.01771 7.2807 11.8508 6.7616C13.4871 6.44265 15.1832 6.78647 16.5659 7.71741C17.9486 8.64835 18.9047 10.0902 19.2238 11.7257C19.5429 13.3612 19.1989 15.0564 18.2675 16.4384C17.3361 17.8204 15.8936 18.776 14.2572 19.0949C12.8002 19.4034 11.2807 19.1738 9.98007 18.4486C9.87224 18.3855 9.75242 18.3455 9.62827 18.3313C9.50412 18.3171 9.37837 18.329 9.25907 18.3661C8.64804 18.532 8.02684 18.6644 7.40869 18.8089C7.33231 18.8303 7.26204 18.8303 7.15817 18.8466ZM15.2186 16.8963C16.1504 16.9727 16.7869 16.3783 17.2808 15.5731C17.4987 15.2179 17.3286 14.8118 16.9335 14.6683C16.8378 14.6337 16.74 14.6062 16.6422 14.5777C16.35 14.4942 16.0485 14.4352 15.7664 14.3253C15.2573 14.1217 14.8499 14.1919 14.4792 14.6357C14.1737 15.0021 13.9762 15.0184 13.5688 14.7762C12.654 14.2323 11.8509 13.5197 11.2021 12.6763C10.9516 12.3516 10.9699 12.1623 11.2215 11.8295C11.309 11.7148 11.3956 11.5998 11.4811 11.4844C11.5489 11.3962 11.5912 11.2912 11.6036 11.1807C11.6159 11.0702 11.5979 10.9584 11.5514 10.8574C11.3477 10.3668 11.1298 9.87826 10.9007 9.39682C10.7062 8.98968 10.2815 8.88789 9.93017 9.17594C9.72714 9.35248 9.53942 9.54588 9.36905 9.75408C9.04947 10.1226 8.88265 10.5992 8.90264 11.0865C8.91761 11.742 9.1086 12.3815 9.45561 12.9379C10.3549 14.4166 11.6469 15.617 13.1879 16.4057C13.8114 16.7411 14.5107 16.91 15.2186 16.8963Z" fill="#27A71A"/>
</g>
<defs>
<clipPath id="clip0_231_1159">
<rect width="26" height="26" fill="white"/>
</clipPath>
</defs>
</svg>
