<svg width="26" height="26" viewBox="0 0 26 26" fill="none" xmlns="http://www.w3.org/2000/svg">
<g clip-path="url(#clip0_231_1153)">
<ellipse cx="13" cy="12.5" rx="11" ry="10.5" fill="white"/>
<path d="M0 12.9847C0 5.82902 5.85033 -0.0218712 13.0066 -0.00051392C14.7134 -0.00051405 16.4034 0.335712 17.9801 0.988958C19.5569 1.6422 20.9895 2.59967 22.1961 3.80666C23.4027 5.01365 24.3597 6.44652 25.0124 8.02342C25.6651 9.60031 26.0007 11.2903 26 12.9969C26.0183 20.1649 20.1436 26.0147 12.9812 25.9995C5.8188 25.9842 0 20.1476 0 12.9847ZM13.029 19.1631L13.0341 19.2262C14.0186 19.1346 15.0052 19.0594 15.9836 18.9465C16.6295 18.8722 17.2693 18.7543 17.8541 18.4309C19.7133 17.3996 20.6847 15.8141 20.7874 13.7028C20.8342 12.7325 20.8728 11.7572 20.8281 10.788C20.785 10.0624 20.6733 9.34254 20.4945 8.63802C20.2656 7.69219 19.6462 6.97418 18.9373 6.33854C18.3494 5.81173 17.6944 5.35916 16.9112 5.23C15.829 5.05304 14.7326 4.93405 13.6372 4.86184C12.8758 4.8227 12.1126 4.84004 11.3538 4.91371C10.5789 4.9633 9.80915 5.07519 9.05214 5.2483C7.66889 5.59307 6.67112 6.50127 5.9317 7.68812C5.71808 8.03385 5.56116 8.41153 5.46688 8.80684C5.11352 10.2921 5.0138 11.8263 5.17193 13.3448C5.24516 14.0729 5.32144 14.8245 5.55944 15.509C6.0924 17.0396 7.20815 18.0576 8.69921 18.6617C8.87008 18.7309 8.92907 18.8102 8.92501 18.9902C8.9128 19.4397 8.92501 19.8882 8.9189 20.3378C8.9189 20.6846 9.04197 20.948 9.36948 21.0904C9.66545 21.2185 9.94007 21.1453 10.2137 20.8636C10.6683 20.3957 11.129 19.931 11.5684 19.4499C11.7637 19.2363 11.96 19.1112 12.2672 19.155C12.5206 19.175 12.7752 19.1777 13.029 19.1631Z" fill="#6F3EA9"/>
<path d="M9.55487 18.9165C9.55487 18.5016 9.55487 18.0856 9.55487 17.6707C9.55487 17.4957 9.50198 17.4134 9.32501 17.3401C7.93668 16.7706 6.98569 15.8329 6.74973 14.2779C6.50556 12.762 6.50728 11.2167 6.75481 9.70132C6.99892 8.26225 8.16349 6.89233 9.47859 6.63807C10.3854 6.46672 11.303 6.35832 12.2247 6.31364C13.6044 6.24351 14.9875 6.33739 16.345 6.59332C17.2767 6.76723 17.9398 7.33168 18.5368 8.01104C19.0281 8.57345 19.1857 9.25485 19.2915 9.96676C19.5313 11.5781 19.481 13.2192 19.143 14.8128C19.1364 14.8546 19.1266 14.8957 19.1135 14.9359C18.6213 16.1909 17.7496 17.0716 16.4335 17.3828C15.2211 17.6676 13.9711 17.7347 12.7241 17.7073C12.6285 17.7018 12.5329 17.7184 12.4447 17.7558C12.3565 17.7932 12.2781 17.8504 12.2156 17.9229C11.4548 18.7192 10.6838 19.5064 9.91086 20.2915C9.82896 20.3558 9.73904 20.4091 9.64336 20.4502C9.60267 20.3569 9.57429 20.2588 9.55894 20.1583C9.54979 19.7464 9.55487 19.3304 9.55487 18.9165ZM13.6538 14.048C13.5143 14.0189 13.3765 13.9825 13.2408 13.9392C12.1647 13.5212 11.5026 12.7188 11.1141 11.656C11.0744 11.5661 11.0654 11.4657 11.0883 11.3701C11.1113 11.2746 11.165 11.1892 11.2412 11.1272C11.3358 11.0428 11.4375 10.9655 11.5341 10.8831C11.8016 10.6532 11.8922 10.338 11.702 10.0441C11.3765 9.53555 11.0205 9.05654 10.6574 8.57955C10.5903 8.48275 10.4878 8.41629 10.372 8.39458C10.2563 8.37288 10.1366 8.39768 10.039 8.46361C9.71736 8.66174 9.42033 8.8973 9.15414 9.16536C8.85613 9.48165 8.77578 9.87727 9.00768 10.2841C9.05642 10.3827 9.09822 10.4847 9.13278 10.5892C10.2068 13.2873 12.1444 15.0935 14.8366 16.1309C15.2211 16.2794 15.5618 16.254 15.8487 15.9956C16.1234 15.749 16.3648 15.4677 16.5667 15.1586C16.7701 14.8434 16.7122 14.6155 16.4121 14.3847C15.9843 14.0545 15.5456 13.7372 15.096 13.4328C14.7827 13.2212 14.4664 13.2822 14.2111 13.568C14.1422 13.6639 14.0664 13.7546 13.9843 13.8396C13.88 13.9176 13.7694 13.987 13.6538 14.047V14.048ZM13.1249 7.94595C13.0659 7.94595 13.0069 7.94595 12.9469 7.94595C12.7791 7.94595 12.6367 8.02121 12.657 8.18394C12.6682 8.27547 12.8147 8.3792 12.9235 8.4209C13.0617 8.46036 13.2049 8.47921 13.3486 8.47684C14.7187 8.57854 15.9524 9.60267 16.286 10.9431C16.3806 11.3255 16.3979 11.7282 16.4447 12.1218C16.465 12.2906 16.524 12.4351 16.7132 12.4269C16.9024 12.4188 16.9481 12.2835 16.9339 12.1218C16.9176 11.9184 16.9003 11.715 16.8841 11.5116C16.7982 10.5614 16.3685 9.6752 15.6757 9.01927C14.9828 8.36334 14.0743 7.98278 13.1208 7.94901L13.1249 7.94595ZM15.9168 11.5787H15.928C15.9066 11.4282 15.8883 11.2736 15.8619 11.1282C15.7484 10.537 15.4377 10.0018 14.9807 9.61002C14.5236 9.21822 13.9472 8.99298 13.3456 8.97111C13.2321 8.9664 13.1211 9.00534 13.0354 9.07993C12.9021 9.22943 13.0354 9.42266 13.2744 9.45114C13.8419 9.51826 14.3657 9.67793 14.7858 10.0919C14.9915 10.2943 15.1543 10.5362 15.2644 10.8031C15.3745 11.0699 15.4296 11.3562 15.4266 11.6448C15.4266 11.8259 15.4479 12.0191 15.6686 12.0201C15.9097 12.0201 15.9249 11.8167 15.9168 11.6306C15.9158 11.6153 15.9168 11.594 15.9168 11.5818V11.5787ZM13.6416 10.0319C13.4788 10.0135 13.3212 10.0319 13.2957 10.2281C13.2703 10.4244 13.4239 10.4966 13.6009 10.519C13.6171 10.519 13.6344 10.519 13.6507 10.519C13.8209 10.5259 13.984 10.5885 14.1152 10.697C14.2464 10.8056 14.3383 10.9542 14.3769 11.1201C14.4115 11.2411 14.4034 11.3804 14.4634 11.4842C14.4893 11.5314 14.5257 11.572 14.5698 11.6031C14.6139 11.6341 14.6644 11.6546 14.7176 11.6631C14.7868 11.6631 14.8946 11.5136 14.9007 11.4241C14.9145 11.249 14.8923 11.0728 14.8356 10.9065C14.7789 10.7402 14.6889 10.5872 14.571 10.4568C14.4532 10.3265 14.3099 10.2216 14.1501 10.1485C13.9903 10.0754 13.8172 10.0357 13.6416 10.0319V10.0319Z" fill="#6F3EA9"/>
</g>
<defs>
<clipPath id="clip0_231_1153">
<rect width="26" height="26" fill="white"/>
</clipPath>
</defs>
</svg>
