<svg width="16" height="20" viewBox="0 0 16 20" fill="none" xmlns="http://www.w3.org/2000/svg">
<path d="M2.10059 6.05012C1.81919 4.19668 3.12602 2.53184 5.12236 1.92188C5.47663 1.81357 5.85887 1.8444 6.19119 2.0081C6.52352 2.1718 6.78093 2.45605 6.91097 2.80293L7.55186 4.51197C7.65504 4.78691 7.67369 5.08641 7.60544 5.37203C7.53718 5.65765 7.38513 5.91635 7.1688 6.11494L5.26233 7.86082C5.16836 7.94706 5.09833 8.05618 5.05908 8.17753C5.01984 8.29889 5.01271 8.42835 5.03839 8.55328L5.05606 8.62989L5.10174 8.82143C5.33883 9.75204 5.70009 10.6465 6.17579 11.4808C6.69397 12.3673 7.33703 13.1746 8.0852 13.8778L8.14414 13.9309C8.23932 14.0154 8.35476 14.0738 8.47921 14.1003C8.60366 14.1269 8.73288 14.1208 8.85428 14.0826L11.3191 13.3062C11.5993 13.2183 11.8993 13.216 12.1807 13.2997C12.4621 13.3835 12.7121 13.5494 12.8985 13.7762L14.0654 15.192C14.5516 15.7814 14.4927 16.6477 13.9343 17.1678C12.4064 18.5925 10.3055 18.8842 8.84396 17.7099C7.05245 16.2649 5.54219 14.5024 4.38865 12.5106C3.22575 10.5204 2.44897 8.3285 2.09912 6.05012H2.10059ZM6.58389 8.65052L8.16329 7.20078C8.5962 6.80377 8.90059 6.28644 9.03736 5.71519C9.17413 5.14395 9.13706 4.54486 8.93089 3.99484L8.29147 2.28579C8.02973 1.5878 7.51169 1.01588 6.84293 0.686564C6.17416 0.357246 5.40499 0.295315 4.69216 0.513392C2.21256 1.27215 0.222112 3.49538 0.643481 6.27259C0.938144 8.21147 1.61734 10.6778 3.11571 13.2532C4.36023 15.4008 5.98935 17.3011 7.92167 18.8591C10.114 20.6197 13.04 20.0186 14.9405 18.2477C16.0691 17.1958 16.184 15.4484 15.2043 14.258L14.0374 12.8406C13.6641 12.3876 13.164 12.0563 12.6012 11.8894C12.0384 11.7224 11.4386 11.7274 10.8786 11.9036L8.83218 12.5474C8.3038 12.0027 7.84098 11.3979 7.45315 10.7456C7.07852 10.0861 6.78657 9.38291 6.58389 8.65199V8.65052Z" fill="white"/>
</svg>
