<svg width="30" height="30" viewBox="0 0 30 30" fill="none" xmlns="http://www.w3.org/2000/svg">
<circle cx="15" cy="15" r="15" fill="white"/>
<path d="M15 0C17.9668 0 20.8669 0.879735 23.3336 2.52796C25.8003 4.17618 27.7229 6.51886 28.8582 9.25975C29.9936 12.0006 30.2906 15.0166 29.7118 17.9263C29.1331 20.8361 27.7044 23.5088 25.6066 25.6066C23.5089 27.7044 20.8361 29.133 17.9264 29.7118C15.0167 30.2905 12.0007 29.9935 9.25977 28.8582C6.51887 27.7229 4.17618 25.8003 2.52796 23.3335C0.879736 20.8668 0 17.9667 0 15C0.0056686 11.0235 1.58784 7.21147 4.39967 4.39966C7.21149 1.58784 11.0235 0.00566858 15 0V0ZM6.46876 15V17.5446C6.46876 18.3924 6.46876 19.2402 6.46876 20.0893C6.48215 22.133 7.89109 23.5312 9.93752 23.5326C13.3197 23.5326 16.7009 23.5326 20.0813 23.5326C22.1183 23.5326 23.53 22.1183 23.5326 20.0732C23.5326 16.692 23.5326 13.3107 23.5326 9.92946C23.5363 9.67318 23.5157 9.41712 23.471 9.16473C23.159 7.6125 21.9335 6.50491 20.3491 6.48616C16.7786 6.44866 13.2081 6.47411 9.63484 6.47678C9.4677 6.47918 9.30122 6.49847 9.13796 6.53437C7.51743 6.87723 6.47948 8.1683 6.46876 9.88259C6.45805 11.5969 6.46876 13.2937 6.46876 15Z" fill="#62D33E"/>
<path d="M19.3688 13.2695H21.8478C21.8559 13.4035 21.8693 13.5294 21.8693 13.6579C21.8693 15.7776 21.8693 17.8973 21.8693 20.017C21.8693 21.2411 21.2385 21.8652 20.0063 21.8652C16.6706 21.8652 13.3349 21.8652 9.99918 21.8652C8.76436 21.8652 8.13757 21.2438 8.13623 20.017C8.13623 17.8964 8.13623 15.7767 8.13623 13.6579V13.2749H10.634C9.96436 15.5598 10.4344 17.5018 12.426 18.8638C14.0733 19.9902 15.8666 19.9982 17.5246 18.8973C19.5603 17.5446 20.0411 15.5812 19.3688 13.2695Z" fill="#62D33E"/>
<path d="M18.0054 14.9906C18.0073 15.5851 17.8328 16.1667 17.504 16.662C17.1753 17.1573 16.707 17.544 16.1585 17.7731C15.61 18.0023 15.0058 18.0636 14.4224 17.9493C13.839 17.8351 13.3026 17.5504 12.8811 17.1313C12.4595 16.7121 12.1717 16.1774 12.0541 15.5947C11.9364 15.012 11.9942 14.4075 12.2202 13.8576C12.4462 13.3078 12.8301 12.8373 13.3235 12.5057C13.8169 12.1741 14.3975 11.9962 14.992 11.9946C15.7877 11.9964 16.5505 12.312 17.1147 12.873C17.679 13.434 17.9991 14.195 18.0054 14.9906Z" fill="#62D33E"/>
<path d="M21.5385 11.3198H18.6938V8.46191H21.5385V11.3198Z" fill="#62D33E"/>
</svg>
