<svg width="11" height="16" viewBox="0 0 11 16" fill="none" xmlns="http://www.w3.org/2000/svg">
<path d="M5.47076 0C2.45418 0 0 2.45415 0 5.47068C0 6.48986 0.282322 7.48449 0.816633 8.3474L5.15936 15.3455C5.24254 15.4796 5.3891 15.561 5.54672 15.561C5.54793 15.561 5.54912 15.561 5.55033 15.561C5.70932 15.5598 5.85618 15.4758 5.93785 15.3394L10.1699 8.27349C10.6747 7.42881 10.9415 6.45962 10.9415 5.47068C10.9415 2.45415 8.48734 0 5.47076 0ZM9.38741 7.80538L5.53982 14.2294L1.5916 7.86702C1.14685 7.14878 0.905716 6.32015 0.905716 5.47068C0.905716 2.9569 2.95695 0.905701 5.47076 0.905701C7.98458 0.905701 10.0328 2.9569 10.0328 5.47068C10.0328 6.29496 9.80753 7.1024 9.38741 7.80538Z" fill="#62D33E"/>
<path d="M5.4707 2.73535C3.96243 2.73535 2.73535 3.96243 2.73535 5.4707C2.73535 6.96934 3.94246 8.20605 5.4707 8.20605C7.01779 8.20605 8.20605 6.95287 8.20605 5.4707C8.20605 3.96243 6.97898 2.73535 5.4707 2.73535ZM5.4707 7.30035C4.45993 7.30035 3.64106 6.47874 3.64106 5.4707C3.64106 4.46519 4.46519 3.64106 5.4707 3.64106C6.47622 3.64106 7.29731 4.46519 7.29731 5.4707C7.29731 6.46403 6.49749 7.30035 5.4707 7.30035Z" fill="#62D33E"/>
</svg>
