<svg width="10" height="15" viewBox="0 0 10 15" fill="none" xmlns="http://www.w3.org/2000/svg">
<path d="M8.35776 0C8.17601 0 8.00702 0.0557225 7.86695 0.150908C7.85708 0.148535 7.847 0.146572 7.8366 0.145576L6.57545 0.024375C6.45179 0.012539 6.32801 0.0536132 6.23599 0.137226C6.14397 0.22081 6.09124 0.340019 6.09124 0.464325V1.13927L5.02333 5.66056H4.68082C4.2578 5.66056 3.89446 5.94807 3.79726 6.35975L3.16098 9.0536C2.429 9.07126 1.72045 9.33605 1.15807 9.80512C1.06488 9.88284 1.05234 10.0214 1.13006 10.1146C1.20776 10.2078 1.34633 10.2203 1.43953 10.1426C1.94305 9.72265 2.58208 9.49138 3.23891 9.49138C3.94591 9.49138 4.62158 9.75476 5.14149 10.233C5.59858 10.6535 5.90078 11.207 6.0075 11.8113H0.470382C0.543712 11.3973 0.70968 11.0035 0.956829 10.6607C1.02779 10.5622 1.00552 10.4249 0.907083 10.3539C0.808674 10.283 0.67133 10.3052 0.600343 10.4037C0.259854 10.876 0.0525784 11.432 0.00086926 12.0115C-0.00460927 12.0729 0.0159866 12.1338 0.0576176 12.1793C0.0992485 12.2248 0.158077 12.2507 0.219747 12.2507H0.54342C0.543068 12.2684 0.542599 12.286 0.542599 12.3036C0.542599 13.7904 1.75218 15 3.23894 15C4.02343 15 4.76763 14.6592 5.28065 14.0649C5.35995 13.973 5.34976 13.8343 5.25794 13.755C5.16604 13.6757 5.02732 13.6859 4.94804 13.7777C4.51852 14.2752 3.89558 14.5605 3.23894 14.5605C1.9945 14.5605 0.982053 13.5481 0.982053 12.3036C0.982053 12.286 0.982463 12.2683 0.982873 12.2507H1.66573C1.66564 12.2571 1.66529 12.2636 1.66529 12.2701C1.66529 13.1378 2.37123 13.8438 3.23894 13.8438C4.10666 13.8438 4.81263 13.1378 4.81263 12.2701C4.81263 12.2636 4.81222 12.2572 4.81213 12.2507H5.49493C5.49534 12.2683 5.49583 12.2859 5.49583 12.3036C5.49583 12.6219 5.43094 12.9296 5.303 13.218C5.25378 13.3289 5.30379 13.4587 5.41474 13.5079C5.44371 13.5208 5.47395 13.5269 5.50374 13.5269C5.58797 13.5269 5.66833 13.4781 5.70469 13.3962C5.85771 13.0514 5.93529 12.6837 5.93529 12.3036C5.93529 12.286 5.93473 12.2683 5.93438 12.2507H6.25811C6.31975 12.2507 6.37861 12.2247 6.42024 12.1792C6.46187 12.1337 6.48244 12.0728 6.47696 12.0114C6.41664 11.3351 6.14716 10.7006 5.70888 10.1892C5.71248 10.1787 5.7155 10.168 5.71755 10.1568L7.31503 1.38457H7.64635C7.80534 1.60611 8.06491 1.75084 8.35779 1.75084C8.84052 1.75084 9.23322 1.35814 9.23322 0.875418C9.23319 0.392695 8.84049 0 8.35776 0V0ZM4.37317 12.2701C4.37317 12.8955 3.86437 13.4043 3.23894 13.4043C2.61354 13.4043 2.10474 12.8955 2.10474 12.2701C2.10474 12.2636 2.10506 12.2572 2.10518 12.2507H4.37268C4.37276 12.2572 4.37317 12.2637 4.37317 12.2701ZM4.22493 6.4608C4.27512 6.2484 4.46256 6.10004 4.68085 6.10004H4.91956L4.18893 9.19334C4.00022 9.13577 3.80587 9.09532 3.60797 9.07284L4.22493 6.4608ZM5.33291 9.81625C5.10961 9.62793 4.8641 9.47222 4.6031 9.35146L6.48484 1.38454H6.86834L5.33291 9.81625ZM7.13169 0.945115H6.53069V0.464355L6.53344 0.461864L7.54187 0.558778C7.50361 0.65704 7.48237 0.763768 7.48237 0.875448C7.48237 0.898944 7.48357 0.922117 7.48539 0.945145H7.13169V0.945115ZM8.35776 1.31138C8.11738 1.31138 7.9218 1.11583 7.9218 0.875418C7.9218 0.635009 8.11738 0.439452 8.35776 0.439452C8.59815 0.439452 8.79373 0.635009 8.79373 0.875418C8.79373 1.1158 8.59815 1.31138 8.35776 1.31138V1.31138Z" fill="#62D33E"/>
</svg>
