<svg width="12" height="12" viewBox="0 0 12 12" fill="none" xmlns="http://www.w3.org/2000/svg">
<path d="M11.3043 4.32195C10.872 3.95919 10.2252 4.01595 9.86307 4.44746L8.88984 5.59914V2.25955C8.88984 1.97965 8.77345 1.70859 8.57052 1.51586L7.27171 0.282068C7.08026 0.100185 6.82938 0 6.5653 0H1.02575C0.460162 0 0 0.460167 0 1.02576V10.6451C0 11.2107 0.460162 11.6709 1.02575 11.6709H7.86411C8.4297 11.6709 8.88986 11.2107 8.88986 10.6451V8.77682C8.93187 8.72706 11.4229 5.77635 11.4308 5.76708C11.7952 5.33278 11.7387 4.6864 11.3043 4.32195ZM6.83836 0.813561C8.20635 2.11307 8.1092 2.01808 8.13484 2.05155H6.83836V0.813561ZM8.20601 10.6451C8.20601 10.8337 8.05262 10.9871 7.86409 10.9871H1.02575C0.837214 10.9871 0.683827 10.8337 0.683827 10.6451V1.02576C0.683827 0.837223 0.837214 0.683834 1.02575 0.683834H6.15451V2.39343C6.15451 2.58226 6.3076 2.73536 6.49643 2.73536H8.20601V6.40833C8.05914 6.58212 6.87984 7.97762 6.75237 8.12845C6.65055 8.24982 6.57726 8.39541 6.54047 8.54948L6.22271 9.87972C6.19264 10.0057 6.2363 10.1379 6.3355 10.2211C6.43479 10.3044 6.57254 10.3243 6.69126 10.2729L7.94612 9.72895C8.04034 9.6881 8.12821 9.63262 8.20601 9.56594V10.6451ZM7.39275 8.43017L7.91654 8.86966L7.80005 9.00762C7.76616 9.04806 7.7226 9.08054 7.67416 9.10154L7.04675 9.37351L7.20565 8.70839C7.21792 8.65703 7.24233 8.6085 7.2755 8.56897L7.39275 8.43017ZM8.35764 8.34713L7.83411 7.90784C7.88722 7.845 9.60523 5.81198 9.72404 5.6714L10.2465 6.10978L8.35764 8.34713ZM10.9076 5.32672L10.6877 5.58727L10.1655 5.1491L10.3862 4.88793C10.5067 4.74425 10.7215 4.72552 10.8648 4.84578C11.011 4.9684 11.0271 5.18434 10.9076 5.32672Z" fill="#62D33E"/>
<path d="M5.12872 2.05078H1.7096C1.52076 2.05078 1.36768 2.20392 1.36768 2.39282C1.36768 2.58172 1.52076 2.73486 1.7096 2.73486H5.12872C5.31755 2.73486 5.47064 2.58172 5.47064 2.39282C5.47064 2.20392 5.31755 2.05078 5.12872 2.05078Z" fill="#62D33E"/>
<path d="M7.18018 4.125H1.70959C1.52076 4.125 1.36768 4.27803 1.36768 4.4668C1.36768 4.65556 1.52076 4.80859 1.70959 4.80859H7.18018C7.36901 4.80859 7.52209 4.65556 7.52209 4.4668C7.52209 4.27803 7.36901 4.125 7.18018 4.125Z" fill="#62D33E"/>
<path d="M7.18018 6.17627H1.70959C1.52076 6.17627 1.36768 6.32941 1.36768 6.51831C1.36768 6.70721 1.52076 6.86035 1.70959 6.86035H7.18018C7.36901 6.86035 7.52209 6.70721 7.52209 6.51831C7.52209 6.32939 7.36901 6.17627 7.18018 6.17627Z" fill="#62D33E"/>
<path d="M5.12872 8.22754H1.7096C1.52076 8.22754 1.36768 8.38068 1.36768 8.56958C1.36768 8.75848 1.52076 8.91162 1.7096 8.91162H5.12872C5.31755 8.91162 5.47064 8.75848 5.47064 8.56958C5.47064 8.38068 5.31755 8.22754 5.12872 8.22754Z" fill="#62D33E"/>
</svg>
