<svg width="15" height="11" viewBox="0 0 15 11" fill="none" xmlns="http://www.w3.org/2000/svg">
<path d="M12.1198 4.24314C11.9664 4.24314 11.8157 4.25538 11.6685 4.27861L10.5916 0.217896C10.5575 0.089493 10.4412 0 10.3084 0H8.09084C7.92902 0 7.79787 0.13115 7.79787 0.292969C7.79787 0.454789 7.92902 0.585939 8.09084 0.585939H10.083L10.2784 1.3226C9.0114 1.37204 7.90407 1.76697 6.97653 2.29249C6.14009 2.76044 5.42655 3.34843 4.83626 3.94502V1.76411C4.83626 1.60241 4.705 1.47114 4.5433 1.47114H2.51049C2.34878 1.47114 2.21752 1.60241 2.21752 1.76411C2.21752 1.92593 2.34878 2.05708 2.51049 2.05708H4.25033V4.58314C4.24941 4.58417 4.2485 4.5852 4.24758 4.58634C3.83834 4.36627 3.37177 4.24314 2.88013 4.24314C1.29204 4.24314 0 5.53518 0 7.12328C0 8.71138 1.29204 10.0034 2.88013 10.0034C4.12032 10.0034 5.21563 9.20805 5.60805 8.04739H7.9859C8.48646 8.04739 8.89364 7.64021 8.89364 7.13953C8.89364 6.74413 8.63947 6.40722 8.28596 6.28294C8.62997 5.71485 9.0494 5.03656 9.40691 4.50028C9.87017 3.8054 10.4998 3.53532 10.8388 3.43541L11.1022 4.4291C10.0149 4.84109 9.23983 5.89326 9.23983 7.12328C9.23983 8.71138 10.5319 10.0034 12.12 10.0034C13.708 10.0034 15 8.71138 15 7.12328C15 5.53518 13.7079 4.24314 12.1198 4.24314V4.24314ZM7.16204 2.8624C7.9423 2.41093 8.8378 2.07139 9.84682 1.95179C8.96368 3.07847 7.10219 3.51781 5.99864 3.68352C6.34207 3.39753 6.73106 3.11532 7.16204 2.8624ZM2.88013 9.41748C1.6151 9.41748 0.585936 8.38831 0.585936 7.12328C0.585936 5.85824 1.6151 4.82907 2.88013 4.82907C3.8578 4.82907 4.71164 5.43893 5.03676 6.33935C4.75158 6.49259 4.55714 6.7938 4.55714 7.13953C4.55714 7.48125 4.74689 7.77925 5.02658 7.93421C4.69321 8.81781 3.84132 9.41748 2.88013 9.41748ZM7.98579 7.46145H5.465C5.2875 7.46145 5.14308 7.31703 5.14308 7.13953C5.14308 6.96214 5.2875 6.81772 5.465 6.81772H7.98579C8.16328 6.81772 8.30771 6.96214 8.30771 7.13953C8.30771 7.31703 8.16328 7.46145 7.98579 7.46145V7.46145ZM8.91939 4.17527C8.71855 4.47648 8.49905 4.82095 8.28413 5.16576H7.00194C6.84012 5.16576 6.70897 5.29702 6.70897 5.45873C6.70897 5.62055 6.84012 5.7517 7.00194 5.7517H7.92319C7.82065 5.91981 7.72269 6.08186 7.63251 6.23178H5.61915C5.44955 5.70718 5.13896 5.25651 4.73556 4.91742C4.89486 4.7326 5.06698 4.54503 5.2518 4.35826C5.90686 4.31329 9.23353 3.98736 10.4673 2.08958L10.6793 2.8727C10.248 2.99985 9.48027 3.33379 8.91939 4.17527V4.17527ZM12.1198 9.41748C10.8548 9.41748 9.82565 8.38831 9.82565 7.12328C9.82565 6.16472 10.4168 5.34211 11.2535 4.99948L11.5364 6.06653C11.1647 6.27252 10.9124 6.66895 10.9124 7.12328C10.9124 7.7891 11.454 8.33075 12.1198 8.33075C12.7857 8.33075 13.3273 7.7891 13.3273 7.12328C13.3273 6.45746 12.7857 5.91581 12.1198 5.91581C12.1141 5.91581 12.1085 5.91615 12.1028 5.91615L11.8199 4.84933C11.9181 4.83651 12.0181 4.82907 12.1198 4.82907C13.3849 4.82907 14.414 5.85824 14.414 7.12328C14.414 8.38831 13.3849 9.41748 12.1198 9.41748V9.41748ZM12.1198 6.50175C12.4626 6.50175 12.7414 6.78053 12.7414 7.12328C12.7414 7.46603 12.4626 7.74481 12.1198 7.74481C11.7771 7.74481 11.4983 7.46603 11.4983 7.12328C11.4983 6.78053 11.7771 6.50175 12.1198 6.50175V6.50175Z" fill="#62D33E"/>
<path d="M2.88043 5.91577C2.21461 5.91577 1.67285 6.45742 1.67285 7.12323C1.67285 7.78904 2.21461 8.33069 2.88043 8.33069C3.54624 8.33069 4.08789 7.78904 4.08789 7.12323C4.08789 6.45742 3.54624 5.91577 2.88043 5.91577V5.91577ZM2.88043 7.74475C2.53768 7.74475 2.25879 7.46598 2.25879 7.12323C2.25879 6.78048 2.53768 6.50171 2.88043 6.50171C3.22318 6.50171 3.50195 6.78048 3.50195 7.12323C3.50195 7.46598 3.22318 7.74475 2.88043 7.74475Z" fill="#62D33E"/>
<path d="M6.00132 5.21313L5.99274 5.21874C5.85701 5.30697 5.81855 5.48835 5.90679 5.62407C5.96287 5.71035 6.05683 5.75739 6.15273 5.75739C6.20744 5.75739 6.26283 5.74205 6.31204 5.71001L6.32074 5.7044C6.45647 5.61617 6.49492 5.43468 6.40669 5.29907C6.31856 5.16335 6.13705 5.12502 6.00132 5.21313Z" fill="#62D33E"/>
</svg>
