<svg width="15" height="12" viewBox="0 0 15 12" fill="none" xmlns="http://www.w3.org/2000/svg">
<path d="M14.952 9.63319C14.7577 8.79173 14.0281 8.23854 13.2362 8.20433L11.7845 0.878866H12.1869C12.4296 0.878866 12.6263 0.682117 12.6263 0.439433C12.6263 0.196749 12.4296 0 12.1869 0C11.5292 0 10.9722 0 10.312 0C10.0693 0 9.87257 0.196749 9.87257 0.439433C9.87257 0.682117 10.0693 0.878866 10.312 0.878866H10.8886L11.8787 5.87507L10.5994 7.96838H9.55032C8.82341 7.96838 8.23202 8.55977 8.23202 9.28668V9.60893H3.69999C3.64977 9.22888 3.49893 8.68609 3.06823 8.21338C2.49503 7.58426 1.61058 7.26529 0.439432 7.26529C0.196748 7.26529 0 7.46204 0 7.70472C0 7.9474 0.196748 8.14415 0.439432 8.14415C0.813359 8.14415 1.14513 8.18206 1.43483 8.25618C0.629003 8.4541 0.0292954 9.18233 0.0292954 10.0484C0.0292954 11.066 0.857243 11.894 1.87491 11.894C2.74115 11.894 3.46955 11.294 3.66723 10.4878H4.9137L4.52858 11.258C4.3814 11.5524 4.59848 11.8941 4.92128 11.8941C5.08247 11.8941 5.23767 11.805 5.31466 11.6511L5.89629 10.4878H9.84327C9.99637 10.4878 10.1384 10.4081 10.2182 10.2775L12.1309 7.14773L12.3741 8.37521C11.6061 8.73118 11.1538 9.59083 11.3554 10.4635C11.556 11.3326 12.3282 11.8947 13.1501 11.8947C14.3435 11.8947 15.2184 10.787 14.952 9.63319ZM1.87491 11.0151C1.34185 11.0151 0.908159 10.5814 0.908159 10.0484C0.908159 9.5153 1.34185 9.08161 1.87491 9.08161C2.24977 9.08161 2.57527 9.29623 2.73558 9.60893H1.87491C1.63223 9.60893 1.43548 9.80568 1.43548 10.0484C1.43548 10.291 1.63223 10.4878 1.87491 10.4878H2.73558C2.57527 10.8005 2.24977 11.0151 1.87491 11.0151ZM9.59684 9.60893H9.11088V9.28668C9.11088 9.04438 9.30801 8.84725 9.55032 8.84725H10.0623L9.59684 9.60893ZM13.9735 10.5607C13.6904 11.0136 13.0947 11.1515 12.6413 10.8682C12.0722 10.5126 12.0316 9.70153 12.5551 9.28855L12.7226 10.1338C12.7698 10.3718 13.0011 10.5266 13.2391 10.4794C13.4771 10.4323 13.6319 10.201 13.5847 9.96294L13.4172 9.11785C13.7415 9.21019 14.0125 9.47083 14.0956 9.83087V9.8309C14.1537 10.0825 14.1103 10.3416 13.9735 10.5607Z" fill="#62D33E"/>
</svg>
