<svg width="15" height="7" viewBox="0 0 15 7" fill="none" xmlns="http://www.w3.org/2000/svg">
<path d="M14.7802 1.99312C14.6588 1.99312 14.5604 2.0915 14.5604 2.21285V2.85645C14.5604 2.89682 14.5276 2.92969 14.4872 2.92969H13.9013C13.2147 2.92969 12.6561 3.48823 12.6561 4.1748C12.6561 4.29598 12.5576 4.39453 12.4364 4.39453H10.5264C10.3299 4.39453 10.1377 4.35753 9.9552 4.28452L9.01422 3.90812C8.84911 3.84208 8.67523 3.80859 8.4974 3.80859H7.70502V3.07617H9.52103L9.88011 3.50707C10.1174 3.79181 10.466 3.95508 10.8366 3.95508H11.4928C11.7138 3.95508 11.9093 3.81419 11.9792 3.60451L12.0769 3.31157C12.1288 3.15568 12.1025 2.98301 12.0064 2.84968C11.9103 2.71635 11.7549 2.63672 11.5905 2.63672C10.6126 2.63672 8.67769 2.63672 7.70502 2.63672V2.19727H9.82184C9.94322 2.19727 10.0416 2.09889 10.0416 1.97754C10.0416 1.85619 9.94322 1.75781 9.82184 1.75781H9.19914V1.56738C9.19914 1.43007 9.31085 1.31836 9.44817 1.31836H11.2353C11.3726 1.31836 11.4843 1.43007 11.4843 1.56738V1.75781H10.8478C10.7265 1.75781 10.6281 1.85619 10.6281 1.97754C10.6281 2.09889 10.7265 2.19727 10.8478 2.19727H12.4364C12.6384 2.19727 12.8026 2.033 12.8026 1.83105V1.31836C12.8026 0.83373 13.1969 0.439453 13.6815 0.439453C14.1306 0.439453 14.5062 0.775459 14.5551 1.22103C14.5684 1.34165 14.677 1.4289 14.7975 1.41545C14.9181 1.40221 15.0052 1.29366 14.9919 1.17305C14.9185 0.504287 14.3551 0 13.6815 0C12.9546 0 12.3632 0.591416 12.3632 1.31836V1.75781H11.9237V1.56738C11.9237 1.18775 11.6149 0.878906 11.2353 0.878906H9.44817C9.06854 0.878906 8.75969 1.18775 8.75969 1.56738V1.75781H6.24018V1.56738C6.24018 1.18775 5.93134 0.878906 5.55171 0.878906H3.76462C3.38499 0.878906 3.07615 1.18775 3.07615 1.56738V1.75781H2.6367V1.31836C2.6367 0.591416 2.04529 0 1.31835 0C0.591411 0 0 0.591416 0 1.31836V2.85645C0 3.06044 0.120058 3.23648 0.292966 3.31895V5.12695C0.292966 5.69235 0.752953 6.15234 1.31835 6.15234C1.88374 6.15234 2.34373 5.69235 2.34373 5.12695V4.79619C2.41249 4.8206 2.48643 4.83398 2.56346 4.83398H3.35912C3.4805 4.83398 3.57885 4.73561 3.57885 4.61426C3.57885 4.49291 3.4805 4.39453 3.35912 4.39453H2.56346C2.44228 4.39453 2.34373 4.29598 2.34373 4.1748C2.34373 3.48823 1.78519 2.92969 1.09862 2.92969H0.512691C0.472291 2.92969 0.43945 2.89682 0.43945 2.85645V1.31836C0.43945 0.83373 0.833724 0.439453 1.31835 0.439453C1.80297 0.439453 2.19725 0.83373 2.19725 1.31836V1.83105C2.19725 2.033 2.36151 2.19727 2.56346 2.19727H7.26557V2.63672C6.29602 2.63672 4.37501 2.63672 3.40937 2.63672C3.24501 2.63672 3.08954 2.71632 2.99344 2.84968C2.89738 2.98301 2.87101 3.15568 2.92301 3.31154L3.02066 3.60451C3.09056 3.81419 3.28606 3.95508 3.50707 3.95508H4.16326C4.53389 3.95508 4.88255 3.79178 5.11976 3.50707L5.47885 3.07617H7.26557V3.80859H6.50248C6.32468 3.80859 6.15077 3.84208 5.98565 3.90812L5.04468 4.28452C4.86816 4.35797 4.60599 4.4035 4.38014 4.39453C4.25876 4.39453 4.16042 4.49291 4.16042 4.61426C4.16042 4.73561 4.25876 4.83398 4.38014 4.83398C4.62849 4.84374 4.94923 4.79763 5.20786 4.69254L6.14884 4.31616C6.2618 4.27099 6.38081 4.24805 6.50245 4.24805H8.49737C8.61901 4.24805 8.73801 4.27096 8.85098 4.31613L9.79196 4.69254C10.0266 4.78641 10.2737 4.83398 10.5264 4.83398H12.4364C12.5134 4.83398 12.5874 4.82057 12.6561 4.79619V5.12695C12.6561 5.69235 13.1161 6.15234 13.6815 6.15234C14.2469 6.15234 14.7069 5.69235 14.7069 5.12695V3.31895C14.8798 3.23645 14.9999 3.06044 14.9999 2.85645V2.21285C14.9999 2.0915 14.9015 1.99312 14.7802 1.99312V1.99312ZM11.5905 3.07617C11.6231 3.07617 11.6418 3.09521 11.6499 3.10661C11.6581 3.11795 11.6703 3.14162 11.66 3.17259L11.5623 3.46556C11.5523 3.49553 11.5244 3.51565 11.4928 3.51565H10.8367C10.5968 3.51565 10.3712 3.41001 10.2177 3.22576L10.0931 3.07617H11.5905ZM1.90428 4.1748C1.90425 4.22848 1.90431 5.07935 1.90428 5.12695C1.90428 5.45004 1.64143 5.71289 1.31835 5.71289C0.995265 5.71289 0.732416 5.45004 0.732416 5.12695V3.36914H1.09862C1.54285 3.36914 1.90428 3.73055 1.90428 4.1748ZM3.5156 1.56738C3.5156 1.43007 3.6273 1.31836 3.76462 1.31836H5.55171C5.68903 1.31836 5.80073 1.43007 5.80073 1.56738V1.75781H3.5156V1.56738ZM4.78215 3.22573C4.62863 3.40998 4.40305 3.51562 4.16323 3.51562H3.50704C3.47546 3.51562 3.44754 3.4955 3.43755 3.46556L3.3399 3.17256C3.32956 3.14162 3.34175 3.11795 3.34995 3.10661C3.35813 3.09524 3.37676 3.07617 3.40937 3.07617H4.90678L4.78215 3.22573ZM13.6815 5.71289C13.3584 5.71289 13.0956 5.45004 13.0956 5.12695C13.0956 5.09534 13.0956 4.21444 13.0956 4.1748C13.0956 3.73055 13.457 3.36914 13.9013 3.36914H14.2675V5.12695C14.2675 5.45004 14.0046 5.71289 13.6815 5.71289Z" fill="#62D33E"/>
</svg>
