<svg width="15" height="15" viewBox="0 0 15 15" fill="none" xmlns="http://www.w3.org/2000/svg">
<path d="M11.2631 9.10113C10.9711 8.79706 10.6188 8.63448 10.2455 8.63448C9.87521 8.63448 9.51995 8.79405 9.21588 9.09812L8.26452 10.0465C8.18624 10.0043 8.10797 9.96518 8.0327 9.92604C7.92432 9.87185 7.82196 9.82067 7.73465 9.76648C6.8435 9.20048 6.03364 8.46288 5.2569 7.50851C4.88057 7.03283 4.62768 6.63241 4.44403 6.22598C4.6909 6.00018 4.91971 5.76535 5.1425 5.53955C5.2268 5.45526 5.31109 5.36795 5.39539 5.28365C6.02762 4.65142 6.02762 3.83253 5.39539 3.2003L4.57349 2.37839C4.48016 2.28506 4.38382 2.18872 4.2935 2.09238C4.11286 1.90572 3.92319 1.71304 3.7275 1.53241C3.43547 1.24339 3.08624 1.08984 2.71894 1.08984C2.35165 1.08984 1.99639 1.24339 1.69533 1.53241C1.69232 1.53542 1.69232 1.53542 1.68931 1.53843L0.665695 2.57107C0.280334 2.95643 0.0605583 3.42609 0.0123883 3.97102C-0.0598668 4.85012 0.199047 5.66901 0.397749 6.2049C0.88547 7.52055 1.61404 8.73986 2.70088 10.0465C4.01953 11.621 5.60614 12.8644 7.41853 13.7405C8.11098 14.0687 9.03524 14.457 10.0679 14.5233C10.1311 14.5263 10.1973 14.5293 10.2576 14.5293C10.953 14.5293 11.5371 14.2794 11.9947 13.7827C11.9977 13.7766 12.0037 13.7736 12.0067 13.7676C12.1633 13.5779 12.3439 13.4063 12.5336 13.2227C12.663 13.0992 12.7955 12.9698 12.925 12.8343C13.223 12.5242 13.3796 12.1629 13.3796 11.7926C13.3796 11.4193 13.22 11.0611 12.9159 10.76L11.2631 9.10113ZM12.3409 12.2713C12.3379 12.2713 12.3379 12.2743 12.3409 12.2713C12.2235 12.3978 12.1031 12.5122 11.9736 12.6386C11.7779 12.8253 11.5792 13.021 11.3926 13.2407C11.0885 13.5659 10.7302 13.7194 10.2606 13.7194C10.2154 13.7194 10.1672 13.7194 10.1221 13.7164C9.22792 13.6592 8.39699 13.31 7.77379 13.0119C6.06977 12.187 4.57349 11.0159 3.3301 9.53165C2.30348 8.29428 1.61705 7.15024 1.16245 5.92191C0.88246 5.17226 0.780098 4.5882 0.825258 4.03725C0.855364 3.68501 0.990842 3.39298 1.24072 3.14309L2.26735 2.11647C2.41487 1.97798 2.57142 1.90271 2.72496 1.90271C2.91463 1.90271 3.06818 2.01712 3.16452 2.11346C3.16753 2.11647 3.17054 2.11948 3.17355 2.12249C3.3572 2.2941 3.53181 2.47172 3.71546 2.66139C3.80879 2.75773 3.90513 2.85407 4.00147 2.95342L4.82337 3.77533C5.1425 4.09445 5.1425 4.38949 4.82337 4.70862C4.73606 4.79593 4.65177 4.88324 4.56446 4.96754C4.31157 5.22645 4.07072 5.4673 3.80879 5.70213C3.80277 5.70815 3.79675 5.71116 3.79374 5.71718C3.53482 5.9761 3.58299 6.22899 3.63718 6.4006C3.6402 6.40963 3.64321 6.41866 3.64622 6.42769C3.85997 6.94552 4.16103 7.43324 4.61865 8.01429L4.62166 8.0173C5.45259 9.04092 6.32869 9.83874 7.2951 10.4499C7.41853 10.5282 7.54498 10.5914 7.66541 10.6516C7.77379 10.7058 7.87615 10.757 7.96346 10.8112C7.9755 10.8172 7.98754 10.8262 7.99958 10.8322C8.10195 10.8834 8.19829 10.9075 8.29764 10.9075C8.54752 10.9075 8.70407 10.751 8.75525 10.6998L9.78489 9.67014C9.88725 9.56778 10.0498 9.44434 10.2395 9.44434C10.4262 9.44434 10.5797 9.56176 10.673 9.66412C10.676 9.66713 10.676 9.66713 10.679 9.67014L12.3379 11.329C12.648 11.6361 12.648 11.9522 12.3409 12.2713Z" fill="#62D33E"/>
<path d="M7.69831 3.65778C8.48708 3.79024 9.2036 4.16354 9.77561 4.73552C10.3476 5.30751 10.7179 6.02399 10.8534 6.81273C10.8865 7.01142 11.0581 7.1499 11.2538 7.1499C11.2779 7.1499 11.299 7.14689 11.323 7.14388C11.5458 7.10776 11.6933 6.89702 11.6572 6.67425C11.4946 5.71994 11.0431 4.84992 10.3536 4.16053C9.66422 3.47113 8.79416 3.01957 7.83981 2.857C7.61703 2.82088 7.4093 2.96839 7.37016 3.18815C7.33102 3.40792 7.47553 3.62166 7.69831 3.65778Z" fill="#62D33E"/>
<path d="M14.2378 6.55719C13.9698 4.9856 13.2292 3.55552 12.0912 2.41747C10.9532 1.27943 9.52312 0.538797 7.95158 0.270845C7.7318 0.231706 7.52407 0.382241 7.48493 0.602022C7.4488 0.824814 7.59632 1.03255 7.81911 1.07169C9.22206 1.30954 10.5016 1.9749 11.5192 2.98951C12.5368 4.00712 13.1991 5.28667 13.4369 6.68966C13.4701 6.88836 13.6417 7.02686 13.8373 7.02686C13.8614 7.02686 13.8825 7.02385 13.9066 7.02083C14.1264 6.98772 14.2769 6.77697 14.2378 6.55719Z" fill="#62D33E"/>
</svg>
