<svg width="30" height="30" viewBox="0 0 30 30" fill="none" xmlns="http://www.w3.org/2000/svg">
<circle cx="15" cy="15" r="15" fill="#62D33E"/>
<path d="M12.7125 15.2017C11.4466 15.2017 10.4239 16.2243 10.4426 17.4777C10.4551 18.282 10.8979 18.9804 11.5495 19.3701C11.3281 19.0303 11.1972 18.6281 11.191 18.1947C11.1722 16.9414 12.1949 15.9188 13.4608 15.9188C13.7103 15.9188 13.9504 15.9593 14.1749 16.031V13.5213C13.941 13.487 13.7009 13.4683 13.4608 13.4683C13.4484 13.4683 13.439 13.4683 13.4265 13.4683V15.314C13.2021 15.2422 12.962 15.2017 12.7125 15.2017Z" fill="#62D33E"/>
<path d="M18.1844 7.6748H18.1656H17.5171C17.7042 8.61337 18.2311 9.43032 18.967 9.98535C18.4837 9.34613 18.1906 8.54789 18.1844 7.6748Z" fill="#62D33E"/>
<path d="M22.0005 11.4944C21.7542 11.4944 21.5173 11.4694 21.2834 11.4258L17.4484 11.9184L13.4263 22.0858C13.1924 22.1201 12.9523 22.1388 12.7122 22.1388C11.6459 22.1388 10.6295 21.7928 9.80322 21.1536C9.89676 21.2658 9.99653 21.375 10.1057 21.481C11.0036 22.3664 12.1947 22.856 13.4637 22.856C13.7037 22.856 13.9438 22.8373 14.1777 22.803C15.1754 22.6564 16.0952 22.1981 16.8217 21.481C17.7134 20.5986 18.206 19.4294 18.2123 18.1822L18.1655 12.6355C18.5895 12.9629 19.0541 13.2373 19.5561 13.4462C20.3325 13.7736 21.1556 13.9419 22.0005 13.9419" fill="#62D33E"/>
<path d="M10.096 14.8494C10.9846 13.967 12.1663 13.4775 13.426 13.4681V12.804C13.1921 12.7697 12.952 12.751 12.712 12.751C11.4399 12.751 10.2457 13.2405 9.34774 14.1323C8.46538 15.0084 7.96028 16.2058 7.96339 17.4499C7.96339 18.7033 8.45914 19.8788 9.35398 20.7675C9.4974 20.9078 9.64394 21.0387 9.79984 21.1572C9.09519 20.3185 8.71169 19.2708 8.70857 18.167C8.71169 16.9229 9.21367 15.7256 10.096 14.8494Z" fill="white"/>
<path d="M21.2832 11.4258V10.7586H21.277C20.4102 10.7586 19.612 10.4717 18.9697 9.98535C19.5278 10.7212 20.3447 11.2449 21.2832 11.4258Z" fill="white"/>
<path d="M13.3323 20.4025C13.6285 20.4181 13.9122 20.3775 14.1741 20.2934C15.0784 19.9972 15.73 19.1553 15.73 18.1638L15.7331 14.4535V7.67513H17.5166C17.4698 7.44129 17.4449 7.20432 17.4418 6.95801H14.9848V13.7332L14.9817 17.4436C14.9817 18.4351 14.33 19.2769 13.4258 19.5731C13.1639 19.6604 12.8802 19.7009 12.584 19.6822C12.2067 19.6604 11.8544 19.5482 11.5488 19.3673C11.9323 19.9597 12.5871 20.3619 13.3323 20.4025Z" fill="white"/>
<path d="M13.4258 22.086C14.4235 21.9395 15.3433 21.4811 16.0698 20.764C16.9615 19.8816 17.4541 18.7124 17.4604 17.4652L17.4479 11.9183C17.8719 12.2457 18.3365 12.5201 18.8385 12.729C19.6149 13.0564 20.438 13.2248 21.283 13.2248V11.4257C20.3445 11.2449 19.5276 10.721 18.9694 9.98521C18.2336 9.43022 17.7036 8.61331 17.5196 7.6748H15.733V14.4501L15.7299 18.1605C15.7299 19.152 15.0783 19.9939 14.1741 20.2901C13.9122 20.3774 13.6284 20.4179 13.3322 20.3992C12.5839 20.3587 11.9323 19.9564 11.5488 19.3671C10.8971 18.9805 10.4544 18.279 10.4419 17.4745C10.4232 16.2211 11.4459 15.1984 12.7118 15.1984C12.9612 15.1984 13.2013 15.239 13.4258 15.3107V13.4649C12.1661 13.4742 10.9844 13.9637 10.0958 14.8461C9.21343 15.7223 8.70832 16.9195 8.71144 18.1605C8.71144 19.2643 9.09495 20.3119 9.80272 21.1506C10.6321 21.7898 11.6454 22.1359 12.7118 22.1359C12.9518 22.139 13.1919 22.1203 13.4258 22.086Z" fill="white"/>
</svg>
