<svg width="30" height="30" viewBox="0 0 30 30" fill="none" xmlns="http://www.w3.org/2000/svg">
<circle cx="15" cy="15" r="15" fill="#62D33E"/>
<path d="M22.6703 11.0527C22.4859 10.3673 21.9455 9.82703 21.2602 9.64246C20.0081 9.2998 14.9998 9.2998 14.9998 9.2998C14.9998 9.2998 9.99169 9.2998 8.73962 9.62939C8.0675 9.81384 7.51391 10.3674 7.32947 11.0527C7 12.3047 7 14.9011 7 14.9011C7 14.9011 7 17.5106 7.32947 18.7495C7.51404 19.4348 8.05432 19.9752 8.73974 20.1598C10.0049 20.5024 15 20.5024 15 20.5024C15 20.5024 20.0081 20.5024 21.2602 20.1729C21.9456 19.9884 22.4859 19.448 22.6705 18.7627C22.9999 17.5106 22.9999 14.9143 22.9999 14.9143C22.9999 14.9143 23.0131 12.3047 22.6703 11.0527Z" fill="white"/>
<path d="M13.4053 17.2998L17.5699 14.9011L13.4053 12.5024V17.2998Z" fill="#62D33E"/>
</svg>
